SplineFontDB: 3.0
FontName: Evolventa-Bold
FullName: Evolventa Bold
FamilyName: Evolventa
Weight: Bold
Copyright: Copyright (c) 2016 by Alex I. Kuznetsov.\n\nThis font is free software. You are allowed to distribute and/or modify it under the terms of either (or both) of the following two licenses (your choice):\n\n1) GNU General Public License version 2 (https://gnu.org/licenses/old-licenses/gpl-2.0.txt)\n2) The LaTeX Project Public License version 1.3c or (at your option) any later version (http://www.latex-project.org/lppl.txt)\n\nContains work kindly released to the open source community by URW++ Design and Development GmbH as "URW Gothic L" (version 001.005) with the following copyright notice: Copyright URW Software, Copyright 1996 by URW.\n\nOriginal URW fonts can be obtained at the Evolventa website (https://evolventa.github.io).\n
Version: 1.0
ItalicAngle: 0
UnderlinePosition: -93
UnderlineWidth: 90
Ascent: 800
Descent: 200
InvalidEm: 0
LayerCount: 2
Layer: 0 0 "+BBcEMAQ0BD0EOAQ5 +BD8EOwQwBD0A" 1
Layer: 1 0 "+BB8ENQRABDUENAQ9BDgEOQAA +BD8EOwQwBD0A" 0
UniqueID: 5019556
FSType: 0
OS2Version: 0
OS2_WeightWidthSlopeOnly: 1
OS2_UseTypoMetrics: 1
CreationTime: 832050856
ModificationTime: 1482318975
PfmFamily: 33
TTFWeight: 700
TTFWidth: 5
LineGap: 0
VLineGap: 0
Panose: 2 11 7 2 2 2 2 2 2 4
OS2TypoAscent: 800
OS2TypoAOffset: 0
OS2TypoDescent: -200
OS2TypoDOffset: 0
OS2TypoLinegap: 330
OS2WinAscent: 1060
OS2WinAOffset: 0
OS2WinDescent: 270
OS2WinDOffset: 0
HheadAscent: 1060
HheadAOffset: 0
HheadDescent: -270
HheadDOffset: 0
OS2CapHeight: 739
OS2XHeight: 554
OS2FamilyClass: 2052
OS2Vendor: 'PfEd'
Lookup: 6 0 0 "'ccmp' Use dotless forms before combining accent marks" { "Use dotless forms before combining accent marks-1"  } ['ccmp' ('DFLT' <'dflt' > 'cyrl' <'SRB ' 'dflt' > 'latn' <'dflt' > ) ]

StartChar: Adieresis
Encoding: 196 196 0
Width: 740
Flags: W
HStem: 0 21G<7 158 582 733> 191 131<290 448> 719 20G<315 423> 805 133<199 332 409 542>
VStem: 199 133<805 938> 409 133<805 938>
AnchorPoint: "Top" 370 1015 basechar 0
LayerCount: 2
Fore
SplineSet
7 0 m 1
 7 0 315 739 315 739 c 1
 315 739 423 739 423 739 c 1
 423 739 733 0 733 0 c 1
 733 0 582 0 582 0 c 1
 582 0 503 191 503 191 c 1
 503 191 240 191 240 191 c 1
 240 191 158 0 158 0 c 1
 158 0 7 0 7 0 c 1
290 322 m 1
 290 322 448 322 448 322 c 1
 448 322 369 546 369 546 c 1
 369 546 290 322 290 322 c 1
199 805 m 1
 199 805 199 938 199 938 c 1
 199 938 332 938 332 938 c 1
 332 938 332 805 332 805 c 1
 332 805 199 805 199 805 c 1
409 805 m 1
 409 805 409 938 409 938 c 1
 409 938 542 938 542 938 c 1
 542 938 542 805 542 805 c 1
 542 805 409 805 409 805 c 1
EndSplineSet
Validated: 1
EndChar

StartChar: Aacute
Encoding: 193 193 1
Width: 740
Flags: W
HStem: 0 21G<7 158 582 733> 191 131<290 448> 719 20G<315 423>
AnchorPoint: "Top" 370 1015 basechar 0
LayerCount: 2
Fore
SplineSet
7 0 m 1
 7 0 315 739 315 739 c 1
 315 739 423 739 423 739 c 1
 423 739 733 0 733 0 c 1
 733 0 582 0 582 0 c 1
 582 0 503 191 503 191 c 1
 503 191 240 191 240 191 c 1
 240 191 158 0 158 0 c 1
 158 0 7 0 7 0 c 1
290 322 m 1
 290 322 448 322 448 322 c 1
 448 322 369 546 369 546 c 1
 369 546 290 322 290 322 c 1
315 788 m 1
 315 788 264 866 264 866 c 1
 264 866 488 1000 488 1000 c 1
 488 1000 542 908 542 908 c 1
 542 908 315 788 315 788 c 1
EndSplineSet
Validated: 1
EndChar

StartChar: Agrave
Encoding: 192 192 2
Width: 740
Flags: W
HStem: 0 21G<7 158 582 733> 191 131<290 448> 719 20G<315 423>
AnchorPoint: "Top" 370 1015 basechar 0
LayerCount: 2
Fore
SplineSet
7 0 m 1
 7 0 315 739 315 739 c 1
 315 739 423 739 423 739 c 1
 423 739 733 0 733 0 c 1
 733 0 582 0 582 0 c 1
 582 0 503 191 503 191 c 1
 503 191 240 191 240 191 c 1
 240 191 158 0 158 0 c 1
 158 0 7 0 7 0 c 1
290 322 m 1
 290 322 448 322 448 322 c 1
 448 322 369 546 369 546 c 1
 369 546 290 322 290 322 c 1
197 912 m 1
 197 912 254 1000 254 1000 c 1
 254 1000 476 867 476 867 c 1
 476 867 423 788 423 788 c 1
 423 788 197 912 197 912 c 1
EndSplineSet
Validated: 1
EndChar

StartChar: Acircumflex
Encoding: 194 194 3
Width: 740
Flags: W
HStem: 0 21G<7 158 582 733> 191 131<290 448> 719 20G<315 423>
AnchorPoint: "Top" 370 1015 basechar 0
LayerCount: 2
Fore
SplineSet
7 0 m 1
 7 0 315 739 315 739 c 1
 315 739 423 739 423 739 c 1
 423 739 733 0 733 0 c 1
 733 0 582 0 582 0 c 1
 582 0 503 191 503 191 c 1
 503 191 240 191 240 191 c 1
 240 191 158 0 158 0 c 1
 158 0 7 0 7 0 c 1
290 322 m 1
 290 322 448 322 448 322 c 1
 448 322 369 546 369 546 c 1
 369 546 290 322 290 322 c 1
171 805 m 1
 171 805 318 943 318 943 c 1
 318 943 425 943 425 943 c 1
 425 943 570 805 570 805 c 1
 570 805 425 805 425 805 c 1
 425 805 372 869 372 869 c 1
 372 869 318 805 318 805 c 1
 318 805 171 805 171 805 c 1
EndSplineSet
Validated: 1
EndChar

StartChar: Atilde
Encoding: 195 195 4
Width: 740
Flags: W
HStem: 0 21G<7 158 582 733> 191 131<290 448> 719 20G<315 423> 811 102<355.924 486.54> 836 102<249.292 391.435>
AnchorPoint: "Top" 370 1015 basechar 0
LayerCount: 2
Fore
SplineSet
7 0 m 1xe0
 7 0 315 739 315 739 c 1
 315 739 423 739 423 739 c 1
 423 739 733 0 733 0 c 1
 733 0 582 0 582 0 c 1
 582 0 503 191 503 191 c 1
 503 191 240 191 240 191 c 1
 240 191 158 0 158 0 c 1
 158 0 7 0 7 0 c 1xe0
290 322 m 1
 290 322 448 322 448 322 c 1
 448 322 369 546 369 546 c 1
 369 546 290 322 290 322 c 1
259 811 m 1xf0
 259 811 205 891 205 891 c 1
 240 926 266 938 308 938 c 0xe8
 330 938 339 936 368 924 c 0
 388 916 401 913 415 913 c 0
 441 913 461 923 482 947 c 1
 482 947 536 866 536 866 c 1
 504 827 477 811 442 811 c 0xf0
 427 811 409 815 383 824 c 0
 356 834 346 836 329 836 c 0xe8
 303 836 297 834 259 811 c 1xf0
EndSplineSet
Validated: 1
EndChar

StartChar: Aring
Encoding: 197 197 5
Width: 740
Flags: W
HStem: 0 21G<7 158 582 733> 191 131<290 448> 719 20G<315 423> 785 67<336.867 403.133> 924 67<337.112 402.19>
VStem: 267 67<854.867 921.133> 406 67<854.867 920.765>
AnchorPoint: "Top" 370 1015 basechar 0
LayerCount: 2
Fore
SplineSet
7 0 m 1
 7 0 315 739 315 739 c 1
 315 739 423 739 423 739 c 1
 423 739 733 0 733 0 c 1
 733 0 582 0 582 0 c 1
 582 0 503 191 503 191 c 1
 503 191 240 191 240 191 c 1
 240 191 158 0 158 0 c 1
 158 0 7 0 7 0 c 1
290 322 m 1
 290 322 448 322 448 322 c 1
 448 322 369 546 369 546 c 1
 369 546 290 322 290 322 c 1
371 991 m 0
 427 991 473 944 473 888 c 0
 473 831 427 785 370 785 c 0
 313 785 267 831 267 888 c 0
 267 945 313 991 371 991 c 0
369 924 m 0
 350 924 334 908 334 888 c 0
 334 868 350 852 370 852 c 0
 390 852 406 868 406 888 c 0
 406 908 390 924 369 924 c 0
EndSplineSet
Validated: 1
EndChar

StartChar: Edieresis
Encoding: 203 203 6
Width: 524
Flags: W
HStem: 0 131<208 468> 303 131<208 457> 608 131<208 468> 805 133<98 231 308 441>
VStem: 71 137<131 303 434 608> 98 133<805 938> 308 133<805 938>
AnchorPoint: "Top" 269 1015 basechar 0
LayerCount: 2
Fore
SplineSet
71 0 m 1xfa
 71 0 71 739 71 739 c 1
 71 739 468 739 468 739 c 1
 468 739 468 608 468 608 c 1
 468 608 208 608 208 608 c 1
 208 608 208 434 208 434 c 1
 208 434 457 434 457 434 c 1
 457 434 457 303 457 303 c 1
 457 303 208 303 208 303 c 1
 208 303 208 131 208 131 c 1
 208 131 468 131 468 131 c 1
 468 131 468 0 468 0 c 1
 468 0 71 0 71 0 c 1xfa
98 805 m 1xf6
 98 805 98 938 98 938 c 1
 98 938 231 938 231 938 c 1
 231 938 231 805 231 805 c 1
 231 805 98 805 98 805 c 1xf6
308 805 m 1
 308 805 308 938 308 938 c 1
 308 938 441 938 441 938 c 1
 441 938 441 805 441 805 c 1
 441 805 308 805 308 805 c 1
EndSplineSet
Validated: 1
EndChar

StartChar: Eacute
Encoding: 201 201 7
Width: 524
Flags: W
HStem: 0 131<208 468> 303 131<208 457> 608 131<208 468>
VStem: 71 137<131 303 434 608>
AnchorPoint: "Top" 269 1015 basechar 0
LayerCount: 2
Fore
SplineSet
71 0 m 1
 71 0 71 739 71 739 c 1
 71 739 468 739 468 739 c 1
 468 739 468 608 468 608 c 1
 468 608 208 608 208 608 c 1
 208 608 208 434 208 434 c 1
 208 434 457 434 457 434 c 1
 457 434 457 303 457 303 c 1
 457 303 208 303 208 303 c 1
 208 303 208 131 208 131 c 1
 208 131 468 131 468 131 c 1
 468 131 468 0 468 0 c 1
 468 0 71 0 71 0 c 1
228 788 m 1
 228 788 177 866 177 866 c 1
 177 866 401 1000 401 1000 c 1
 401 1000 455 908 455 908 c 1
 455 908 228 788 228 788 c 1
EndSplineSet
Validated: 1
EndChar

StartChar: Egrave
Encoding: 200 200 8
Width: 524
Flags: W
HStem: 0 131<208 468> 303 131<208 457> 608 131<208 468>
VStem: 71 137<131 303 434 608>
AnchorPoint: "Top" 269 1015 basechar 0
LayerCount: 2
Fore
SplineSet
71 0 m 1
 71 0 71 739 71 739 c 1
 71 739 468 739 468 739 c 1
 468 739 468 608 468 608 c 1
 468 608 208 608 208 608 c 1
 208 608 208 434 208 434 c 1
 208 434 457 434 457 434 c 1
 457 434 457 303 457 303 c 1
 457 303 208 303 208 303 c 1
 208 303 208 131 208 131 c 1
 208 131 468 131 468 131 c 1
 468 131 468 0 468 0 c 1
 468 0 71 0 71 0 c 1
90 912 m 1
 90 912 147 1000 147 1000 c 1
 147 1000 369 867 369 867 c 1
 369 867 316 788 316 788 c 1
 316 788 90 912 90 912 c 1
EndSplineSet
Validated: 1
EndChar

StartChar: Ecircumflex
Encoding: 202 202 9
Width: 524
Flags: W
HStem: 0 131<208 468> 303 131<208 457> 608 131<208 468>
VStem: 71 137<131 303 434 608>
AnchorPoint: "Top" 269 1015 basechar 0
LayerCount: 2
Fore
SplineSet
71 0 m 1
 71 0 71 739 71 739 c 1
 71 739 468 739 468 739 c 1
 468 739 468 608 468 608 c 1
 468 608 208 608 208 608 c 1
 208 608 208 434 208 434 c 1
 208 434 457 434 457 434 c 1
 457 434 457 303 457 303 c 1
 457 303 208 303 208 303 c 1
 208 303 208 131 208 131 c 1
 208 131 468 131 468 131 c 1
 468 131 468 0 468 0 c 1
 468 0 71 0 71 0 c 1
67 805 m 1
 67 805 214 943 214 943 c 1
 214 943 321 943 321 943 c 1
 321 943 466 805 466 805 c 1
 466 805 321 805 321 805 c 1
 321 805 268 869 268 869 c 1
 268 869 214 805 214 805 c 1
 214 805 67 805 67 805 c 1
EndSplineSet
Validated: 1
EndChar

StartChar: Idieresis
Encoding: 207 207 10
Width: 279
Flags: W
HStem: 0 21G<71 208> 719 20G<71 208> 805 133<-32 101 178 311>
VStem: -32 133<805 938> 71 137<0 739> 178 133<805 938>
AnchorPoint: "Top" 139 1015 basechar 0
LayerCount: 2
Fore
SplineSet
71 0 m 1xe8
 71 0 71 739 71 739 c 1
 71 739 208 739 208 739 c 1
 208 739 208 0 208 0 c 1
 208 0 71 0 71 0 c 1xe8
-32 805 m 1xf0
 -32 805 -32 938 -32 938 c 1
 -32 938 101 938 101 938 c 1
 101 938 101 805 101 805 c 1
 101 805 -32 805 -32 805 c 1xf0
178 805 m 1xe4
 178 805 178 938 178 938 c 1
 178 938 311 938 311 938 c 1
 311 938 311 805 311 805 c 1
 311 805 178 805 178 805 c 1xe4
EndSplineSet
Validated: 1
EndChar

StartChar: Iacute
Encoding: 205 205 11
Width: 279
Flags: W
HStem: 0 21G<71 208> 719 20G<71 208>
VStem: 71 137<0 739>
AnchorPoint: "Top" 139 1015 basechar 0
LayerCount: 2
Fore
SplineSet
71 0 m 1
 71 0 71 739 71 739 c 1
 71 739 208 739 208 739 c 1
 208 739 208 0 208 0 c 1
 208 0 71 0 71 0 c 1
58 788 m 1
 58 788 7 866 7 866 c 1
 7 866 231 1000 231 1000 c 1
 231 1000 285 908 285 908 c 1
 285 908 58 788 58 788 c 1
EndSplineSet
Validated: 1
EndChar

StartChar: Igrave
Encoding: 204 204 12
Width: 279
Flags: W
HStem: 0 21G<71 208> 719 20G<71 208>
VStem: 71 137<0 739>
AnchorPoint: "Top" 139 1015 basechar 0
LayerCount: 2
Fore
SplineSet
71 0 m 1
 71 0 71 739 71 739 c 1
 71 739 208 739 208 739 c 1
 208 739 208 0 208 0 c 1
 208 0 71 0 71 0 c 1
7 912 m 1
 7 912 64 1000 64 1000 c 1
 64 1000 286 867 286 867 c 1
 286 867 233 788 233 788 c 1
 233 788 7 912 7 912 c 1
EndSplineSet
Validated: 1
EndChar

StartChar: Icircumflex
Encoding: 206 206 13
Width: 279
Flags: W
HStem: 0 21G<71 208> 719 20G<71 208>
VStem: 71 137<0 739>
AnchorPoint: "Top" 139 1015 basechar 0
LayerCount: 2
Fore
SplineSet
71 0 m 1
 71 0 71 739 71 739 c 1
 71 739 208 739 208 739 c 1
 208 739 208 0 208 0 c 1
 208 0 71 0 71 0 c 1
-60 805 m 1
 -60 805 87 943 87 943 c 1
 87 943 194 943 194 943 c 1
 194 943 339 805 339 805 c 1
 339 805 194 805 194 805 c 1
 194 805 141 869 141 869 c 1
 141 869 87 805 87 805 c 1
 87 805 -60 805 -60 805 c 1
EndSplineSet
Validated: 1
EndChar

StartChar: Ntilde
Encoding: 209 209 14
Width: 741
Flags: W
HStem: 0 21G<71 208 517 670> 719 20G<71 227 533 670> 811 102<362.924 493.54> 836 102<256.292 398.435>
VStem: 71 137<0 537> 533 137<201 739>
AnchorPoint: "Top" 370 1015 basechar 0
LayerCount: 2
Fore
SplineSet
71 0 m 1xcc
 71 0 71 739 71 739 c 1
 71 739 227 739 227 739 c 1
 227 739 533 201 533 201 c 1
 533 201 533 739 533 739 c 1
 533 739 670 739 670 739 c 1
 670 739 670 0 670 0 c 1
 670 0 517 0 517 0 c 1
 517 0 208 537 208 537 c 1
 208 537 208 0 208 0 c 1
 208 0 71 0 71 0 c 1xcc
266 811 m 1xec
 266 811 212 891 212 891 c 1
 247 926 273 938 315 938 c 0xdc
 337 938 346 936 375 924 c 0
 395 916 408 913 422 913 c 0
 448 913 468 923 489 947 c 1
 489 947 543 866 543 866 c 1
 511 827 484 811 449 811 c 0xec
 434 811 416 815 390 824 c 0
 363 834 353 836 336 836 c 0xdc
 310 836 304 834 266 811 c 1xec
EndSplineSet
Validated: 1
EndChar

StartChar: Odieresis
Encoding: 214 214 15
Width: 842
Flags: W
HStem: -13 132<323.674 524.207> 620 132<317.826 522.689> 805 133<250 383 460 593>
VStem: 36 138<269.103 469.747> 250 133<805 938> 460 133<805 938> 668 138<263.369 474.399>
AnchorPoint: "Top" 421 1015 basechar 0
LayerCount: 2
Fore
SplineSet
427 752 m 0
 637 752 806 581 806 370 c 0
 806 154 640 -13 425 -13 c 0
 208 -13 36 155 36 369 c 0
 36 585 206 752 427 752 c 0
418 620 m 0
 283 620 174 509 174 370 c 0
 174 229 284 119 424 119 c 0
 564 119 668 225 668 368 c 0
 668 513 562 620 418 620 c 0
250 805 m 1
 250 805 250 938 250 938 c 1
 250 938 383 938 383 938 c 1
 383 938 383 805 383 805 c 1
 383 805 250 805 250 805 c 1
460 805 m 1
 460 805 460 938 460 938 c 1
 460 938 593 938 593 938 c 1
 593 938 593 805 593 805 c 1
 593 805 460 805 460 805 c 1
EndSplineSet
Validated: 1
EndChar

StartChar: Oacute
Encoding: 211 211 16
Width: 842
Flags: W
HStem: -13 132<323.674 524.207> 620 132<317.826 522.689>
VStem: 36 138<269.103 469.747> 668 138<263.369 474.399>
AnchorPoint: "Top" 421 1015 basechar 0
LayerCount: 2
Fore
SplineSet
427 752 m 0
 637 752 806 581 806 370 c 0
 806 154 640 -13 425 -13 c 0
 208 -13 36 155 36 369 c 0
 36 585 206 752 427 752 c 0
418 620 m 0
 283 620 174 509 174 370 c 0
 174 229 284 119 424 119 c 0
 564 119 668 225 668 368 c 0
 668 513 562 620 418 620 c 0
333 788 m 1
 333 788 282 866 282 866 c 1
 282 866 506 1000 506 1000 c 1
 506 1000 560 908 560 908 c 1
 560 908 333 788 333 788 c 1
EndSplineSet
Validated: 1
EndChar

StartChar: Ograve
Encoding: 210 210 17
Width: 842
Flags: W
HStem: -13 132<323.674 524.207> 620 132<317.826 522.689>
VStem: 36 138<269.103 469.747> 668 138<263.369 474.399>
AnchorPoint: "Top" 421 1015 basechar 0
LayerCount: 2
Fore
SplineSet
427 752 m 0
 637 752 806 581 806 370 c 0
 806 154 640 -13 425 -13 c 0
 208 -13 36 155 36 369 c 0
 36 585 206 752 427 752 c 0
418 620 m 0
 283 620 174 509 174 370 c 0
 174 229 284 119 424 119 c 0
 564 119 668 225 668 368 c 0
 668 513 562 620 418 620 c 0
282 912 m 1
 282 912 339 1000 339 1000 c 1
 339 1000 561 867 561 867 c 1
 561 867 508 788 508 788 c 1
 508 788 282 912 282 912 c 1
EndSplineSet
Validated: 1
EndChar

StartChar: Ocircumflex
Encoding: 212 212 18
Width: 842
Flags: W
HStem: -13 132<323.674 524.207> 620 132<317.826 522.689>
VStem: 36 138<269.103 469.747> 668 138<263.369 474.399>
AnchorPoint: "Top" 421 1015 basechar 0
LayerCount: 2
Fore
SplineSet
427 752 m 0
 637 752 806 581 806 370 c 0
 806 154 640 -13 425 -13 c 0
 208 -13 36 155 36 369 c 0
 36 585 206 752 427 752 c 0
418 620 m 0
 283 620 174 509 174 370 c 0
 174 229 284 119 424 119 c 0
 564 119 668 225 668 368 c 0
 668 513 562 620 418 620 c 0
222 805 m 1
 222 805 369 943 369 943 c 1
 369 943 476 943 476 943 c 1
 476 943 621 805 621 805 c 1
 621 805 476 805 476 805 c 1
 476 805 423 869 423 869 c 1
 423 869 369 805 369 805 c 1
 369 805 222 805 222 805 c 1
EndSplineSet
Validated: 1
EndChar

StartChar: Otilde
Encoding: 213 213 19
Width: 842
Flags: W
HStem: -13 132<323.674 524.207> 620 132<317.826 522.689> 811 102<406.924 537.54> 836 102<300.292 442.435>
VStem: 36 138<269.103 469.747> 668 138<263.369 474.399>
AnchorPoint: "Top" 421 1015 basechar 0
LayerCount: 2
Fore
SplineSet
427 752 m 0xcc
 637 752 806 581 806 370 c 0
 806 154 640 -13 425 -13 c 0
 208 -13 36 155 36 369 c 0
 36 585 206 752 427 752 c 0xcc
418 620 m 0
 283 620 174 509 174 370 c 0
 174 229 284 119 424 119 c 0
 564 119 668 225 668 368 c 0
 668 513 562 620 418 620 c 0
310 811 m 1xec
 310 811 256 891 256 891 c 1
 291 926 317 938 359 938 c 0xdc
 381 938 390 936 419 924 c 0
 439 916 452 913 466 913 c 0
 492 913 512 923 533 947 c 1
 533 947 587 866 587 866 c 1
 555 827 528 811 493 811 c 0xec
 478 811 460 815 434 824 c 0
 407 834 397 836 380 836 c 0xdc
 354 836 348 834 310 811 c 1xec
EndSplineSet
Validated: 1
EndChar

StartChar: Scaron
Encoding: 352 352 20
Width: 524
Flags: W
HStem: -13 132<192.646 328.262> 620 132<205.987 316.051>
VStem: 46 138<494.879 599.425> 362 136<151.376 271.376>
AnchorPoint: "Top" 261 1015 basechar 0
LayerCount: 2
Fore
SplineSet
19 211 m 1
 19 211 162 211 162 211 c 1
 168 149 201 119 262 119 c 0
 321 119 362 156 362 209 c 0
 362 241 350 267 325 286 c 0
 303 302 298 305 200 341 c 0
 100 378 46 449 46 542 c 0
 46 659 141 752 261 752 c 0
 332 752 398 721 438 668 c 0
 465 632 477 596 480 542 c 1
 480 542 338 542 338 542 c 1
 334 592 306 620 260 620 c 0
 215 620 184 589 184 545 c 0
 184 517 199 494 227 477 c 0
 236 471 239 470 307 445 c 0
 380 417 403 405 432 378 c 0
 476 338 498 286 498 224 c 0
 498 90 395 -13 262 -13 c 0
 181 -13 107 22 64 81 c 0
 35 120 23 155 19 211 c 1
62 943 m 1
 62 943 209 943 209 943 c 1
 209 943 263 879 263 879 c 1
 263 879 316 943 316 943 c 1
 316 943 461 943 461 943 c 1
 461 943 316 805 316 805 c 1
 316 805 209 805 209 805 c 1
 209 805 62 943 62 943 c 1
EndSplineSet
Validated: 1
EndChar

StartChar: Udieresis
Encoding: 220 220 21
Width: 641
Flags: W
HStem: -13 132<253.704 388.269> 719 20G<71 208 433 570> 805 133<149 282 359 492>
VStem: 71 137<164.463 739> 149 133<805 938> 359 133<805 938> 433 137<165.022 739>
AnchorPoint: "Top" 320 1015 basechar 0
LayerCount: 2
Fore
SplineSet
71 739 m 1xf2
 71 739 208 739 208 739 c 1
 208 739 208 271 208 271 c 2
 208 216 212 193 226 169 c 0
 245 138 280 119 320 119 c 0
 361 119 396 138 415 169 c 0
 429 193 433 216 433 271 c 2
 433 271 433 739 433 739 c 1
 433 739 570 739 570 739 c 1
 570 739 570 271 570 271 c 2
 570 182 554 126 517 78 c 0
 472 21 398 -13 320 -13 c 0
 231 -13 150 31 108 102 c 0
 82 146 71 195 71 271 c 2
 71 271 71 739 71 739 c 1xf2
149 805 m 1xe8
 149 805 149 938 149 938 c 1
 149 938 282 938 282 938 c 1
 282 938 282 805 282 805 c 1
 282 805 149 805 149 805 c 1xe8
359 805 m 1xe4
 359 805 359 938 359 938 c 1
 359 938 492 938 492 938 c 1
 492 938 492 805 492 805 c 1
 492 805 359 805 359 805 c 1xe4
EndSplineSet
Validated: 1
EndChar

StartChar: Uacute
Encoding: 218 218 22
Width: 641
Flags: W
HStem: -13 132<253.704 388.269> 719 20G<71 208 433 570>
VStem: 71 137<164.463 739> 433 137<165.022 739>
AnchorPoint: "Top" 320 1015 basechar 0
LayerCount: 2
Fore
SplineSet
71 739 m 1
 71 739 208 739 208 739 c 1
 208 739 208 271 208 271 c 2
 208 216 212 193 226 169 c 0
 245 138 280 119 320 119 c 0
 361 119 396 138 415 169 c 0
 429 193 433 216 433 271 c 2
 433 271 433 739 433 739 c 1
 433 739 570 739 570 739 c 1
 570 739 570 271 570 271 c 2
 570 182 554 126 517 78 c 0
 472 21 398 -13 320 -13 c 0
 231 -13 150 31 108 102 c 0
 82 146 71 195 71 271 c 2
 71 271 71 739 71 739 c 1
273 788 m 1
 273 788 222 866 222 866 c 1
 222 866 446 1000 446 1000 c 1
 446 1000 500 908 500 908 c 1
 500 908 273 788 273 788 c 1
EndSplineSet
Validated: 1
EndChar

StartChar: Ugrave
Encoding: 217 217 23
Width: 641
Flags: W
HStem: -13 132<253.704 388.269> 719 20G<71 208 433 570>
VStem: 71 137<164.463 739> 433 137<165.022 739>
AnchorPoint: "Top" 320 1015 basechar 0
LayerCount: 2
Fore
SplineSet
71 739 m 1
 71 739 208 739 208 739 c 1
 208 739 208 271 208 271 c 2
 208 216 212 193 226 169 c 0
 245 138 280 119 320 119 c 0
 361 119 396 138 415 169 c 0
 429 193 433 216 433 271 c 2
 433 271 433 739 433 739 c 1
 433 739 570 739 570 739 c 1
 570 739 570 271 570 271 c 2
 570 182 554 126 517 78 c 0
 472 21 398 -13 320 -13 c 0
 231 -13 150 31 108 102 c 0
 82 146 71 195 71 271 c 2
 71 271 71 739 71 739 c 1
141 912 m 1
 141 912 198 1000 198 1000 c 1
 198 1000 420 867 420 867 c 1
 420 867 367 788 367 788 c 1
 367 788 141 912 141 912 c 1
EndSplineSet
Validated: 1
EndChar

StartChar: Ucircumflex
Encoding: 219 219 24
Width: 641
Flags: W
HStem: -13 132<253.704 388.269> 719 20G<71 208 433 570>
VStem: 71 137<164.463 739> 433 137<165.022 739>
AnchorPoint: "Top" 320 1015 basechar 0
LayerCount: 2
Fore
SplineSet
71 739 m 1
 71 739 208 739 208 739 c 1
 208 739 208 271 208 271 c 2
 208 216 212 193 226 169 c 0
 245 138 280 119 320 119 c 0
 361 119 396 138 415 169 c 0
 429 193 433 216 433 271 c 2
 433 271 433 739 433 739 c 1
 433 739 570 739 570 739 c 1
 570 739 570 271 570 271 c 2
 570 182 554 126 517 78 c 0
 472 21 398 -13 320 -13 c 0
 231 -13 150 31 108 102 c 0
 82 146 71 195 71 271 c 2
 71 271 71 739 71 739 c 1
121 805 m 1
 121 805 268 943 268 943 c 1
 268 943 375 943 375 943 c 1
 375 943 520 805 520 805 c 1
 520 805 375 805 375 805 c 1
 375 805 322 869 322 869 c 1
 322 869 268 805 268 805 c 1
 268 805 121 805 121 805 c 1
EndSplineSet
Validated: 1
EndChar

StartChar: Yacute
Encoding: 221 221 25
Width: 637
Flags: W
HStem: 0 21G<250 387> 719 20G<7 155 482 630>
VStem: 250 137<0 273>
AnchorPoint: "Top" 318 1015 basechar 0
LayerCount: 2
Fore
SplineSet
250 0 m 1
 250 0 250 273 250 273 c 1
 250 273 7 739 7 739 c 1
 7 739 155 739 155 739 c 1
 155 739 319 399 319 399 c 1
 319 399 482 739 482 739 c 1
 482 739 630 739 630 739 c 1
 630 739 387 273 387 273 c 1
 387 273 387 0 387 0 c 1
 387 0 250 0 250 0 c 1
271 788 m 1
 271 788 220 866 220 866 c 1
 220 866 444 1000 444 1000 c 1
 444 1000 498 908 498 908 c 1
 498 908 271 788 271 788 c 1
EndSplineSet
Validated: 1
EndChar

StartChar: Zcaron
Encoding: 381 381 26
Width: 522
Flags: W
HStem: 0 131<195 492> 608 131<45 310>
AnchorPoint: "Top" 259 1015 basechar 0
LayerCount: 2
Fore
SplineSet
30 116 m 1
 30 116 310 608 310 608 c 1
 310 608 45 608 45 608 c 1
 45 608 45 739 45 739 c 1
 45 739 473 739 473 739 c 1
 473 739 473 616 473 616 c 1
 473 616 195 131 195 131 c 1
 195 131 492 131 492 131 c 1
 492 131 492 0 492 0 c 1
 492 0 30 0 30 0 c 1
 30 0 30 116 30 116 c 1
62 943 m 1
 62 943 209 943 209 943 c 1
 209 943 263 879 263 879 c 1
 263 879 316 943 316 943 c 1
 316 943 461 943 461 943 c 1
 461 943 316 805 316 805 c 1
 316 805 209 805 209 805 c 1
 209 805 62 943 62 943 c 1
EndSplineSet
Validated: 1
EndChar

StartChar: Ydieresis
Encoding: 376 376 27
Width: 637
Flags: W
HStem: 0 21G<250 387> 719 20G<7 155 482 630> 805 133<147 280 357 490>
VStem: 147 133<805 938> 250 137<0 273> 357 133<805 938>
AnchorPoint: "Top" 318 1015 basechar 0
LayerCount: 2
Fore
SplineSet
250 0 m 1xe8
 250 0 250 273 250 273 c 1
 250 273 7 739 7 739 c 1
 7 739 155 739 155 739 c 1
 155 739 319 399 319 399 c 1
 319 399 482 739 482 739 c 1
 482 739 630 739 630 739 c 1
 630 739 387 273 387 273 c 1
 387 273 387 0 387 0 c 1
 387 0 250 0 250 0 c 1xe8
147 805 m 1xf0
 147 805 147 938 147 938 c 1
 147 938 280 938 280 938 c 1
 280 938 280 805 280 805 c 1
 280 805 147 805 147 805 c 1xf0
357 805 m 1xe4
 357 805 357 938 357 938 c 1
 357 938 490 938 490 938 c 1
 490 938 490 805 490 805 c 1
 490 805 357 805 357 805 c 1xe4
EndSplineSet
Validated: 1
EndChar

StartChar: adieresis
Encoding: 228 228 28
Width: 667
Flags: W
HStem: -13 122<239.816 410.215> 0 21G<491 613> 445 122<242.021 407.204> 534 20G<491 613> 630 133<172 305 382 515>
VStem: 28 134<187.087 358.882> 172 133<630 763> 382 133<630 763> 491 122<0 72 196.205 355.084 480 554>
AnchorPoint: "Top" 345 840 basechar 0
LayerCount: 2
Fore
SplineSet
613 554 m 1x1e80
 613 554 613 0 613 0 c 1
 613 0 491 0 491 0 c 1x5e80
 491 0 491 72 491 72 c 1
 438 11 385 -13 307 -13 c 0
 145 -13 28 108 28 275 c 0
 28 444 146 567 310 567 c 0xae80
 390 567 445 541 491 480 c 1
 491 480 491 554 491 554 c 1
 491 554 613 554 613 554 c 1x1e80
322 445 m 0xae
 229 445 162 372 162 272 c 0
 162 175 229 109 326 109 c 0
 422 109 487 176 487 275 c 0
 487 375 419 445 322 445 c 0xae
172 630 m 1
 172 630 172 763 172 763 c 1
 172 763 305 763 305 763 c 1
 305 763 305 630 305 630 c 1
 305 630 172 630 172 630 c 1
382 630 m 1x0f
 382 630 382 763 382 763 c 1
 382 763 515 763 515 763 c 1
 515 763 515 630 515 630 c 1
 515 630 382 630 382 630 c 1x0f
EndSplineSet
Validated: 1
EndChar

StartChar: aacute
Encoding: 225 225 29
Width: 667
Flags: W
HStem: -13 122<239.816 410.215> 0 21G<491 613> 445 122<242.021 407.204> 534 20G<491 613>
VStem: 28 134<187.087 358.882> 491 122<0 72 196.205 355.084 480 554>
AnchorPoint: "Top" 347 840 basechar 0
LayerCount: 2
Fore
SplineSet
613 554 m 1x1c
 613 554 613 0 613 0 c 1
 613 0 491 0 491 0 c 1x5c
 491 0 491 72 491 72 c 1
 438 11 385 -13 307 -13 c 0
 145 -13 28 108 28 275 c 0
 28 444 146 567 310 567 c 0xac
 390 567 445 541 491 480 c 1
 491 480 491 554 491 554 c 1
 491 554 613 554 613 554 c 1x1c
322 445 m 0xac
 229 445 162 372 162 272 c 0
 162 175 229 109 326 109 c 0
 422 109 487 176 487 275 c 0
 487 375 419 445 322 445 c 0xac
293 613 m 1
 293 613 242 691 242 691 c 1
 242 691 466 825 466 825 c 1
 466 825 520 733 520 733 c 1
 520 733 293 613 293 613 c 1
EndSplineSet
Validated: 1
EndChar

StartChar: agrave
Encoding: 224 224 30
Width: 667
Flags: W
HStem: -13 122<239.816 410.215> 0 21G<491 613> 445 122<242.021 407.204> 534 20G<491 613>
VStem: 28 134<187.087 358.882> 491 122<0 72 196.205 355.084 480 554>
AnchorPoint: "Top" 347 840 basechar 0
LayerCount: 2
Fore
SplineSet
613 554 m 1x1c
 613 554 613 0 613 0 c 1
 613 0 491 0 491 0 c 1x5c
 491 0 491 72 491 72 c 1
 438 11 385 -13 307 -13 c 0
 145 -13 28 108 28 275 c 0
 28 444 146 567 310 567 c 0xac
 390 567 445 541 491 480 c 1
 491 480 491 554 491 554 c 1
 491 554 613 554 613 554 c 1x1c
322 445 m 0xac
 229 445 162 372 162 272 c 0
 162 175 229 109 326 109 c 0
 422 109 487 176 487 275 c 0
 487 375 419 445 322 445 c 0xac
168 737 m 1
 168 737 225 825 225 825 c 1
 225 825 447 692 447 692 c 1
 447 692 394 613 394 613 c 1
 394 613 168 737 168 737 c 1
EndSplineSet
Validated: 1
EndChar

StartChar: acircumflex
Encoding: 226 226 31
Width: 667
Flags: W
HStem: -13 122<239.816 410.215> 0 21G<491 613> 445 122<242.021 407.204> 534 20G<491 613>
VStem: 28 134<187.087 358.882> 491 122<0 72 196.205 355.084 480 554>
AnchorPoint: "Top" 347 840 basechar 0
LayerCount: 2
Fore
SplineSet
613 554 m 1x1c
 613 554 613 0 613 0 c 1
 613 0 491 0 491 0 c 1x5c
 491 0 491 72 491 72 c 1
 438 11 385 -13 307 -13 c 0
 145 -13 28 108 28 275 c 0
 28 444 146 567 310 567 c 0xac
 390 567 445 541 491 480 c 1
 491 480 491 554 491 554 c 1
 491 554 613 554 613 554 c 1x1c
322 445 m 0xac
 229 445 162 372 162 272 c 0
 162 175 229 109 326 109 c 0
 422 109 487 176 487 275 c 0
 487 375 419 445 322 445 c 0xac
144 630 m 1
 144 630 291 768 291 768 c 1
 291 768 398 768 398 768 c 1
 398 768 543 630 543 630 c 1
 543 630 398 630 398 630 c 1
 398 630 345 694 345 694 c 1
 345 694 291 630 291 630 c 1
 291 630 144 630 144 630 c 1
EndSplineSet
Validated: 1
EndChar

StartChar: atilde
Encoding: 227 227 32
Width: 667
Flags: W
HStem: -13 122<239.816 410.215> 0 21G<491 613> 445 122<242.021 407.204> 534 20G<491 613> 636 102<328.924 459.54> 661 102<222.292 364.435>
VStem: 28 134<187.087 358.882> 491 122<0 72 196.205 355.084 480 554>
AnchorPoint: "Top" 347 840 basechar 0
LayerCount: 2
Fore
SplineSet
613 554 m 1x13
 613 554 613 0 613 0 c 1
 613 0 491 0 491 0 c 1x53
 491 0 491 72 491 72 c 1
 438 11 385 -13 307 -13 c 0
 145 -13 28 108 28 275 c 0
 28 444 146 567 310 567 c 0xa3
 390 567 445 541 491 480 c 1
 491 480 491 554 491 554 c 1
 491 554 613 554 613 554 c 1x13
322 445 m 0xa3
 229 445 162 372 162 272 c 0
 162 175 229 109 326 109 c 0
 422 109 487 176 487 275 c 0
 487 375 419 445 322 445 c 0xa3
232 636 m 1x0b
 232 636 178 716 178 716 c 1
 213 751 239 763 281 763 c 0x07
 303 763 312 761 341 749 c 0
 361 741 374 738 388 738 c 0
 414 738 434 748 455 772 c 1
 455 772 509 691 509 691 c 1
 477 652 450 636 415 636 c 0x0b
 400 636 382 640 356 649 c 0
 329 659 319 661 302 661 c 0x07
 276 661 270 659 232 636 c 1x0b
EndSplineSet
Validated: 1
EndChar

StartChar: aring
Encoding: 229 229 33
Width: 667
Flags: W
HStem: -13 122<239.816 410.215> 0 21G<491 613> 445 122<242.021 407.204> 534 20G<491 613> 610 67<310.867 377.133> 749 67<311.112 376.19>
VStem: 28 134<187.087 358.882> 241 67<679.867 746.133> 380 67<679.867 745.765> 491 122<0 72 196.205 355.084 480 554>
AnchorPoint: "Top" 345 840 basechar 0
LayerCount: 2
Fore
SplineSet
613 554 m 1x1fc0
 613 554 613 0 613 0 c 1
 613 0 491 0 491 0 c 1x5fc0
 491 0 491 72 491 72 c 1
 438 11 385 -13 307 -13 c 0
 145 -13 28 108 28 275 c 0
 28 444 146 567 310 567 c 0xafc0
 390 567 445 541 491 480 c 1
 491 480 491 554 491 554 c 1
 491 554 613 554 613 554 c 1x1fc0
322 445 m 0xafc0
 229 445 162 372 162 272 c 0
 162 175 229 109 326 109 c 0
 422 109 487 176 487 275 c 0
 487 375 419 445 322 445 c 0xafc0
345 816 m 0
 401 816 447 769 447 713 c 0
 447 656 401 610 344 610 c 0
 287 610 241 656 241 713 c 0
 241 770 287 816 345 816 c 0
343 749 m 0
 324 749 308 733 308 713 c 0
 308 693 324 677 344 677 c 0
 364 677 380 693 380 713 c 0
 380 733 364 749 343 749 c 0
EndSplineSet
Validated: 1
EndChar

StartChar: edieresis
Encoding: 235 235 34
Width: 634
Flags: W
HStem: -13 122<237.682 408.665> 218 117<172 475> 445 122<232.931 410.229> 630 133<153 286 363 496>
VStem: 153 133<630 763> 363 133<630 763>
AnchorPoint: "Top" 324 840 basechar 0
LayerCount: 2
Fore
SplineSet
601 218 m 1
 601 218 172 218 172 218 c 1
 188 151 246 109 325 109 c 0
 380 109 413 124 447 164 c 1
 447 164 592 164 592 164 c 1
 583 136 569 113 548 87 c 0
 490 19 419 -13 328 -13 c 0
 159 -13 28 113 28 275 c 0
 28 438 157 567 320 567 c 0
 485 567 606 441 606 269 c 0
 606 249 605 237 601 218 c 1
168 335 m 1
 168 335 475 335 475 335 c 1
 458 406 404 445 322 445 c 0
 243 445 189 407 168 335 c 1
153 630 m 1
 153 630 153 763 153 763 c 1
 153 763 286 763 286 763 c 1
 286 763 286 630 286 630 c 1
 286 630 153 630 153 630 c 1
363 630 m 1
 363 630 363 763 363 763 c 1
 363 763 496 763 496 763 c 1
 496 763 496 630 496 630 c 1
 496 630 363 630 363 630 c 1
EndSplineSet
Validated: 1
EndChar

StartChar: eacute
Encoding: 233 233 35
Width: 634
Flags: W
HStem: -13 122<237.682 408.665> 218 117<172 475> 445 122<232.931 410.229>
AnchorPoint: "Top" 324 840 basechar 0
LayerCount: 2
Fore
SplineSet
601 218 m 1
 601 218 172 218 172 218 c 1
 188 151 246 109 325 109 c 0
 380 109 413 124 447 164 c 1
 447 164 592 164 592 164 c 1
 583 136 569 113 548 87 c 0
 490 19 419 -13 328 -13 c 0
 159 -13 28 113 28 275 c 0
 28 438 157 567 320 567 c 0
 485 567 606 441 606 269 c 0
 606 249 605 237 601 218 c 1
168 335 m 1
 168 335 475 335 475 335 c 1
 458 406 404 445 322 445 c 0
 243 445 189 407 168 335 c 1
276 613 m 1
 276 613 225 691 225 691 c 1
 225 691 449 825 449 825 c 1
 449 825 503 733 503 733 c 1
 503 733 276 613 276 613 c 1
EndSplineSet
Validated: 1
EndChar

StartChar: egrave
Encoding: 232 232 36
Width: 634
Flags: W
HStem: -13 122<237.682 408.665> 218 117<172 475> 445 122<232.931 410.229>
AnchorPoint: "Top" 324 840 basechar 0
LayerCount: 2
Fore
SplineSet
601 218 m 1
 601 218 172 218 172 218 c 1
 188 151 246 109 325 109 c 0
 380 109 413 124 447 164 c 1
 447 164 592 164 592 164 c 1
 583 136 569 113 548 87 c 0
 490 19 419 -13 328 -13 c 0
 159 -13 28 113 28 275 c 0
 28 438 157 567 320 567 c 0
 485 567 606 441 606 269 c 0
 606 249 605 237 601 218 c 1
168 335 m 1
 168 335 475 335 475 335 c 1
 458 406 404 445 322 445 c 0
 243 445 189 407 168 335 c 1
141 737 m 1
 141 737 198 825 198 825 c 1
 198 825 420 692 420 692 c 1
 420 692 367 613 367 613 c 1
 367 613 141 737 141 737 c 1
EndSplineSet
Validated: 1
EndChar

StartChar: ecircumflex
Encoding: 234 234 37
Width: 634
Flags: W
HStem: -13 122<237.682 408.665> 218 117<172 475> 445 122<232.931 410.229>
AnchorPoint: "Top" 324 840 basechar 0
LayerCount: 2
Fore
SplineSet
601 218 m 1
 601 218 172 218 172 218 c 1
 188 151 246 109 325 109 c 0
 380 109 413 124 447 164 c 1
 447 164 592 164 592 164 c 1
 583 136 569 113 548 87 c 0
 490 19 419 -13 328 -13 c 0
 159 -13 28 113 28 275 c 0
 28 438 157 567 320 567 c 0
 485 567 606 441 606 269 c 0
 606 249 605 237 601 218 c 1
168 335 m 1
 168 335 475 335 475 335 c 1
 458 406 404 445 322 445 c 0
 243 445 189 407 168 335 c 1
124 630 m 1
 124 630 271 768 271 768 c 1
 271 768 378 768 378 768 c 1
 378 768 523 630 523 630 c 1
 523 630 378 630 378 630 c 1
 378 630 325 694 325 694 c 1
 325 694 271 630 271 630 c 1
 271 630 124 630 124 630 c 1
EndSplineSet
Validated: 1
EndChar

StartChar: idieresis
Encoding: 239 239 38
Width: 241
Flags: W
HStem: 0 21G<54 187> 534 20G<54 187> 630 133<-51 82 159 292>
VStem: -51 133<630 763> 54 133<0 554> 159 133<630 763>
AnchorPoint: "Top" 120 840 basechar 0
LayerCount: 2
Fore
SplineSet
54 0 m 1xe8
 54 0 54 554 54 554 c 1
 54 554 187 554 187 554 c 1
 187 554 187 0 187 0 c 1
 187 0 54 0 54 0 c 1xe8
-51 630 m 1xf0
 -51 630 -51 763 -51 763 c 1
 -51 763 82 763 82 763 c 1
 82 763 82 630 82 630 c 1
 82 630 -51 630 -51 630 c 1xf0
159 630 m 1xe4
 159 630 159 763 159 763 c 1
 159 763 292 763 292 763 c 1
 292 763 292 630 292 630 c 1
 292 630 159 630 159 630 c 1xe4
EndSplineSet
Validated: 1
EndChar

StartChar: iacute
Encoding: 237 237 39
Width: 241
Flags: W
HStem: 0 21G<54 187> 534 20G<54 187>
VStem: 54 133<0 554>
AnchorPoint: "Top" 120 840 basechar 0
LayerCount: 2
Fore
SplineSet
54 0 m 1
 54 0 54 554 54 554 c 1
 54 554 187 554 187 554 c 1
 187 554 187 0 187 0 c 1
 187 0 54 0 54 0 c 1
35 613 m 1
 35 613 -16 691 -16 691 c 1
 -16 691 208 825 208 825 c 1
 208 825 262 733 262 733 c 1
 262 733 35 613 35 613 c 1
EndSplineSet
Validated: 1
EndChar

StartChar: igrave
Encoding: 236 236 40
Width: 241
Flags: W
HStem: 0 21G<54 187> 534 20G<54 187>
VStem: 54 133<0 554>
AnchorPoint: "Top" 120 840 basechar 0
LayerCount: 2
Fore
SplineSet
54 0 m 1
 54 0 54 554 54 554 c 1
 54 554 187 554 187 554 c 1
 187 554 187 0 187 0 c 1
 187 0 54 0 54 0 c 1
-16 737 m 1
 -16 737 41 825 41 825 c 1
 41 825 263 692 263 692 c 1
 263 692 210 613 210 613 c 1
 210 613 -16 737 -16 737 c 1
EndSplineSet
Validated: 1
EndChar

StartChar: icircumflex
Encoding: 238 238 41
Width: 241
Flags: W
HStem: 0 21G<54 187> 534 20G<54 187>
VStem: 54 133<0 554>
AnchorPoint: "Top" 120 840 basechar 0
LayerCount: 2
Fore
SplineSet
54 0 m 1
 54 0 54 554 54 554 c 1
 54 554 187 554 187 554 c 1
 187 554 187 0 187 0 c 1
 187 0 54 0 54 0 c 1
-79 630 m 1
 -79 630 68 768 68 768 c 1
 68 768 175 768 175 768 c 1
 175 768 320 630 320 630 c 1
 320 630 175 630 175 630 c 1
 175 630 122 694 122 694 c 1
 122 694 68 630 68 630 c 1
 68 630 -79 630 -79 630 c 1
EndSplineSet
Validated: 1
EndChar

StartChar: ntilde
Encoding: 241 241 42
Width: 598
Flags: W
HStem: 0 21G<54 187 413 546> 445 122<237.176 373.107> 534 20G<54 177> 636 102<275.924 406.54> 661 102<169.292 311.435>
VStem: 54 133<0 392.629> 54 123<501 554> 413 133<0 401.074>
AnchorPoint: "Top" 300 840 basechar 0
LayerCount: 2
Fore
SplineSet
54 0 m 1xc5
 54 0 54 554 54 554 c 1
 54 554 177 554 177 554 c 1
 177 554 177 501 177 501 c 1xa3
 226 549 269 567 333 567 c 0
 412 567 474 537 510 482 c 0
 537 439 546 393 546 297 c 2
 546 297 546 0 546 0 c 1
 546 0 413 0 413 0 c 1
 413 0 413 271 413 271 c 2
 413 347 405 388 385 412 c 0
 367 434 341 445 307 445 c 0
 263 445 228 426 208 391 c 0
 192 365 187 333 187 261 c 2
 187 261 187 0 187 0 c 1
 187 0 54 0 54 0 c 1xc5
179 636 m 1x91
 179 636 125 716 125 716 c 1
 160 751 186 763 228 763 c 0x89
 250 763 259 761 288 749 c 0
 308 741 321 738 335 738 c 0
 361 738 381 748 402 772 c 1
 402 772 456 691 456 691 c 1
 424 652 397 636 362 636 c 0x91
 347 636 329 640 303 649 c 0
 276 659 266 661 249 661 c 0x89
 223 661 217 659 179 636 c 1x91
EndSplineSet
Validated: 1
EndChar

StartChar: odieresis
Encoding: 246 246 43
Width: 645
Flags: W
HStem: -13 122<247.573 397.565> 445 122<244.121 398.007> 630 133<151 284 361 494>
VStem: 28 134<195.19 358.197> 151 133<630 763> 361 133<630 763> 483 134<195.038 358.136>
AnchorPoint: "Top" 322 840 basechar 0
LayerCount: 2
Fore
SplineSet
325 567 m 0xf2
 486 567 617 436 617 276 c 0
 617 117 485 -13 323 -13 c 0
 160 -13 28 117 28 276 c 0
 28 438 159 567 325 567 c 0xf2
320 445 m 0
 234 445 162 369 162 277 c 0
 162 184 234 109 322 109 c 0
 411 109 483 184 483 276 c 0
 483 371 411 445 320 445 c 0
151 630 m 1xe8
 151 630 151 763 151 763 c 1
 151 763 284 763 284 763 c 1
 284 763 284 630 284 630 c 1
 284 630 151 630 151 630 c 1xe8
361 630 m 1xe4
 361 630 361 763 361 763 c 1
 361 763 494 763 494 763 c 1
 494 763 494 630 494 630 c 1
 494 630 361 630 361 630 c 1xe4
EndSplineSet
Validated: 1
EndChar

StartChar: oacute
Encoding: 243 243 44
Width: 645
Flags: W
HStem: -13 122<247.573 397.565> 445 122<244.121 398.007>
VStem: 28 134<195.19 358.197> 483 134<195.038 358.136>
AnchorPoint: "Top" 322 840 basechar 0
LayerCount: 2
Fore
SplineSet
325 567 m 0
 486 567 617 436 617 276 c 0
 617 117 485 -13 323 -13 c 0
 160 -13 28 117 28 276 c 0
 28 438 159 567 325 567 c 0
320 445 m 0
 234 445 162 369 162 277 c 0
 162 184 234 109 322 109 c 0
 411 109 483 184 483 276 c 0
 483 371 411 445 320 445 c 0
268 613 m 1
 268 613 217 691 217 691 c 1
 217 691 441 825 441 825 c 1
 441 825 495 733 495 733 c 1
 495 733 268 613 268 613 c 1
EndSplineSet
Validated: 1
EndChar

StartChar: ograve
Encoding: 242 242 45
Width: 645
Flags: W
HStem: -13 122<247.573 397.565> 445 122<244.121 398.007>
VStem: 28 134<195.19 358.197> 483 134<195.038 358.136>
AnchorPoint: "Top" 322 840 basechar 0
LayerCount: 2
Fore
SplineSet
325 567 m 0
 486 567 617 436 617 276 c 0
 617 117 485 -13 323 -13 c 0
 160 -13 28 117 28 276 c 0
 28 438 159 567 325 567 c 0
320 445 m 0
 234 445 162 369 162 277 c 0
 162 184 234 109 322 109 c 0
 411 109 483 184 483 276 c 0
 483 371 411 445 320 445 c 0
150 737 m 1
 150 737 207 825 207 825 c 1
 207 825 429 692 429 692 c 1
 429 692 376 613 376 613 c 1
 376 613 150 737 150 737 c 1
EndSplineSet
Validated: 1
EndChar

StartChar: ocircumflex
Encoding: 244 244 46
Width: 645
Flags: W
HStem: -13 122<247.573 397.565> 445 122<244.121 398.007>
VStem: 28 134<195.19 358.197> 483 134<195.038 358.136>
AnchorPoint: "Top" 322 840 basechar 0
LayerCount: 2
Fore
SplineSet
325 567 m 0
 486 567 617 436 617 276 c 0
 617 117 485 -13 323 -13 c 0
 160 -13 28 117 28 276 c 0
 28 438 159 567 325 567 c 0
320 445 m 0
 234 445 162 369 162 277 c 0
 162 184 234 109 322 109 c 0
 411 109 483 184 483 276 c 0
 483 371 411 445 320 445 c 0
123 630 m 1
 123 630 270 768 270 768 c 1
 270 768 377 768 377 768 c 1
 377 768 522 630 522 630 c 1
 522 630 377 630 377 630 c 1
 377 630 324 694 324 694 c 1
 324 694 270 630 270 630 c 1
 270 630 123 630 123 630 c 1
EndSplineSet
Validated: 1
EndChar

StartChar: otilde
Encoding: 245 245 47
Width: 645
Flags: W
HStem: -13 122<247.573 397.565> 445 122<244.121 398.007> 636 102<310.924 441.54> 661 102<204.292 346.435>
VStem: 28 134<195.19 358.197> 483 134<195.038 358.136>
AnchorPoint: "Top" 322 840 basechar 0
LayerCount: 2
Fore
SplineSet
325 567 m 0xcc
 486 567 617 436 617 276 c 0
 617 117 485 -13 323 -13 c 0
 160 -13 28 117 28 276 c 0
 28 438 159 567 325 567 c 0xcc
320 445 m 0
 234 445 162 369 162 277 c 0
 162 184 234 109 322 109 c 0
 411 109 483 184 483 276 c 0
 483 371 411 445 320 445 c 0
214 636 m 1xec
 214 636 160 716 160 716 c 1
 195 751 221 763 263 763 c 0xdc
 285 763 294 761 323 749 c 0
 343 741 356 738 370 738 c 0
 396 738 416 748 437 772 c 1
 437 772 491 691 491 691 c 1
 459 652 432 636 397 636 c 0xec
 382 636 364 640 338 649 c 0
 311 659 301 661 284 661 c 0xdc
 258 661 252 659 214 636 c 1xec
EndSplineSet
Validated: 1
EndChar

StartChar: scaron
Encoding: 353 353 48
Width: 438
Flags: W
HStem: -13 122<170.738 269.83> 445 122<176.266 261.737>
VStem: 35 133<364.606 436.652> 283 133<122.319 202.866>
AnchorPoint: "Top" 220 840 basechar 0
LayerCount: 2
Fore
SplineSet
15 176 m 1
 15 176 149 176 149 176 c 1
 162 129 184 109 223 109 c 0
 258 109 283 132 283 163 c 0
 283 181 274 196 258 206 c 0
 244 215 239 217 189 234 c 0
 78 271 35 317 35 398 c 0
 35 493 115 567 219 567 c 0
 276 567 330 543 365 502 c 0
 389 473 399 446 401 401 c 1
 401 401 271 401 271 401 c 1
 265 430 247 445 219 445 c 0
 190 445 168 425 168 398 c 0
 168 382 177 369 194 361 c 0
 208 355 208 355 262 338 c 0
 374 304 416 260 416 176 c 0
 416 70 329 -13 218 -13 c 0
 149 -13 85 18 50 67 c 0
 29 97 20 124 15 176 c 1
20 768 m 1
 20 768 167 768 167 768 c 1
 167 768 221 704 221 704 c 1
 221 704 274 768 274 768 c 1
 274 768 419 768 419 768 c 1
 419 768 274 630 274 630 c 1
 274 630 167 630 167 630 c 1
 167 630 20 768 20 768 c 1
EndSplineSet
Validated: 1
EndChar

StartChar: udieresis
Encoding: 252 252 49
Width: 599
Flags: W
HStem: -13 122<224.936 362.537> 0 21G<422 545> 534 20G<52 185 412 545> 630 133<127 260 337 470>
VStem: 52 133<150.962 554> 127 133<630 763> 337 133<630 763> 412 133<157.318 554> 422 123<0 53>
AnchorPoint: "Top" 298 840 basechar 0
LayerCount: 2
Fore
SplineSet
545 554 m 1xb9
 545 554 545 0 545 0 c 1
 545 0 422 0 422 0 c 1
 422 0 422 53 422 53 c 1x7080
 371 4 330 -13 263 -13 c 0
 188 -13 127 18 91 74 c 0
 62 119 52 166 52 257 c 2
 52 257 52 554 52 554 c 1
 52 554 185 554 185 554 c 1
 185 554 185 283 185 283 c 2
 185 206 193 167 213 142 c 0
 232 120 256 109 290 109 c 0
 336 109 374 128 393 162 c 0
 407 187 412 222 412 293 c 2
 412 293 412 554 412 554 c 1
 412 554 545 554 545 554 c 1xb9
127 630 m 1x34
 127 630 127 763 127 763 c 1
 127 763 260 763 260 763 c 1
 260 763 260 630 260 630 c 1
 260 630 127 630 127 630 c 1x34
337 630 m 1x32
 337 630 337 763 337 763 c 1
 337 763 470 763 470 763 c 1
 470 763 470 630 470 630 c 1
 470 630 337 630 337 630 c 1x32
EndSplineSet
Validated: 1
EndChar

StartChar: uacute
Encoding: 250 250 50
Width: 599
Flags: W
HStem: -13 122<224.936 362.537> 0 21G<422 545> 534 20G<52 185 412 545>
VStem: 52 133<150.962 554> 412 133<157.318 554> 422 123<0 53>
AnchorPoint: "Top" 298 840 basechar 0
LayerCount: 2
Fore
SplineSet
545 554 m 1xb8
 545 554 545 0 545 0 c 1
 545 0 422 0 422 0 c 1
 422 0 422 53 422 53 c 1x74
 371 4 330 -13 263 -13 c 0
 188 -13 127 18 91 74 c 0
 62 119 52 166 52 257 c 2
 52 257 52 554 52 554 c 1
 52 554 185 554 185 554 c 1
 185 554 185 283 185 283 c 2
 185 206 193 167 213 142 c 0
 232 120 256 109 290 109 c 0
 336 109 374 128 393 162 c 0
 407 187 412 222 412 293 c 2
 412 293 412 554 412 554 c 1
 412 554 545 554 545 554 c 1xb8
251 613 m 1
 251 613 200 691 200 691 c 1
 200 691 424 825 424 825 c 1
 424 825 478 733 478 733 c 1
 478 733 251 613 251 613 c 1
EndSplineSet
Validated: 1
EndChar

StartChar: ugrave
Encoding: 249 249 51
Width: 599
Flags: W
HStem: -13 122<224.936 362.537> 0 21G<422 545> 534 20G<52 185 412 545>
VStem: 52 133<150.962 554> 412 133<157.318 554> 422 123<0 53>
AnchorPoint: "Top" 298 840 basechar 0
LayerCount: 2
Fore
SplineSet
545 554 m 1xb8
 545 554 545 0 545 0 c 1
 545 0 422 0 422 0 c 1
 422 0 422 53 422 53 c 1x74
 371 4 330 -13 263 -13 c 0
 188 -13 127 18 91 74 c 0
 62 119 52 166 52 257 c 2
 52 257 52 554 52 554 c 1
 52 554 185 554 185 554 c 1
 185 554 185 283 185 283 c 2
 185 206 193 167 213 142 c 0
 232 120 256 109 290 109 c 0
 336 109 374 128 393 162 c 0
 407 187 412 222 412 293 c 2
 412 293 412 554 412 554 c 1
 412 554 545 554 545 554 c 1xb8
119 737 m 1
 119 737 176 825 176 825 c 1
 176 825 398 692 398 692 c 1
 398 692 345 613 345 613 c 1
 345 613 119 737 119 737 c 1
EndSplineSet
Validated: 1
EndChar

StartChar: ucircumflex
Encoding: 251 251 52
Width: 599
Flags: W
HStem: -13 122<224.936 362.537> 0 21G<422 545> 534 20G<52 185 412 545>
VStem: 52 133<150.962 554> 412 133<157.318 554> 422 123<0 53>
AnchorPoint: "Top" 298 840 basechar 0
LayerCount: 2
Fore
SplineSet
545 554 m 1xb8
 545 554 545 0 545 0 c 1
 545 0 422 0 422 0 c 1
 422 0 422 53 422 53 c 1x74
 371 4 330 -13 263 -13 c 0
 188 -13 127 18 91 74 c 0
 62 119 52 166 52 257 c 2
 52 257 52 554 52 554 c 1
 52 554 185 554 185 554 c 1
 185 554 185 283 185 283 c 2
 185 206 193 167 213 142 c 0
 232 120 256 109 290 109 c 0
 336 109 374 128 393 162 c 0
 407 187 412 222 412 293 c 2
 412 293 412 554 412 554 c 1
 412 554 545 554 545 554 c 1xb8
99 630 m 1
 99 630 246 768 246 768 c 1
 246 768 353 768 353 768 c 1
 353 768 498 630 498 630 c 1
 498 630 353 630 353 630 c 1
 353 630 300 694 300 694 c 1
 300 694 246 630 246 630 c 1
 246 630 99 630 99 630 c 1
EndSplineSet
Validated: 1
EndChar

StartChar: yacute
Encoding: 253 253 53
Width: 568
Flags: W
HStem: -185 21G<102 245> 534 20G<3 155 412 565>
AnchorPoint: "Top" 284 840 basechar 0
LayerCount: 2
Fore
SplineSet
102 -185 m 1
 102 -185 206 52 206 52 c 1
 206 52 3 554 3 554 c 1
 3 554 155 554 155 554 c 1
 155 554 278 195 278 195 c 1
 278 195 412 554 412 554 c 1
 412 554 565 554 565 554 c 1
 565 554 245 -185 245 -185 c 1
 245 -185 102 -185 102 -185 c 1
202 613 m 1
 202 613 151 691 151 691 c 1
 151 691 375 825 375 825 c 1
 375 825 429 733 429 733 c 1
 429 733 202 613 202 613 c 1
EndSplineSet
Validated: 1
EndChar

StartChar: zcaron
Encoding: 382 382 54
Width: 482
Flags: W
HStem: 0 119<189 452> 435 119<58 274>
AnchorPoint: "Top" 246 840 basechar 0
LayerCount: 2
Fore
SplineSet
30 0 m 1
 30 0 30 119 30 119 c 1
 30 119 274 435 274 435 c 1
 274 435 58 435 58 435 c 1
 58 435 58 554 58 554 c 1
 58 554 433 554 433 554 c 1
 433 554 433 435 433 435 c 1
 433 435 189 119 189 119 c 1
 189 119 452 119 452 119 c 1
 452 119 452 0 452 0 c 1
 452 0 30 0 30 0 c 1
48 768 m 1
 48 768 195 768 195 768 c 1
 195 768 249 704 249 704 c 1
 249 704 302 768 302 768 c 1
 302 768 447 768 447 768 c 1
 447 768 302 630 302 630 c 1
 302 630 195 630 195 630 c 1
 195 630 48 768 48 768 c 1
EndSplineSet
Validated: 1
EndChar

StartChar: ydieresis
Encoding: 255 255 55
Width: 568
Flags: W
HStem: -185 21G<102 245> 534 20G<3 155 412 565> 630 133<113 246 323 456>
VStem: 113 133<630 763> 323 133<630 763>
AnchorPoint: "Top" 284 840 basechar 0
LayerCount: 2
Fore
SplineSet
102 -185 m 1
 102 -185 206 52 206 52 c 1
 206 52 3 554 3 554 c 1
 3 554 155 554 155 554 c 1
 155 554 278 195 278 195 c 1
 278 195 412 554 412 554 c 1
 412 554 565 554 565 554 c 1
 565 554 245 -185 245 -185 c 1
 245 -185 102 -185 102 -185 c 1
113 630 m 1
 113 630 113 763 113 763 c 1
 113 763 246 763 246 763 c 1
 246 763 246 630 246 630 c 1
 246 630 113 630 113 630 c 1
323 630 m 1
 323 630 323 763 323 763 c 1
 323 763 456 763 456 763 c 1
 456 763 456 630 456 630 c 1
 456 630 323 630 323 630 c 1
EndSplineSet
Validated: 1
EndChar

StartChar: A
Encoding: 65 65 56
Width: 740
Flags: W
HStem: 0 21G<7 158 582 733> 191 131<290 448> 719 20G<315 423>
AnchorPoint: "Top" 370 805 basechar 0
LayerCount: 2
Fore
SplineSet
7 0 m 1
 7 0 315 739 315 739 c 1
 315 739 423 739 423 739 c 1
 423 739 733 0 733 0 c 1
 733 0 582 0 582 0 c 1
 582 0 503 191 503 191 c 1
 503 191 240 191 240 191 c 1
 240 191 158 0 158 0 c 1
 158 0 7 0 7 0 c 1
290 322 m 1
 290 322 448 322 448 322 c 1
 448 322 369 546 369 546 c 1
 369 546 290 322 290 322 c 1
EndSplineSet
Validated: 1
EndChar

StartChar: B
Encoding: 66 66 57
Width: 587
Flags: W
HStem: 0 131<208 378.379> 320 134<208 344.52> 605 134<208 346.826>
VStem: 71 137<131 320 454 605> 370 137<477.424 582.229> 413 138<163.178 285.143>
AnchorPoint: "Top" 281 805 basechar 0
LayerCount: 2
Fore
SplineSet
71 0 m 1xf4
 71 0 71 739 71 739 c 1
 71 739 223 739 223 739 c 2
 336 739 382 730 427 700 c 0
 478 666 507 609 507 542 c 0xf8
 507 472 484 434 425 403 c 1
 474 383 496 368 517 339 c 0
 539 309 551 266 551 220 c 0
 551 142 514 75 450 38 c 0
 405 12 347 0 268 0 c 2
 268 0 71 0 71 0 c 1xf4
208 131 m 1
 208 131 276 131 276 131 c 2
 372 131 413 159 413 224 c 0xf4
 413 289 368 320 273 320 c 2
 273 320 208 320 208 320 c 1
 208 320 208 131 208 131 c 1
208 454 m 1
 208 454 252 454 252 454 c 2
 335 454 370 477 370 530 c 0xf8
 370 581 335 605 264 605 c 2
 264 605 208 605 208 605 c 1
 208 605 208 454 208 454 c 1
EndSplineSet
Validated: 1
EndChar

StartChar: C
Encoding: 67 67 58
Width: 802
Flags: W
HStem: -13 132<326.424 520.59> 620 132<316.907 526.412>
VStem: 36 138<271.562 470.557>
AnchorPoint: "Top" 420 805 basechar 0
LayerCount: 2
Fore
SplineSet
605 206 m 1
 605 206 766 206 766 206 c 1
 708 71 577 -13 425 -13 c 0
 209 -13 36 158 36 372 c 0
 36 581 207 752 416 752 c 0
 509 752 598 720 667 662 c 0
 714 622 738 589 766 527 c 1
 766 527 613 527 613 527 c 1
 563 592 505 620 419 620 c 0
 343 620 280 592 235 539 c 0
 197 495 174 431 174 371 c 0
 174 233 285 119 422 119 c 0
 493 119 544 143 605 206 c 1
EndSplineSet
Validated: 1
EndChar

StartChar: D
Encoding: 68 68 59
Width: 699
Flags: W
HStem: 0 131<208 391.935> 608 131<208 393.646>
VStem: 71 137<131 608> 525 138<264.585 476.656>
AnchorPoint: "Top" 341 805 basechar 0
LayerCount: 2
Fore
SplineSet
71 0 m 1
 71 0 71 739 71 739 c 1
 71 739 240 739 240 739 c 2
 361 739 450 720 510 681 c 0
 608 618 663 505 663 368 c 0
 663 215 593 93 476 38 c 0
 417 11 352 0 243 0 c 2
 243 0 71 0 71 0 c 1
208 131 m 1
 208 131 238 131 238 131 c 2
 320 131 377 142 418 164 c 0
 484 200 525 279 525 368 c 0
 525 465 480 545 407 581 c 0
 365 601 320 608 235 608 c 2
 235 608 208 608 208 608 c 1
 208 608 208 131 208 131 c 1
EndSplineSet
Validated: 1
EndChar

StartChar: E
Encoding: 69 69 60
Width: 524
Flags: W
HStem: 0 131<208 468> 303 131<208 457> 608 131<208 468>
VStem: 71 137<131 303 434 608>
AnchorPoint: "Top" 269 805 basechar 0
LayerCount: 2
Fore
SplineSet
71 0 m 1
 71 0 71 739 71 739 c 1
 71 739 468 739 468 739 c 1
 468 739 468 608 468 608 c 1
 468 608 208 608 208 608 c 1
 208 608 208 434 208 434 c 1
 208 434 457 434 457 434 c 1
 457 434 457 303 457 303 c 1
 457 303 208 303 208 303 c 1
 208 303 208 131 208 131 c 1
 208 131 468 131 468 131 c 1
 468 131 468 0 468 0 c 1
 468 0 71 0 71 0 c 1
EndSplineSet
Validated: 1
EndChar

StartChar: F
Encoding: 70 70 61
Width: 495
Flags: W
HStem: 0 21G<71 208> 303 131<208 436> 608 131<208 447>
VStem: 71 137<0 303 434 608>
AnchorPoint: "Top" 259 805 basechar 0
LayerCount: 2
Fore
SplineSet
71 0 m 1
 71 0 71 739 71 739 c 1
 71 739 447 739 447 739 c 1
 447 739 447 608 447 608 c 1
 447 608 208 608 208 608 c 1
 208 608 208 434 208 434 c 1
 208 434 436 434 436 434 c 1
 436 434 436 303 436 303 c 1
 436 303 208 303 208 303 c 1
 208 303 208 0 208 0 c 1
 208 0 71 0 71 0 c 1
EndSplineSet
Validated: 1
EndChar

StartChar: G
Encoding: 71 71 62
Width: 857
Flags: W
HStem: -13 132<324.64 534.039> 249 128<341 647> 620 132<317.032 528.553>
VStem: 36 138<271.71 469.255>
AnchorPoint: "Top" 428 805 basechar 0
LayerCount: 2
Fore
SplineSet
341 249 m 1
 341 249 341 377 341 377 c 1
 341 377 824 377 824 377 c 1
 824 377 824 359 824 359 c 2
 824 264 786 172 718 101 c 0
 645 26 550 -13 438 -13 c 4
 211 -13 36 154 36 371 c 0
 36 584 208 752 425 752 c 0
 586 752 738 656 786 522 c 1
 786 522 625 522 625 522 c 1
 579 586 508 620 422 620 c 0
 351 620 286 594 243 548 c 0
 201 503 174 433 174 369 c 0
 174 227 285 119 430 119 c 0
 528 119 607 167 647 249 c 1
 647 249 341 249 341 249 c 1
EndSplineSet
Validated: 1
EndChar

StartChar: H
Encoding: 72 72 63
Width: 680
Flags: W
HStem: 0 21G<71 208 472 609> 310 131<208 472> 719 20G<71 208 472 609>
VStem: 71 137<0 310 441 739> 472 137<0 310 441 739>
AnchorPoint: "Top" 340 805 basechar 0
LayerCount: 2
Fore
SplineSet
71 0 m 1
 71 0 71 739 71 739 c 1
 71 739 208 739 208 739 c 1
 208 739 208 441 208 441 c 5
 208 441 472 441 472 441 c 1
 472 441 472 739 472 739 c 1
 472 739 609 739 609 739 c 1
 609 739 609 0 609 0 c 1
 609 0 472 0 472 0 c 1
 472 0 472 310 472 310 c 1
 472 310 208 310 208 310 c 1
 208 310 208 0 208 0 c 1
 208 0 71 0 71 0 c 1
EndSplineSet
Validated: 1
EndChar

StartChar: I
Encoding: 73 73 64
Width: 279
Flags: W
HStem: 0 21G<71 208> 719 20G<71 208>
VStem: 71 137<0 739>
AnchorPoint: "Top" 139 805 basechar 0
LayerCount: 2
Fore
SplineSet
71 0 m 1
 71 0 71 739 71 739 c 1
 71 739 208 739 208 739 c 1
 208 739 208 0 208 0 c 1
 208 0 71 0 71 0 c 1
EndSplineSet
Validated: 1
EndChar

StartChar: J
Encoding: 74 74 65
Width: 494
Flags: W
HStem: -13 132<172.398 267.284> 719 20G<286 423>
VStem: 286 137<139.62 739>
AnchorPoint: "Top" 354 805 basechar 0
LayerCount: 2
Fore
SplineSet
286 739 m 1
 286 739 423 739 423 739 c 1
 423 739 423 212 423 212 c 2
 423 73 347 -13 223 -13 c 0
 159 -13 100 13 62 57 c 0
 34 89 23 118 18 175 c 1
 18 175 155 175 155 175 c 1
 164 138 186 119 220 119 c 0
 264 119 286 151 286 216 c 2
 286 216 286 739 286 739 c 1
EndSplineSet
Validated: 1
EndChar

StartChar: K
Encoding: 75 75 66
Width: 614
Flags: W
HStem: 0 21G<71 208 437 602> 719 20G<71 208 437 602>
VStem: 71 137<0 325 420 739>
AnchorPoint: "Top" 323 805 basechar 0
LayerCount: 2
Fore
SplineSet
71 0 m 1
 71 0 71 739 71 739 c 1
 71 739 208 739 208 739 c 1
 208 739 208 420 208 420 c 1
 208 420 437 739 437 739 c 1
 437 739 602 739 602 739 c 1
 602 739 324 376 324 376 c 1
 324 376 602 0 602 0 c 1
 602 0 437 0 437 0 c 1
 437 0 208 325 208 325 c 1
 208 325 208 0 208 0 c 1
 208 0 71 0 71 0 c 1
EndSplineSet
Validated: 1
EndChar

StartChar: L
Encoding: 76 76 67
Width: 454
Flags: W
HStem: 0 131<208 434> 719 20G<71 208>
VStem: 71 137<131 739>
AnchorPoint: "Top" 139 805 basechar 0
LayerCount: 2
Fore
SplineSet
71 0 m 1
 71 0 71 739 71 739 c 1
 71 739 208 739 208 739 c 1
 208 739 208 131 208 131 c 1
 208 131 434 131 434 131 c 1
 434 131 434 0 434 0 c 1
 434 0 71 0 71 0 c 1
EndSplineSet
Validated: 1
EndChar

StartChar: M
Encoding: 77 77 68
Width: 914
Flags: W
HStem: 0 21G<71 208 401 513 706 843> 719 20G<71 259 655 843>
VStem: 71 137<0 554> 706 137<0 554>
AnchorPoint: "Top" 457 805 basechar 0
LayerCount: 2
Fore
SplineSet
71 0 m 1
 71 0 71 739 71 739 c 1
 71 739 259 739 259 739 c 1
 259 739 458 179 458 179 c 1
 458 179 655 739 655 739 c 1
 655 739 843 739 843 739 c 1
 843 739 843 0 843 0 c 1
 843 0 706 0 706 0 c 1
 706 0 706 554 706 554 c 1
 706 554 513 0 513 0 c 1
 513 0 401 0 401 0 c 1
 401 0 208 554 208 554 c 1
 208 554 208 0 208 0 c 1
 208 0 71 0 71 0 c 1
EndSplineSet
Validated: 1
EndChar

StartChar: N
Encoding: 78 78 69
Width: 741
Flags: W
HStem: 0 21G<71 208 517 670> 719 20G<71 227 533 670>
VStem: 71 137<0 537> 533 137<201 739>
AnchorPoint: "Top" 370 805 basechar 0
LayerCount: 2
Fore
SplineSet
71 0 m 1
 71 0 71 739 71 739 c 1
 71 739 227 739 227 739 c 1
 227 739 533 201 533 201 c 1
 533 201 533 739 533 739 c 1
 533 739 670 739 670 739 c 1
 670 739 670 0 670 0 c 1
 670 0 517 0 517 0 c 1
 517 0 208 537 208 537 c 1
 208 537 208 0 208 0 c 1
 208 0 71 0 71 0 c 1
EndSplineSet
Validated: 1
EndChar

StartChar: O
Encoding: 79 79 70
Width: 842
Flags: W
HStem: -13 132<323.674 524.207> 620 132<317.826 522.689>
VStem: 36 138<269.103 469.747> 668 138<263.369 474.399>
AnchorPoint: "Top" 421 805 basechar 0
LayerCount: 2
Fore
SplineSet
427 752 m 0
 637 752 806 581 806 370 c 0
 806 154 640 -13 425 -13 c 0
 208 -13 36 155 36 369 c 0
 36 585 206 752 427 752 c 0
418 620 m 0
 283 620 174 509 174 370 c 0
 174 229 284 119 424 119 c 0
 564 119 668 225 668 368 c 0
 668 513 562 620 418 620 c 0
EndSplineSet
Validated: 1
EndChar

StartChar: P
Encoding: 80 80 71
Width: 573
Flags: W
HStem: 0 21G<71 208> 281 131<208 366.099> 608 131<208 369.983>
VStem: 71 137<0 281 412 608> 405 138<447.835 573.745>
AnchorPoint: "Top" 287 805 basechar 0
LayerCount: 2
Fore
SplineSet
71 0 m 1
 71 0 71 739 71 739 c 1
 71 739 254 739 254 739 c 2
 355 739 405 729 449 701 c 0
 509 662 543 594 543 511 c 0
 543 423 504 347 440 311 c 0
 400 289 353 281 252 281 c 2
 252 281 208 281 208 281 c 1
 208 281 208 0 208 0 c 1
 208 0 71 0 71 0 c 1
208 412 m 1
 208 412 248 412 248 412 c 2
 288 412 320 415 342 422 c 0
 381 433 405 466 405 508 c 0
 405 555 381 590 341 601 c 0
 320 606 299 608 254 608 c 2
 254 608 208 608 208 608 c 1
 208 608 208 412 208 412 c 1
EndSplineSet
Validated: 1
EndChar

StartChar: Q
Encoding: 81 81 72
Width: 864
Flags: W
HStem: -15 122<733.324 834> -13 132<324.785 523.519> 235 112<218.204 400.828> 620 132<320.426 532.484>
VStem: 36 137<337.503 470.296> 683 138<260.187 468.421>
AnchorPoint: "Top" 428 805 basechar 0
LayerCount: 2
Fore
SplineSet
834 110 m 1xbc
 834 110 834 -14 834 -14 c 1
 826 -15 819 -15 815 -15 c 0xbc
 752 -15 704 2 641 45 c 1
 588 9 511 -13 437 -13 c 0x7c
 213 -13 36 156 36 370 c 0
 36 585 208 752 429 752 c 0
 654 752 821 587 821 366 c 0
 821 268 792 192 732 129 c 1
 763 113 782 107 806 107 c 0
 815 107 821 108 834 110 c 1xbc
525 138 m 1
 439 207 369 235 288 235 c 0
 263 235 248 233 217 227 c 1
 274 153 343 119 436 119 c 0x7c
 474 119 494 123 525 138 c 1
623 204 m 1
 663 245 683 297 683 364 c 0
 683 511 574 620 428 620 c 0
 282 620 173 512 173 368 c 0
 173 359 173 351 175 334 c 1
 210 343 244 347 289 347 c 0
 407 347 533 293 623 204 c 1
EndSplineSet
Validated: 1
EndChar

StartChar: R
Encoding: 82 82 73
Width: 604
Flags: W
HStem: 0 21G<71 208 402 571> 608 131<208 382.279>
VStem: 71 137<0 283 386 608> 426 138<426.592 567.582>
AnchorPoint: "Top" 290 805 basechar 0
LayerCount: 2
Fore
SplineSet
71 0 m 1
 71 0 71 739 71 739 c 1
 71 739 284 739 284 739 c 2
 388 739 442 724 491 680 c 0
 539 637 564 576 564 502 c 0
 564 427 537 367 484 324 c 0
 453 299 426 287 371 273 c 1
 371 273 571 0 571 0 c 1
 571 0 402 0 402 0 c 1
 402 0 208 283 208 283 c 1
 208 283 208 0 208 0 c 1
 208 0 71 0 71 0 c 1
208 386 m 1
 208 386 275 386 275 386 c 2
 381 386 426 420 426 498 c 0
 426 535 413 565 388 584 c 0
 366 601 331 608 269 608 c 2
 269 608 208 608 208 608 c 1
 208 608 208 386 208 386 c 1
EndSplineSet
Validated: 1
EndChar

StartChar: S
Encoding: 83 83 74
Width: 524
Flags: W
HStem: -13 132<192.646 328.262> 620 132<205.987 316.051>
VStem: 46 138<494.879 599.425> 362 136<151.376 271.376>
AnchorPoint: "Top" 261 805 basechar 0
LayerCount: 2
Fore
SplineSet
19 211 m 1
 19 211 162 211 162 211 c 1
 168 149 201 119 262 119 c 0
 321 119 362 156 362 209 c 0
 362 241 350 267 325 286 c 0
 303 302 298 305 200 341 c 0
 100 378 46 449 46 542 c 0
 46 659 141 752 261 752 c 0
 332 752 398 721 438 668 c 0
 465 632 477 596 480 542 c 1
 480 542 338 542 338 542 c 1
 334 592 306 620 260 620 c 0
 215 620 184 589 184 545 c 0
 184 517 199 494 227 477 c 0
 236 471 239 470 307 445 c 0
 380 417 403 405 432 378 c 0
 476 338 498 286 498 224 c 0
 498 90 395 -13 262 -13 c 0
 181 -13 107 22 64 81 c 0
 35 120 23 155 19 211 c 1
EndSplineSet
Validated: 1
EndChar

StartChar: T
Encoding: 84 84 75
Width: 425
Flags: W
HStem: 0 21G<144 281> 608 131<7 144 281 418>
VStem: 144 137<0 608>
AnchorPoint: "Top" 212 805 basechar 0
LayerCount: 2
Fore
SplineSet
144 0 m 1
 144 0 144 608 144 608 c 1
 144 608 7 608 7 608 c 1
 7 608 7 739 7 739 c 1
 7 739 418 739 418 739 c 1
 418 739 418 608 418 608 c 1
 418 608 281 608 281 608 c 1
 281 608 281 0 281 0 c 1
 281 0 144 0 144 0 c 1
EndSplineSet
Validated: 1
EndChar

StartChar: U
Encoding: 85 85 76
Width: 641
Flags: W
HStem: -13 132<253.704 388.269> 719 20G<71 208 433 570>
VStem: 71 137<164.463 739> 433 137<165.022 739>
AnchorPoint: "Top" 320 805 basechar 0
LayerCount: 2
Fore
SplineSet
71 739 m 1
 71 739 208 739 208 739 c 1
 208 739 208 271 208 271 c 2
 208 216 212 193 226 169 c 0
 245 138 280 119 320 119 c 0
 361 119 396 138 415 169 c 0
 429 193 433 216 433 271 c 2
 433 271 433 739 433 739 c 1
 433 739 570 739 570 739 c 1
 570 739 570 271 570 271 c 2
 570 182 554 126 517 78 c 0
 472 21 398 -13 320 -13 c 0
 231 -13 150 31 108 102 c 0
 82 146 71 195 71 271 c 2
 71 271 71 739 71 739 c 1
EndSplineSet
Validated: 1
EndChar

StartChar: V
Encoding: 86 86 77
Width: 694
Flags: W
HStem: 0 21G<292 404> 719 20G<4 148 546 690>
AnchorPoint: "Top" 347 805 basechar 0
LayerCount: 2
Fore
SplineSet
292 0 m 1
 292 0 4 739 4 739 c 1
 4 739 148 739 148 739 c 1
 148 739 347 177 347 177 c 1
 347 177 546 739 546 739 c 1
 546 739 690 739 690 739 c 1
 690 739 404 0 404 0 c 1
 404 0 292 0 292 0 c 1
EndSplineSet
Validated: 1
EndChar

StartChar: W
Encoding: 87 87 78
Width: 915
Flags: W
HStem: 0 21G<229 337 578 687> 719 20G<12 152 408 508 763 903>
AnchorPoint: "Top" 457 805 basechar 0
LayerCount: 2
Fore
SplineSet
229 0 m 1
 229 0 12 739 12 739 c 1
 12 739 152 739 152 739 c 1
 152 739 282 223 282 223 c 1
 282 223 408 739 408 739 c 1
 408 739 508 739 508 739 c 1
 508 739 632 223 632 223 c 1
 632 223 763 739 763 739 c 1
 763 739 903 739 903 739 c 1
 903 739 687 0 687 0 c 1
 687 0 578 0 578 0 c 1
 578 0 459 489 459 489 c 1
 459 489 337 0 337 0 c 1
 337 0 229 0 229 0 c 1
EndSplineSet
Validated: 1
EndChar

StartChar: X
Encoding: 88 88 79
Width: 685
Flags: W
HStem: 0 21G<7 170 519 678> 719 20G<7 170 519 678>
AnchorPoint: "Top" 342 805 basechar 0
LayerCount: 2
Fore
SplineSet
7 0 m 1
 7 0 261 368 261 368 c 1
 261 368 7 739 7 739 c 1
 7 739 170 739 170 739 c 1
 170 739 342 481 342 481 c 1
 342 481 519 739 519 739 c 1
 519 739 678 739 678 739 c 1
 678 739 422 368 422 368 c 1
 422 368 678 0 678 0 c 1
 678 0 519 0 519 0 c 1
 519 0 342 255 342 255 c 1
 342 255 170 0 170 0 c 1
 170 0 7 0 7 0 c 1
EndSplineSet
Validated: 1
EndChar

StartChar: Y
Encoding: 89 89 80
Width: 637
Flags: W
HStem: 0 21G<250 387> 719 20G<7 155 482 630>
VStem: 250 137<0 273>
AnchorPoint: "Top" 318 805 basechar 0
LayerCount: 2
Fore
SplineSet
250 0 m 1
 250 0 250 273 250 273 c 1
 250 273 7 739 7 739 c 1
 7 739 155 739 155 739 c 1
 155 739 319 399 319 399 c 1
 319 399 482 739 482 739 c 1
 482 739 630 739 630 739 c 1
 630 739 387 273 387 273 c 1
 387 273 387 0 387 0 c 1
 387 0 250 0 250 0 c 1
EndSplineSet
Validated: 1
EndChar

StartChar: Z
Encoding: 90 90 81
Width: 522
Flags: W
HStem: 0 131<195 492> 608 131<45 310>
AnchorPoint: "Top" 259 805 basechar 0
LayerCount: 2
Fore
SplineSet
30 116 m 1
 30 116 310 608 310 608 c 1
 310 608 45 608 45 608 c 1
 45 608 45 739 45 739 c 1
 45 739 473 739 473 739 c 1
 473 739 473 616 473 616 c 1
 473 616 195 131 195 131 c 1
 195 131 492 131 492 131 c 1
 492 131 492 0 492 0 c 1
 492 0 30 0 30 0 c 1
 30 0 30 116 30 116 c 1
EndSplineSet
Validated: 1
EndChar

StartChar: AE
Encoding: 198 198 82
Width: 884
Flags: W
HStem: 0 131<610 828> 191 131<358 473> 303 131<610 817> 608 131<610 828>
VStem: 473 137<131 191 434 513>
AnchorPoint: "Top" 470 805 basechar 0
LayerCount: 2
Fore
SplineSet
2 0 m 1xd8
 2 0 489 739 489 739 c 1
 489 739 828 739 828 739 c 1
 828 739 828 608 828 608 c 1
 828 608 610 608 610 608 c 1
 610 608 610 434 610 434 c 1
 610 434 817 434 817 434 c 1
 817 434 817 303 817 303 c 1
 817 303 610 303 610 303 c 1xb8
 610 303 610 131 610 131 c 1
 610 131 828 131 828 131 c 1
 828 131 828 0 828 0 c 1
 828 0 473 0 473 0 c 1
 473 0 473 191 473 191 c 1
 473 191 279 191 279 191 c 1
 279 191 167 0 167 0 c 1
 167 0 2 0 2 0 c 1xd8
358 322 m 1xd8
 358 322 473 322 473 322 c 1
 473 322 473 513 473 513 c 1
 473 513 358 322 358 322 c 1xd8
EndSplineSet
Validated: 1
EndChar

StartChar: OE
Encoding: 338 338 83
Width: 1058
Flags: W
HStem: -13 132<316.2 514.405> 0 131<784 1002> 303 131<784 991> 608 131<784 1002> 620 132<314.988 510.757>
VStem: 36 138<261.875 473.813> 650 134<262.742 303 434 475.5>
AnchorPoint: "Top" 569 805 basechar 0
LayerCount: 2
Fore
SplineSet
1002 0 m 1x76
 1002 0 645 0 645 0 c 1x76
 645 0 645 81 645 81 c 1
 590 20 509 -13 416 -13 c 0
 199 -13 36 151 36 368 c 0
 36 588 196 752 411 752 c 0xae
 512 752 589 721 645 657 c 1
 645 657 645 739 645 739 c 1
 645 739 1002 739 1002 739 c 1
 1002 739 1002 608 1002 608 c 1
 1002 608 784 608 784 608 c 1
 784 608 784 434 784 434 c 1
 784 434 991 434 991 434 c 1
 991 434 991 303 991 303 c 1
 991 303 784 303 784 303 c 1
 784 303 784 131 784 131 c 1
 784 131 1002 131 1002 131 c 1
 1002 131 1002 0 1002 0 c 1x76
407 620 m 0xae
 276 620 174 509 174 366 c 0
 174 225 278 119 414 119 c 0
 551 119 650 224 650 368 c 0
 650 516 550 620 407 620 c 0xae
EndSplineSet
Validated: 1
EndChar

StartChar: Oslash
Encoding: 216 216 84
Width: 845
Flags: W
HStem: -13 132<335.827 526.494> 620 132<321.995 508.711>
VStem: 36 138<270.327 469.762> 671 138<263.584 473.451>
AnchorPoint: "Top" 422 805 basechar 0
LayerCount: 2
Fore
SplineSet
744 743 m 1
 744 743 683 653 683 653 c 1
 766 578 809 479 809 370 c 0
 809 154 643 -13 427 -13 c 0
 367 -13 312 -1 259 23 c 1
 259 23 199 -65 199 -65 c 1
 199 -65 103 0 103 0 c 1
 103 0 162 87 162 87 c 1
 82 159 36 262 36 370 c 0
 36 582 207 752 422 752 c 0
 480 752 531 741 587 717 c 1
 587 717 649 809 649 809 c 1
 649 809 744 743 744 743 c 1
607 540 m 1
 607 540 335 135 335 135 c 1
 367 124 394 119 426 119 c 0
 566 119 671 226 671 368 c 0
 671 433 649 491 607 540 c 1
239 201 m 1
 239 201 511 605 511 605 c 1
 482 615 454 620 422 620 c 0
 283 620 174 510 174 370 c 0
 174 308 197 249 239 201 c 1
EndSplineSet
Validated: 1
EndChar

StartChar: Ccedilla
Encoding: 199 199 85
Width: 802
Flags: W
HStem: -251 55<379.066 445.396> -106 55<389.471 445.233> -13 132<405 517.305> 620 132<316.907 526.412>
VStem: 36 138<269.033 470.557> 451 58<-190.824 -110.58>
AnchorPoint: "Top" 420 805 basechar 0
LayerCount: 2
Fore
SplineSet
405 -13 m 1
 405 -13 389 -58 389 -58 c 1
 402 -53 409 -51 418 -51 c 0
 468 -51 509 -97 509 -152 c 0
 509 -211 470 -251 413 -251 c 0
 362 -251 321 -216 313 -166 c 1
 313 -166 375 -166 375 -166 c 1
 383 -186 395 -196 412 -196 c 0
 434 -196 451 -176 451 -150 c 0
 451 -126 434 -106 413 -106 c 0
 398 -106 388 -113 375 -133 c 1
 375 -133 322 -107 322 -107 c 1
 322 -107 355 -7 355 -7 c 1
 176 20 36 186 36 372 c 0
 36 581 207 752 416 752 c 0
 509 752 598 720 667 662 c 0
 714 622 738 589 766 527 c 1
 766 527 613 527 613 527 c 1
 563 592 505 620 419 620 c 0
 343 620 280 592 235 539 c 0
 197 495 174 431 174 371 c 0
 174 233 285 119 422 119 c 0
 493 119 544 143 605 206 c 1
 605 206 766 206 766 206 c 1
 706 69 575 -13 419 -13 c 0
 414 -13 410 -13 405 -13 c 1
EndSplineSet
Validated: 1
EndChar

StartChar: Eth
Encoding: 208 208 86
Width: 744
Flags: W
HStem: 0 131<253 436.935> 315 107<20 116 253 407> 608 131<253 438.646>
VStem: 116 137<131 315 422 608> 570 138<264.585 476.656>
AnchorPoint: "Top" 360 805 basechar 0
LayerCount: 2
Fore
SplineSet
116 0 m 1
 116 0 116 315 116 315 c 1
 116 315 20 315 20 315 c 1
 20 315 20 422 20 422 c 1
 20 422 116 422 116 422 c 1
 116 422 116 739 116 739 c 1
 116 739 285 739 285 739 c 2
 406 739 495 720 555 681 c 0
 653 618 708 505 708 368 c 0
 708 215 639 93 521 38 c 0
 462 11 397 0 288 0 c 2
 288 0 116 0 116 0 c 1
253 131 m 1
 253 131 283 131 283 131 c 2
 365 131 422 141 464 164 c 0
 529 200 570 279 570 368 c 0
 570 465 525 545 452 581 c 0
 410 601 365 608 280 608 c 2
 280 608 253 608 253 608 c 1
 253 608 253 422 253 422 c 1
 253 422 407 422 407 422 c 1
 407 422 407 315 407 315 c 1
 407 315 253 315 253 315 c 1
 253 315 253 131 253 131 c 1
EndSplineSet
Validated: 1
EndChar

StartChar: Lslash
Encoding: 321 321 87
Width: 484
Flags: W
HStem: 0 128<250 476> 719 20G<113 250>
VStem: 113 137<128 273 474 739>
AnchorPoint: "Top" 181 805 basechar 0
LayerCount: 2
Fore
SplineSet
113 0 m 1
 113 0 113 273 113 273 c 1
 113 273 17 194 17 194 c 1
 17 194 17 318 17 318 c 1
 17 318 113 397 113 397 c 1
 113 397 113 739 113 739 c 1
 113 739 250 739 250 739 c 1
 250 739 250 474 250 474 c 1
 250 474 392 584 392 584 c 1
 392 584 392 461 392 461 c 1
 392 461 250 350 250 350 c 1
 250 350 250 128 250 128 c 1
 250 128 476 128 476 128 c 1
 476 128 476 0 476 0 c 1
 476 0 113 0 113 0 c 1
EndSplineSet
Validated: 1
EndChar

StartChar: Thorn
Encoding: 222 222 88
Width: 576
Flags: W
HStem: 0 21G<71 208> 149 131<208 366.099> 477 131<208 369.983> 719 20G<71 208>
VStem: 71 137<0 149 280 477 608 739> 405 138<316.087 442.745>
AnchorPoint: "Top" 280 805 basechar 0
LayerCount: 2
Fore
SplineSet
71 0 m 1
 71 0 71 739 71 739 c 1
 71 739 208 739 208 739 c 1
 208 739 208 608 208 608 c 1
 208 608 254 608 254 608 c 2
 355 608 405 598 449 570 c 0
 509 531 543 463 543 380 c 0
 543 291 504 215 440 179 c 0
 400 157 353 149 252 149 c 2
 252 149 208 149 208 149 c 1
 208 149 208 0 208 0 c 1
 208 0 71 0 71 0 c 1
208 280 m 1
 208 280 248 280 248 280 c 2
 288 280 320 283 342 290 c 0
 381 301 405 334 405 377 c 0
 405 424 381 459 341 470 c 0
 320 475 299 477 254 477 c 2
 254 477 208 477 208 477 c 1
 208 477 208 280 208 280 c 1
EndSplineSet
Validated: 1
EndChar

StartChar: a
Encoding: 97 97 89
Width: 667
Flags: W
HStem: -13 122<239.816 410.215> 0 21G<491 613> 445 122<242.021 407.204> 534 20G<491 613>
VStem: 28 134<187.087 358.882> 491 122<0 72 196.205 355.084 480 554>
AnchorPoint: "Top" 347 630 basechar 0
LayerCount: 2
Fore
SplineSet
613 554 m 1x1c
 613 554 613 0 613 0 c 1
 613 0 491 0 491 0 c 1x5c
 491 0 491 72 491 72 c 1
 438 11 385 -13 307 -13 c 0
 145 -13 28 108 28 275 c 0
 28 444 146 567 310 567 c 0xac
 390 567 445 541 491 480 c 1
 491 480 491 554 491 554 c 1
 491 554 613 554 613 554 c 1x1c
322 445 m 0xac
 229 445 162 372 162 272 c 0
 162 175 229 109 326 109 c 0
 422 109 487 176 487 275 c 0
 487 375 419 445 322 445 c 0xac
EndSplineSet
Validated: 1
EndChar

StartChar: b
Encoding: 98 98 90
Width: 666
Flags: W
HStem: -13 122<259.36 425.678> 0 21G<54 176> 452 122<257.022 423.644> 719 20G<54 187>
VStem: 54 133<503 739> 54 122<0 71 195.703 363.879> 504 134<187.637 369.202>
AnchorPoint: "Top" 328 805 basechar 0
LayerCount: 2
Fore
SplineSet
54 0 m 1x76
 54 0 54 739 54 739 c 1
 54 739 187 739 187 739 c 1
 187 739 187 503 187 503 c 1
 239 554 286 574 359 574 c 0
 519 574 638 449 638 281 c 0
 638 207 615 138 573 84 c 0
 522 19 454 -13 368 -13 c 0xba
 286 -13 233 10 176 71 c 1
 176 71 176 0 176 0 c 1
 176 0 54 0 54 0 c 1x76
338 452 m 0
 245 452 179 380 179 279 c 0
 179 180 247 109 343 109 c 0
 438 109 504 178 504 279 c 0
 504 381 436 452 338 452 c 0
EndSplineSet
Validated: 1
EndChar

StartChar: c
Encoding: 99 99 91
Width: 625
Flags: W
HStem: -13 122<242.136 399.571> 445 122<238.95 400.097>
VStem: 28 134<191.351 365.724>
AnchorPoint: "Top" 320 630 basechar 0
LayerCount: 2
Fore
SplineSet
449 182 m 1
 449 182 599 182 599 182 c 1
 553 58 454 -13 324 -13 c 0
 160 -13 28 116 28 277 c 0
 28 440 156 567 320 567 c 0
 399 567 474 538 528 485 c 0
 563 451 580 423 599 369 c 1
 599 369 449 369 449 369 c 1
 422 421 380 445 320 445 c 0
 227 445 162 376 162 278 c 0
 162 181 231 109 323 109 c 0
 378 109 416 131 449 182 c 1
EndSplineSet
Validated: 1
EndChar

StartChar: d
Encoding: 100 100 92
Width: 665
Flags: W
HStem: -13 122<248.471 404.798> 0 21G<489 611> 452 122<243.412 406.219> 719 20G<478 611>
VStem: 28 134<196.031 367.258> 478 133<505 739> 489 122<0 72 197.475 363.436>
AnchorPoint: "Top" 324 805 basechar 0
LayerCount: 2
Fore
SplineSet
611 739 m 1xbc
 611 739 611 0 611 0 c 1
 611 0 489 0 489 0 c 1
 489 0 489 72 489 72 c 1x7a
 435 12 381 -13 306 -13 c 0
 149 -13 28 113 28 278 c 0
 28 444 150 574 305 574 c 0
 375 574 439 548 478 505 c 1
 478 505 478 739 478 739 c 1
 478 739 611 739 611 739 c 1xbc
322 452 m 0
 232 452 162 378 162 282 c 0
 162 185 235 109 327 109 c 0xb8
 417 109 488 184 488 279 c 0
 488 379 418 452 322 452 c 0
EndSplineSet
Validated: 1
EndChar

StartChar: e
Encoding: 101 101 93
Width: 634
Flags: W
HStem: -13 122<237.682 408.665> 218 117<172 475> 445 122<232.931 410.229>
AnchorPoint: "Top" 324 630 basechar 0
LayerCount: 2
Fore
SplineSet
601 218 m 1
 601 218 172 218 172 218 c 1
 188 151 246 109 325 109 c 0
 380 109 413 124 447 164 c 1
 447 164 592 164 592 164 c 1
 583 136 569 113 548 87 c 0
 490 19 419 -13 328 -13 c 0
 159 -13 28 113 28 275 c 0
 28 438 157 567 320 567 c 0
 485 567 606 441 606 269 c 0
 606 249 605 237 601 218 c 1
168 335 m 1
 168 335 475 335 475 335 c 1
 458 406 404 445 322 445 c 0
 243 445 189 407 168 335 c 1
EndSplineSet
Validated: 1
EndChar

StartChar: f
Encoding: 102 102 94
Width: 294
Flags: W
HStem: 0 21G<68 201> 433 111<20 68 201 276> 611 128<213.299 284>
VStem: 68 133<0 433 544 600.722>
AnchorPoint: "Top" 171 805 basechar 0
LayerCount: 2
Fore
SplineSet
68 0 m 1
 68 0 68 433 68 433 c 1
 68 433 20 433 20 433 c 1
 20 433 20 544 20 544 c 1
 20 544 68 544 68 544 c 1
 75 616 86 648 115 680 c 0
 149 719 195 739 251 739 c 0
 260 739 268 739 284 737 c 1
 284 737 284 611 284 611 c 1
 284 611 270 611 270 611 c 2
 219 611 202 594 201 544 c 1
 201 544 276 544 276 544 c 1
 276 544 276 433 276 433 c 1
 276 433 201 433 201 433 c 1
 201 433 201 0 201 0 c 1
 201 0 68 0 68 0 c 1
EndSplineSet
Validated: 1
EndChar

StartChar: g
Encoding: 103 103 95
Width: 663
Flags: W
HStem: -221 117<232.384 411.504> -13 122<234.665 402.006> 445 122<236.307 399.026> 534 20G<482 609>
VStem: 28 134<184.075 367.523> 482 127<-28.2166 73 196.46 352.98 484 554>
AnchorPoint: "Top" 347 630 basechar 0
LayerCount: 2
Fore
SplineSet
482 554 m 1xdc
 482 554 609 554 609 554 c 1xdc
 609 554 609 105 609 105 c 2
 609 -5 591 -73 548 -125 c 0
 496 -188 419 -221 322 -221 c 0
 186 -221 82 -156 37 -45 c 1
 37 -45 188 -45 188 -45 c 1
 227 -88 265 -104 327 -104 c 0
 426 -104 477 -46 482 73 c 1
 430 12 378 -13 300 -13 c 0
 142 -13 28 110 28 281 c 0
 28 445 144 567 301 567 c 0xec
 381 567 440 540 482 484 c 1
 482 484 482 554 482 554 c 1xdc
314 445 m 0xec
 223 445 162 377 162 275 c 0
 162 174 223 109 318 109 c 0
 414 109 476 175 476 277 c 0
 476 377 411 445 314 445 c 0xec
EndSplineSet
Validated: 1
EndChar

StartChar: h
Encoding: 104 104 96
Width: 597
Flags: W
HStem: 0 21G<54 187 412 545> 445 123<233.926 372.165> 719 20G<54 187>
VStem: 54 133<0 395.726 516 739> 412 133<0 402.851>
AnchorPoint: "Top" 294 805 basechar 0
LayerCount: 2
Fore
SplineSet
54 0 m 1
 54 0 54 739 54 739 c 1
 54 739 187 739 187 739 c 1
 187 739 187 516 187 516 c 1
 227 552 270 568 328 568 c 0
 409 568 475 535 511 476 c 0
 536 435 545 391 545 313 c 2
 545 313 545 0 545 0 c 1
 545 0 412 0 412 0 c 1
 412 0 412 283 412 283 c 2
 412 400 382 445 304 445 c 0
 258 445 224 426 205 389 c 0
 192 365 187 334 187 281 c 2
 187 281 187 0 187 0 c 1
 187 0 54 0 54 0 c 1
EndSplineSet
Validated: 1
EndChar

StartChar: i
Encoding: 105 105 97
Width: 241
Flags: W
HStem: 0 21G<54 187> 534 20G<54 187> 614 125<54 187>
VStem: 54 133<0 554 614 739>
AnchorPoint: "Top" 120 805 basechar 0
LayerCount: 2
Fore
SplineSet
54 0 m 1
 54 0 54 554 54 554 c 1
 54 554 187 554 187 554 c 1
 187 554 187 0 187 0 c 1
 187 0 54 0 54 0 c 1
54 614 m 1
 54 614 54 739 54 739 c 1
 54 739 187 739 187 739 c 1
 187 739 187 614 187 614 c 1
 187 614 54 614 54 614 c 1
EndSplineSet
Validated: 1
Substitution2: "Dotless forms-1" i.dotless
EndChar

StartChar: j
Encoding: 106 106 98
Width: 255
Flags: W
HStem: -185 21G<13 38.5> 534 20G<68 201> 614 125<68 201>
VStem: 68 133<-44.5098 554 614 739>
AnchorPoint: "Top" 134 805 basechar 0
LayerCount: 2
Fore
SplineSet
68 554 m 1
 68 554 201 554 201 554 c 1
 201 554 201 37 201 37 c 2
 201 -46 183 -99 142 -137 c 0
 109 -168 64 -185 13 -185 c 1
 13 -185 13 -56 13 -56 c 1
 63 -47 68 -38 68 40 c 2
 68 40 68 554 68 554 c 1
68 614 m 1
 68 614 68 739 68 739 c 1
 68 739 201 739 201 739 c 1
 201 739 201 614 201 614 c 1
 201 614 68 614 68 614 c 1
EndSplineSet
Validated: 1
Substitution2: "Dotless forms-1" j.dotless
EndChar

StartChar: k
Encoding: 107 107 99
Width: 557
Flags: W
HStem: 0 21G<54 187 376 555> 534 20G<364 523> 719 20G<54 187>
VStem: 54 133<0 259 293 739>
AnchorPoint: "Top" 270 805 basechar 0
LayerCount: 2
Fore
SplineSet
54 0 m 1
 54 0 54 739 54 739 c 1
 54 739 187 739 187 739 c 1
 187 739 187 293 187 293 c 1
 187 293 364 554 364 554 c 1
 364 554 523 554 523 554 c 1
 523 554 325 283 325 283 c 1
 325 283 555 0 555 0 c 1
 555 0 376 0 376 0 c 1
 376 0 187 259 187 259 c 1
 187 259 187 0 187 0 c 1
 187 0 54 0 54 0 c 1
EndSplineSet
Validated: 1
EndChar

StartChar: l
Encoding: 108 108 100
Width: 241
Flags: W
HStem: 0 21G<54 187> 719 20G<54 187>
VStem: 54 133<0 739>
AnchorPoint: "Top" 120 805 basechar 0
LayerCount: 2
Fore
SplineSet
54 0 m 1
 54 0 54 739 54 739 c 1
 54 739 187 739 187 739 c 1
 187 739 187 0 187 0 c 1
 187 0 54 0 54 0 c 1
EndSplineSet
Validated: 1
EndChar

StartChar: m
Encoding: 109 109 101
Width: 937
Flags: MW
HStem: 0 21G<54 187 403 536 752 885> 445 122<227.706 364.552 581.292 714.209> 534 20G<54 176>
VStem: 54 133<0 401.951> 403 133<0 397.143> 752 133<0 404.689>
CounterMasks: 1 1c
AnchorPoint: "Top" 469 630 basechar 0
LayerCount: 2
Fore
SplineSet
54 0 m 1xdc
 54 0 54 554 54 554 c 1
 54 554 176 554 176 554 c 1xbc
 176 554 176 502 176 502 c 1
 215 549 255 567 320 567 c 0
 397 567 445 542 483 481 c 1
 528 541 582 567 660 567 c 0
 747 567 817 533 852 474 c 0
 873 437 885 384 885 320 c 2
 885 320 885 0 885 0 c 1
 885 0 752 0 752 0 c 1
 752 0 752 304 752 304 c 2
 752 361 744 392 725 413 c 0
 707 434 680 445 648 445 c 0
 605 445 571 425 553 389 c 0
 541 364 536 333 536 273 c 2
 536 273 536 0 536 0 c 1
 536 0 403 0 403 0 c 1
 403 0 403 304 403 304 c 2
 403 358 395 391 378 412 c 0
 360 433 330 445 296 445 c 0
 249 445 216 424 200 385 c 0
 191 363 187 326 187 273 c 2
 187 273 187 0 187 0 c 1
 187 0 54 0 54 0 c 1xdc
EndSplineSet
Validated: 1
EndChar

StartChar: n
Encoding: 110 110 102
Width: 598
Flags: W
HStem: 0 21G<54 187 413 546> 445 122<237.176 373.107> 534 20G<54 177>
VStem: 54 133<0 392.629> 54 123<501 554> 413 133<0 401.074>
AnchorPoint: "Top" 300 630 basechar 0
LayerCount: 2
Fore
SplineSet
54 0 m 1xd4
 54 0 54 554 54 554 c 1
 54 554 177 554 177 554 c 1
 177 554 177 501 177 501 c 1xac
 226 549 269 567 333 567 c 0
 412 567 474 537 510 482 c 0
 537 439 546 393 546 297 c 2
 546 297 546 0 546 0 c 1
 546 0 413 0 413 0 c 1
 413 0 413 271 413 271 c 2
 413 347 405 388 385 412 c 0
 367 434 341 445 307 445 c 0
 263 445 228 426 208 391 c 0
 192 365 187 333 187 261 c 2
 187 261 187 0 187 0 c 1
 187 0 54 0 54 0 c 1xd4
EndSplineSet
Validated: 1
EndChar

StartChar: o
Encoding: 111 111 103
Width: 645
Flags: W
HStem: -13 122<247.573 397.565> 445 122<244.121 398.007>
VStem: 28 134<195.19 358.197> 483 134<195.038 358.136>
AnchorPoint: "Top" 322 630 basechar 0
LayerCount: 2
Fore
SplineSet
325 567 m 0
 486 567 617 436 617 276 c 0
 617 117 485 -13 323 -13 c 0
 160 -13 28 117 28 276 c 0
 28 438 159 567 325 567 c 0
320 445 m 0
 234 445 162 369 162 277 c 0
 162 184 234 109 322 109 c 0
 411 109 483 184 483 276 c 0
 483 371 411 445 320 445 c 0
EndSplineSet
Validated: 1
EndChar

StartChar: p
Encoding: 112 112 104
Width: 662
Flags: W
HStem: -185 21G<54 187> -13 122<260.228 421.581> 445 122<257.89 418.223> 534 20G<54 176>
VStem: 54 133<-185 52> 54 122<198.406 357.411 489 554> 500 134<190.878 361.2>
AnchorPoint: "Top" 328 630 basechar 0
LayerCount: 2
Fore
SplineSet
54 -185 m 1xea
 54 -185 54 554 54 554 c 1
 54 554 176 554 176 554 c 1
 176 554 176 489 176 489 c 1xd6
 219 540 283 567 358 567 c 0
 518 567 634 446 634 279 c 0
 634 111 517 -13 357 -13 c 0
 289 -13 238 7 187 52 c 1
 187 52 187 -185 187 -185 c 1
 187 -185 54 -185 54 -185 c 1xea
338 445 m 0xe2
 248 445 179 372 179 275 c 0
 179 181 250 109 342 109 c 0
 431 109 500 182 500 276 c 0
 500 373 432 445 338 445 c 0xe2
EndSplineSet
Validated: 1
EndChar

StartChar: q
Encoding: 113 113 105
Width: 663
Flags: W
HStem: -185 21G<476 609> -13 122<243.226 406.114> 445 122<244.203 405.203> 534 20G<487 609>
VStem: 28 134<190.991 359.695> 476 133<-185 53> 487 122<193.96 358.297 483 554>
AnchorPoint: "Top" 347 630 basechar 0
LayerCount: 2
Fore
SplineSet
487 554 m 1xda
 487 554 609 554 609 554 c 1xda
 609 554 609 -185 609 -185 c 5
 609 -185 476 -185 476 -185 c 5
 476 -185 476 53 476 53 c 1
 432 9 377 -13 309 -13 c 0
 150 -13 28 114 28 279 c 0
 28 440 151 567 307 567 c 0xec
 388 567 443 541 487 483 c 1
 487 483 487 554 487 554 c 1xda
322 445 m 0xe8
 232 445 162 371 162 276 c 0
 162 180 231 109 325 109 c 0
 416 109 484 179 484 275 c 0
 484 374 417 445 322 445 c 0xe8
EndSplineSet
Validated: 1
EndChar

StartChar: r
Encoding: 114 114 106
Width: 330
Flags: W
HStem: 0 21G<54 187> 439 128<231.252 306> 534 20G<54 176>
VStem: 54 133<0 394.035> 54 122<500 554>
AnchorPoint: "Top" 175 630 basechar 0
LayerCount: 2
Fore
SplineSet
54 0 m 1xd0
 54 0 54 554 54 554 c 1
 54 554 176 554 176 554 c 1
 176 554 176 500 176 500 c 1xa8
 211 552 239 567 296 567 c 2
 296 567 306 567 306 567 c 1
 306 567 306 439 306 439 c 1
 226 437 187 394 187 308 c 2
 187 308 187 0 187 0 c 1
 187 0 54 0 54 0 c 1xd0
EndSplineSet
Validated: 1
EndChar

StartChar: s
Encoding: 115 115 107
Width: 438
Flags: W
HStem: -13 122<170.738 269.83> 445 122<176.266 261.737>
VStem: 35 133<364.606 436.652> 283 133<122.319 202.866>
AnchorPoint: "Top" 220 630 basechar 0
LayerCount: 2
Fore
SplineSet
15 176 m 1
 15 176 149 176 149 176 c 1
 162 129 184 109 223 109 c 0
 258 109 283 132 283 163 c 0
 283 181 274 196 258 206 c 0
 244 215 239 217 189 234 c 0
 78 271 35 317 35 398 c 0
 35 493 115 567 219 567 c 0
 276 567 330 543 365 502 c 0
 389 473 399 446 401 401 c 1
 401 401 271 401 271 401 c 1
 265 430 247 445 219 445 c 0
 190 445 168 425 168 398 c 0
 168 382 177 369 194 361 c 0
 208 355 208 355 262 338 c 0
 374 304 416 260 416 176 c 0
 416 70 329 -13 218 -13 c 0
 149 -13 85 18 50 67 c 0
 29 97 20 124 15 176 c 1
EndSplineSet
Validated: 1
EndChar

StartChar: t
Encoding: 116 116 108
Width: 303
Flags: W
HStem: 0 21G<78 211> 433 121<13 78 211 291> 719 20G<78 211>
VStem: 78 133<0 433 554 739>
AnchorPoint: "Top" 144 805 basechar 0
LayerCount: 2
Fore
SplineSet
78 0 m 1
 78 0 78 433 78 433 c 1
 78 433 13 433 13 433 c 1
 13 433 13 554 13 554 c 1
 13 554 78 554 78 554 c 1
 78 554 78 739 78 739 c 1
 78 739 211 739 211 739 c 1
 211 739 211 554 211 554 c 1
 211 554 291 554 291 554 c 1
 291 554 291 433 291 433 c 1
 291 433 211 433 211 433 c 1
 211 433 211 0 211 0 c 1
 211 0 78 0 78 0 c 1
EndSplineSet
Validated: 1
EndChar

StartChar: u
Encoding: 117 117 109
Width: 599
Flags: W
HStem: -13 122<224.936 362.537> 0 21G<422 545> 534 20G<52 185 412 545>
VStem: 52 133<150.962 554> 412 133<157.318 554> 422 123<0 53>
AnchorPoint: "Top" 298 630 basechar 0
LayerCount: 2
Fore
SplineSet
545 554 m 1xb8
 545 554 545 0 545 0 c 1
 545 0 422 0 422 0 c 1
 422 0 422 53 422 53 c 1x74
 371 4 330 -13 263 -13 c 0
 188 -13 127 18 91 74 c 0
 62 119 52 166 52 257 c 2
 52 257 52 554 52 554 c 1
 52 554 185 554 185 554 c 1
 185 554 185 283 185 283 c 2
 185 206 193 167 213 142 c 0
 232 120 256 109 290 109 c 0
 336 109 374 128 393 162 c 0
 407 187 412 222 412 293 c 2
 412 293 412 554 412 554 c 1
 412 554 545 554 545 554 c 1xb8
EndSplineSet
Validated: 1
EndChar

StartChar: v
Encoding: 118 118 110
Width: 558
Flags: W
HStem: 0 21G<226 332> 534 20G<3 151 405 555>
AnchorPoint: "Top" 279 630 basechar 0
LayerCount: 2
Fore
SplineSet
226 0 m 1
 226 0 3 554 3 554 c 1
 3 554 151 554 151 554 c 1
 151 554 279 187 279 187 c 1
 279 187 405 554 405 554 c 1
 405 554 555 554 555 554 c 1
 555 554 332 0 332 0 c 1
 332 0 226 0 226 0 c 1
EndSplineSet
Validated: 1
EndChar

StartChar: w
Encoding: 119 119 111
Width: 781
Flags: W
HStem: 0 21G<201 283 495 578> 534 20G<3 146 338 444 636 778>
AnchorPoint: "Top" 390 630 basechar 0
LayerCount: 2
Fore
SplineSet
201 0 m 1
 201 0 3 554 3 554 c 1
 3 554 146 554 146 554 c 1
 146 554 245 216 245 216 c 1
 245 216 338 554 338 554 c 1
 338 554 444 554 444 554 c 1
 444 554 535 216 535 216 c 1
 535 216 636 554 636 554 c 1
 636 554 778 554 778 554 c 1
 778 554 578 0 578 0 c 1
 578 0 495 0 495 0 c 1
 495 0 390 359 390 359 c 1
 390 359 283 0 283 0 c 1
 283 0 201 0 201 0 c 1
EndSplineSet
Validated: 1
EndChar

StartChar: x
Encoding: 120 120 112
Width: 558
Flags: W
HStem: 0 21G<3 163 395 555> 534 20G<29 179 377 527>
AnchorPoint: "Top" 279 630 basechar 0
LayerCount: 2
Fore
SplineSet
3 0 m 5
 3 0 199 286 199 286 c 5
 199 286 29 554 29 554 c 5
 29 554 179 554 179 554 c 5
 179 554 279 387 279 387 c 5
 279 387 377 554 377 554 c 5
 377 554 527 554 527 554 c 5
 527 554 358 286 358 286 c 5
 358 286 555 0 555 0 c 5
 555 0 395 0 395 0 c 5
 395 0 279 190 279 190 c 5
 279 190 163 0 163 0 c 5
 163 0 3 0 3 0 c 5
EndSplineSet
Validated: 1
EndChar

StartChar: y
Encoding: 121 121 113
Width: 568
Flags: W
HStem: -185 21G<102 245> 534 20G<3 155 412 565>
AnchorPoint: "Top" 284 630 basechar 0
LayerCount: 2
Fore
SplineSet
102 -185 m 1
 102 -185 206 52 206 52 c 1
 206 52 3 554 3 554 c 1
 3 554 155 554 155 554 c 1
 155 554 278 195 278 195 c 1
 278 195 412 554 412 554 c 1
 412 554 565 554 565 554 c 1
 565 554 245 -185 245 -185 c 1
 245 -185 102 -185 102 -185 c 1
EndSplineSet
Validated: 1
EndChar

StartChar: z
Encoding: 122 122 114
Width: 482
Flags: W
HStem: 0 119<189 452> 435 119<58 274>
AnchorPoint: "Top" 241 630 basechar 0
LayerCount: 2
Fore
SplineSet
30 0 m 1
 30 0 30 119 30 119 c 1
 30 119 274 435 274 435 c 1
 274 435 58 435 58 435 c 1
 58 435 58 554 58 554 c 1
 58 554 433 554 433 554 c 1
 433 554 433 435 433 435 c 1
 433 435 189 119 189 119 c 1
 189 119 452 119 452 119 c 1
 452 119 452 0 452 0 c 1
 452 0 30 0 30 0 c 1
EndSplineSet
Validated: 1
EndChar

StartChar: ae
Encoding: 230 230 115
Width: 1077
Flags: W
HStem: -13 122<242.16 401.874 683.479 848.066> 0 21G<483 605> 219 118<612 909> 445 122<241.494 399.612 671.117 848.029> 534 20G<483 605>
VStem: 28 134<193.153 362.565> 483 122<0 60 499 554>
AnchorPoint: "Top" 544 630 basechar 0
LayerCount: 2
Fore
SplineSet
885 164 m 1xb6
 885 164 1030 164 1030 164 c 1
 997 63 888 -13 774 -13 c 0xb6
 700 -13 649 9 605 60 c 1
 605 60 605 0 605 0 c 1
 605 0 483 0 483 0 c 1x66
 483 0 483 60 483 60 c 1
 438 6 394 -13 318 -13 c 0
 152 -13 28 110 28 275 c 0
 28 440 153 567 316 567 c 0xb6
 388 567 437 547 483 499 c 1
 483 499 483 554 483 554 c 1
 483 554 605 554 605 554 c 1x2e
 605 554 605 499 605 499 c 1
 652 547 701 567 772 567 c 0
 927 567 1049 445 1049 288 c 0
 1049 265 1047 249 1040 219 c 1
 1040 219 612 219 612 219 c 1
 635 150 693 109 768 109 c 0
 818 109 853 125 885 164 c 1xb6
319 445 m 0
 231 445 162 372 162 278 c 0
 162 181 230 109 322 109 c 0
 412 109 479 181 479 276 c 0
 479 373 411 445 319 445 c 0
605 337 m 1
 605 337 909 337 909 337 c 1
 890 409 840 445 759 445 c 0
 682 445 631 410 605 337 c 1
EndSplineSet
Validated: 1
EndChar

StartChar: oe
Encoding: 339 339 116
Width: 1074
Flags: W
HStem: -13 122<245.12 405.311 682.315 846.9> 218 117<612 908> 445 122<242.969 403.239 672.115 845.429>
VStem: 28 134<194.12 359.254> 484 562<220.312 333.078>
AnchorPoint: "Top" 537 630 basechar 0
LayerCount: 2
Fore
SplineSet
886 163 m 1
 886 163 1028 163 1028 163 c 1
 989 56 886 -13 766 -13 c 0
 672 -13 592 27 541 100 c 1
 487 23 418 -13 322 -13 c 0
 154 -13 28 111 28 277 c 0
 28 439 156 567 318 567 c 0
 380 567 441 548 485 513 c 0
 504 499 517 485 541 456 c 1
 605 534 670 567 760 567 c 0
 820 567 880 549 928 517 c 0
 1006 465 1046 386 1046 284 c 0
 1046 261 1045 245 1041 218 c 1
 1041 218 612 218 612 218 c 1
 634 151 692 109 765 109 c 0
 812 109 860 131 886 163 c 1
320 445 m 0
 232 445 162 371 162 278 c 0
 162 182 233 109 327 109 c 0
 416 109 484 181 484 276 c 0
 484 373 415 445 320 445 c 0
606 335 m 1
 606 335 908 335 908 335 c 1
 887 408 837 445 758 445 c 0
 682 445 631 408 606 335 c 1
EndSplineSet
Validated: 1
EndChar

StartChar: oslash
Encoding: 248 248 117
Width: 646
Flags: W
HStem: -13 122<269.789 398.565> 445 122<248.036 359.806>
VStem: 28 134<195.562 358.678> 484 134<195.322 360.217>
AnchorPoint: "Top" 323 630 basechar 0
LayerCount: 2
Fore
SplineSet
57 -10 m 1
 57 -10 114 74 114 74 c 1
 59 127 28 200 28 277 c 0
 28 437 160 567 324 567 c 0
 363 567 397 560 433 546 c 1
 433 546 485 623 485 623 c 1
 485 623 571 565 571 565 c 1
 571 565 521 492 521 492 c 1
 585 433 618 360 618 277 c 0
 618 117 486 -13 324 -13 c 0
 280 -13 239 -4 198 15 c 1
 198 15 142 -67 142 -67 c 1
 142 -67 57 -10 57 -10 c 1
189 185 m 1
 189 185 361 440 361 440 c 1
 346 444 337 445 323 445 c 0
 234 445 162 370 162 278 c 0
 162 245 171 215 189 185 c 1
448 383 m 1
 448 383 269 119 269 119 c 1
 288 112 304 109 323 109 c 0
 412 109 484 184 484 276 c 0
 484 316 472 351 448 383 c 1
EndSplineSet
Validated: 1
EndChar

StartChar: germandbls
Encoding: 223 223 118
Width: 616
Flags: W
HStem: -13 122<304.837 420.296> 0 21G<54 176> 315 118<258 324.317> 630 122<218.568 331.183>
VStem: 54 133<189 596.629> 54 122<0 79> 359 134<467.578 600.69> 453 134<143.239 269.76>
AnchorPoint: "Top" 277 805 basechar 0
LayerCount: 2
Fore
SplineSet
54 0 m 1x75
 54 0 54 487 54 487 c 2
 54 553 64 600 86 643 c 0
 122 711 193 752 275 752 c 0
 399 752 493 663 493 546 c 0x7a
 493 480 470 437 418 408 c 1
 466 397 489 387 518 364 c 0
 564 327 587 278 587 216 c 0
 587 82 490 -13 353 -13 c 0xb1
 271 -13 213 17 176 79 c 1
 176 79 176 0 176 0 c 1
 176 0 54 0 54 0 c 1x75
187 189 m 1
 187 189 269 189 269 189 c 1
 278 143 317 109 363 109 c 0
 414 109 453 150 453 205 c 0xb9
 453 246 432 281 396 298 c 0
 366 312 341 315 269 315 c 2
 269 315 258 315 258 315 c 1
 258 315 258 433 258 433 c 1
 258 433 269 433 269 433 c 2
 321 433 359 477 359 536 c 0
 359 593 326 630 274 630 c 0
 216 630 187 588 187 503 c 2
 187 503 187 189 187 189 c 1
EndSplineSet
Validated: 1
EndChar

StartChar: dotlessi
Encoding: 305 305 119
Width: 241
Flags: W
HStem: 0 21G<54 187> 534 20G<54 187>
VStem: 54 133<0 554>
AnchorPoint: "Top" 120 630 basechar 0
LayerCount: 2
Fore
SplineSet
54 0 m 1
 54 0 54 554 54 554 c 1
 54 554 187 554 187 554 c 1
 187 554 187 0 187 0 c 1
 187 0 54 0 54 0 c 1
EndSplineSet
Validated: 1
EndChar

StartChar: f_i
Encoding: 64257 64257 120
Width: 527
Flags: W
HStem: 0 21G<68 201 340 473> 433 111<20 68 201 276> 534 20G<340 473> 611 128<213.299 284 340 473>
VStem: 68 133<0 433 544 600.722> 340 133<0 554 614 739>
LayerCount: 2
Fore
SplineSet
68 0 m 1xdc
 68 0 68 433 68 433 c 1
 68 433 20 433 20 433 c 1
 20 433 20 544 20 544 c 1
 20 544 68 544 68 544 c 1
 75 616 86 648 115 680 c 0
 149 719 195 739 251 739 c 0
 260 739 268 739 284 737 c 1
 284 737 284 611 284 611 c 1
 284 611 270 611 270 611 c 2
 219 611 202 594 201 544 c 1
 201 544 276 544 276 544 c 1
 276 544 276 433 276 433 c 1
 276 433 201 433 201 433 c 1
 201 433 201 0 201 0 c 1
 201 0 68 0 68 0 c 1xdc
340 0 m 1
 340 0 340 554 340 554 c 1
 340 554 473 554 473 554 c 1xbc
 473 554 473 0 473 0 c 1
 473 0 340 0 340 0 c 1
340 614 m 1
 340 614 340 739 340 739 c 1
 340 739 473 739 473 739 c 1
 473 739 473 614 473 614 c 1
 473 614 340 614 340 614 c 1
EndSplineSet
Validated: 1
Ligature2: "'liga' Standard Ligatures lookup 0-1" f i
EndChar

StartChar: f_l
Encoding: 64258 64258 121
Width: 527
Flags: W
HStem: 0 21G<68 201 340 473> 433 111<20 68 201 276> 611 128<213.299 284>
VStem: 68 133<0 433 544 600.722> 340 133<0 739>
LayerCount: 2
Fore
SplineSet
340 0 m 1
 340 0 340 739 340 739 c 1
 340 739 473 739 473 739 c 1
 473 739 473 0 473 0 c 1
 473 0 340 0 340 0 c 1
68 0 m 1
 68 0 68 433 68 433 c 1
 68 433 20 433 20 433 c 1
 20 433 20 544 20 544 c 1
 20 544 68 544 68 544 c 1
 75 616 86 648 115 680 c 0
 149 719 195 739 251 739 c 0
 260 739 268 739 284 737 c 1
 284 737 284 611 284 611 c 1
 284 611 270 611 270 611 c 2
 219 611 202 594 201 544 c 1
 201 544 276 544 276 544 c 1
 276 544 276 433 276 433 c 1
 276 433 201 433 201 433 c 1
 201 433 201 0 201 0 c 1
 201 0 68 0 68 0 c 1
EndSplineSet
Validated: 1
Ligature2: "'liga' Standard Ligatures lookup 0-1" f l
EndChar

StartChar: ccedilla
Encoding: 231 231 122
Width: 625
Flags: W
HStem: -251 55<287.574 354.614> -109 58<298.397 353.886> -13 122<317 395.951> 445 122<238.95 400.097>
VStem: 28 134<193.081 365.724> 359 58<-192.378 -113.113>
AnchorPoint: "Top" 320 630 basechar 0
LayerCount: 2
Fore
SplineSet
317 -13 m 1
 317 -13 298 -58 298 -58 c 1
 311 -52 318 -51 329 -51 c 0
 379 -51 417 -94 417 -151 c 0
 417 -212 380 -251 322 -251 c 0
 271 -251 230 -216 223 -166 c 1
 223 -166 283 -166 283 -166 c 1
 291 -186 303 -196 321 -196 c 0
 343 -196 359 -178 359 -153 c 0
 359 -127 343 -109 321 -109 c 0
 307 -109 296 -115 283 -133 c 1
 283 -133 231 -107 231 -107 c 1
 231 -107 273 -9 273 -9 c 1
 130 16 28 135 28 277 c 0
 28 440 156 567 320 567 c 0
 399 567 474 538 528 485 c 0
 563 451 580 423 599 369 c 1
 599 369 449 369 449 369 c 1
 422 421 380 445 320 445 c 0
 227 445 162 376 162 278 c 0
 162 181 231 109 323 109 c 0
 378 109 416 131 449 182 c 1
 449 182 599 182 599 182 c 1
 556 58 454 -13 317 -13 c 1
EndSplineSet
Validated: 1
EndChar

StartChar: lslash
Encoding: 322 322 123
Width: 343
Flags: W
HStem: 0 21G<109 242> 719 20G<109 242>
VStem: 109 133<0 317 482 739>
AnchorPoint: "Top" 175 805 basechar 0
LayerCount: 2
Fore
SplineSet
109 0 m 1
 109 0 109 317 109 317 c 1
 109 317 28 255 28 255 c 1
 28 255 28 354 28 354 c 1
 28 354 109 417 109 417 c 1
 109 417 109 739 109 739 c 1
 109 739 242 739 242 739 c 5
 242 739 242 482 242 482 c 1
 242 482 323 545 323 545 c 1
 323 545 323 446 323 446 c 1
 323 446 242 383 242 383 c 1
 242 383 242 0 242 0 c 1
 242 0 109 0 109 0 c 1
EndSplineSet
Validated: 1
EndChar

StartChar: eth
Encoding: 240 240 124
Width: 645
Flags: W
HStem: -13 122<247.573 398.065> 445 111<244.192 361.377> 736 20G<270 273 422 422>
VStem: 28 134<195.934 359.294> 483 134<193.778 360.083>
AnchorPoint: "Top" 322 805 basechar 0
LayerCount: 2
Fore
SplineSet
167 721 m 1
 167 721 270 756 270 756 c 1
 276 752 281 749 286 745 c 2
 286 745 316 722 316 722 c 2
 323 719 329 714 335 709 c 1
 335 709 422 749 422 749 c 1
 422 749 463 700 463 700 c 1
 463 700 385 665 385 665 c 1
 457 603 481 579 514 538 c 0
 584 452 617 369 617 284 c 0
 617 117 488 -13 323 -13 c 0
 160 -13 28 118 28 278 c 0
 28 381 87 480 176 526 c 0
 209 543 261 556 295 556 c 0
 312 556 335 553 363 547 c 1
 353 556 344 566 335 575 c 0
 309 601 307 603 286 621 c 1
 286 621 199 581 199 581 c 1
 199 581 159 627 159 627 c 1
 159 627 237 664 237 664 c 1
 193 701 189 704 167 721 c 1
320 445 m 0
 234 445 162 369 162 277 c 0
 162 184 234 109 322 109 c 0
 411 109 483 184 483 276 c 0
 483 371 411 445 320 445 c 0
EndSplineSet
Validated: 1
EndChar

StartChar: thorn
Encoding: 254 254 125
Width: 662
Flags: W
HStem: -185 21G<54 187> -13 122<259.486 418.934> 445 122<259.031 418.48> 719 20G<54 187>
VStem: 54 133<-185 59 495 739> 54 125<191.948 361.608> 500 134<193.438 360.784>
AnchorPoint: "Top" 328 805 basechar 0
LayerCount: 2
Fore
SplineSet
54 739 m 1xfa
 54 739 187 739 187 739 c 1
 187 739 187 495 187 495 c 1
 230 543 289 567 359 567 c 0
 519 567 634 446 634 277 c 0
 634 108 519 -13 359 -13 c 0
 289 -13 230 11 187 59 c 1
 187 59 187 -185 187 -185 c 1
 187 -185 54 -185 54 -185 c 1
 54 -185 54 739 54 739 c 1xfa
338 445 m 0
 248 445 179 372 179 277 c 0xf6
 179 181 248 109 341 109 c 0
 431 109 500 182 500 277 c 0
 500 373 431 445 338 445 c 0
EndSplineSet
Validated: 1
EndChar

StartChar: one
Encoding: 49 49 126
Width: 560
Flags: W
HStem: 0 21G<238 371> 614 125<145 238>
VStem: 238 133<0 614>
AnchorPoint: "Top" 280 805 basechar 0
LayerCount: 2
Fore
SplineSet
238 0 m 1
 238 0 238 614 238 614 c 1
 238 614 145 614 145 614 c 1
 145 614 145 739 145 739 c 5
 145 739 371 739 371 739 c 1
 371 739 371 0 371 0 c 1
 371 0 238 0 238 0 c 1
EndSplineSet
Validated: 1
Substitution2: "'pnum' Proportional Numbers lookup 1-1" one.fitted
EndChar

StartChar: two
Encoding: 50 50 127
Width: 560
Flags: W
HStem: 0 125<228 519> 630 122<218.739 343.817>
VStem: 36 131<484 574.519> 389 133<440.99 584.629>
AnchorPoint: "Top" 280 805 basechar 0
LayerCount: 2
Fore
SplineSet
41 0 m 1
 41 0 41 117 41 117 c 1
 41 117 304 366 304 366 c 2
 365 423 389 466 389 514 c 0
 389 580 343 630 282 630 c 0
 213 630 167 572 167 484 c 1
 167 484 36 484 36 484 c 1
 36 558 48 604 78 649 c 0
 121 713 197 752 281 752 c 0
 419 752 522 649 522 512 c 0
 522 421 487 360 379 262 c 2
 379 262 228 125 228 125 c 1
 228 125 519 125 519 125 c 1
 519 125 519 0 519 0 c 1
 519 0 41 0 41 0 c 1
EndSplineSet
Validated: 1
Substitution2: "'pnum' Proportional Numbers lookup 1-1" two.fitted
EndChar

StartChar: three
Encoding: 51 51 128
Width: 560
Flags: W
HStem: -13 122<207.38 342.71> 356 128<225 313.751> 563 21G<77 215> 630 122<226.927 320.516>
VStem: 22 134<162.064 224> 339 133<508.216 613.708> 392 133<159.237 302.257>
AnchorPoint: "Top" 280 805 basechar 0
LayerCount: 2
Fore
SplineSet
225 356 m 1xfa
 225 356 225 484 225 484 c 1
 263 485 281 488 298 495 c 0
 325 507 339 529 339 560 c 0
 339 601 312 630 274 630 c 0
 237 630 218 609 212 563 c 1
 212 563 77 563 77 563 c 1
 82 625 95 658 128 692 c 0
 165 731 217 752 273 752 c 0
 387 752 472 667 472 553 c 0xfc
 472 496 453 457 410 426 c 1
 487 391 525 328 525 235 c 0
 525 92 420 -13 277 -13 c 0
 135 -13 30 85 22 224 c 1
 22 224 156 224 156 224 c 1
 165 154 211 109 276 109 c 0
 343 109 392 161 392 232 c 0
 392 307 336 356 247 356 c 2
 247 356 225 356 225 356 c 1xfa
EndSplineSet
Validated: 1
Substitution2: "'pnum' Proportional Numbers lookup 1-1" three.fitted
EndChar

StartChar: four
Encoding: 52 52 129
Width: 560
Flags: W
HStem: 0 21G<329 462> 111 119<145 329 462 540> 719 20G<350 462>
VStem: 329 133<0 111 230 515>
AnchorPoint: "Top" 280 805 basechar 0
LayerCount: 2
Fore
SplineSet
10 219 m 1
 10 219 350 739 350 739 c 1
 350 739 462 739 462 739 c 1
 462 739 462 230 462 230 c 1
 462 230 540 230 540 230 c 1
 540 230 540 111 540 111 c 1
 540 111 462 111 462 111 c 1
 462 111 462 0 462 0 c 1
 462 0 329 0 329 0 c 1
 329 0 329 111 329 111 c 1
 329 111 10 111 10 111 c 1
 10 111 10 219 10 219 c 1
329 230 m 1
 329 230 329 515 329 515 c 1
 329 515 145 230 145 230 c 1
 145 230 329 230 329 230 c 1
EndSplineSet
Validated: 1
Substitution2: "'pnum' Proportional Numbers lookup 1-1" four.fitted
EndChar

StartChar: five
Encoding: 53 53 130
Width: 560
Flags: W
HStem: -13 122<204.418 343.383> 377 122<207.239 344.053> 614 125<224 458>
VStem: 396 133<165.91 320.187>
AnchorPoint: "Top" 280 805 basechar 0
LayerCount: 2
Fore
SplineSet
55 353 m 1
 55 353 124 739 124 739 c 1
 124 739 458 739 458 739 c 1
 458 739 458 614 458 614 c 1
 458 614 224 614 224 614 c 1
 224 614 200 478 200 478 c 1
 238 494 261 499 295 499 c 0
 430 499 529 392 529 247 c 0
 529 98 422 -13 278 -13 c 0
 140 -13 28 88 21 221 c 1
 21 221 154 221 154 221 c 1
 168 149 210 109 274 109 c 0
 346 109 396 165 396 245 c 0
 396 320 345 377 276 377 c 0
 234 377 206 362 173 321 c 1
 173 321 55 353 55 353 c 1
EndSplineSet
Validated: 1
Substitution2: "'pnum' Proportional Numbers lookup 1-1" five.fitted
EndChar

StartChar: six
Encoding: 54 54 131
Width: 560
Flags: W
HStem: -13 122<210.423 350.702> 370 116<273.402 349.102> 719 20G<290 449>
VStem: 24 133<164.175 315.705> 403 133<162.571 314.798>
AnchorPoint: "Top" 280 805 basechar 0
LayerCount: 2
Fore
SplineSet
290 739 m 1
 290 739 449 739 449 739 c 1
 449 739 272 476 272 476 c 1
 295 484 308 486 332 486 c 0
 450 486 536 388 536 252 c 0
 536 97 431 -13 283 -13 c 0
 134 -13 24 95 24 242 c 0
 24 314 43 369 97 449 c 2
 97 449 290 739 290 739 c 1
277 370 m 0
 207 370 157 315 157 239 c 0
 157 163 209 109 284 109 c 0
 354 109 403 162 403 239 c 0
 403 316 352 370 277 370 c 0
EndSplineSet
Validated: 1
Substitution2: "'pnum' Proportional Numbers lookup 1-1" six.fitted
EndChar

StartChar: seven
Encoding: 55 55 132
Width: 560
Flags: W
HStem: 0 21G<80 230> 614 125<65 360>
AnchorPoint: "Top" 280 805 basechar 0
LayerCount: 2
Fore
SplineSet
80 0 m 1
 80 0 360 614 360 614 c 1
 360 614 65 614 65 614 c 1
 65 614 65 739 65 739 c 1
 65 739 500 739 500 739 c 1
 500 739 500 614 500 614 c 1
 500 614 230 0 230 0 c 1
 230 0 80 0 80 0 c 1
EndSplineSet
Validated: 1
Substitution2: "'pnum' Proportional Numbers lookup 1-1" seven.fitted
EndChar

StartChar: eight
Encoding: 56 56 133
Width: 560
Flags: W
HStem: -13 122<216.428 345.395> 341 128<230.381 331.356> 630 122<230.657 333.898>
VStem: 34 133<157.34 292.433> 79 127<493.787 605.631> 357 127<492.934 607.406> 393 133<156.188 293.333>
AnchorPoint: "Top" 280 805 basechar 0
LayerCount: 2
Fore
SplineSet
140 411 m 1xf2
 94 460 79 494 79 549 c 0
 79 662 169 752 282 752 c 0
 398 752 484 666 484 551 c 0xec
 484 489 465 445 422 411 c 1
 452 393 466 383 481 366 c 0
 510 333 526 285 526 232 c 0
 526 92 421 -13 281 -13 c 0
 141 -13 34 93 34 231 c 0
 34 279 49 327 76 360 c 0
 91 380 106 392 140 411 c 1xf2
281 630 m 0
 239 630 206 594 206 549 c 0
 206 504 240 469 282 469 c 0
 324 469 357 505 357 551 c 0
 357 596 324 630 281 630 c 0
279 341 m 0
 217 341 167 289 167 225 c 0
 167 160 217 109 282 109 c 0
 345 109 393 159 393 226 c 0xf2
 393 291 343 341 279 341 c 0
EndSplineSet
Validated: 1
Substitution2: "'pnum' Proportional Numbers lookup 1-1" eight.fitted
EndChar

StartChar: nine
Encoding: 57 57 134
Width: 560
Flags: W
HStem: 0 21G<110 269> 251 118<211.163 285.575> 630 122<208.945 348.455>
VStem: 25 133<424.47 577.463> 402 133<422.946 574.591>
AnchorPoint: "Top" 280 805 basechar 0
LayerCount: 2
Fore
SplineSet
269 0 m 1
 269 0 110 0 110 0 c 1
 110 0 288 263 288 263 c 1
 264 254 251 251 228 251 c 0
 112 251 25 353 25 487 c 0
 25 642 129 752 276 752 c 0
 425 752 535 643 535 496 c 0
 535 425 515 370 462 290 c 2
 462 290 269 0 269 0 c 1
274 630 m 0
 206 630 158 576 158 500 c 0
 158 423 209 369 281 369 c 0
 351 369 402 423 402 500 c 0
 402 577 350 630 274 630 c 0
EndSplineSet
Validated: 1
Substitution2: "'pnum' Proportional Numbers lookup 1-1" nine.fitted
EndChar

StartChar: zero
Encoding: 48 48 135
Width: 560
Flags: W
HStem: -13 122<211.303 352.546> 630 122<211.7 348.426>
VStem: 32 133<157.588 579.369> 394 133<155.714 583.495>
AnchorPoint: "Top" 280 805 basechar 0
LayerCount: 2
Fore
SplineSet
527 505 m 2
 527 505 527 247 527 247 c 2
 527 83 438 -13 286 -13 c 0
 196 -13 125 20 79 81 c 0
 46 126 32 176 32 247 c 2
 32 247 32 498 32 498 c 2
 32 654 128 752 280 752 c 0
 430 752 527 655 527 505 c 2
165 498 m 2
 165 498 165 251 165 251 c 2
 165 159 206 109 282 109 c 0
 357 109 394 155 394 248 c 2
 394 248 394 498 394 498 c 2
 394 583 353 630 281 630 c 0
 209 630 165 580 165 498 c 2
EndSplineSet
Validated: 1
Substitution2: "'pnum' Proportional Numbers lookup 1-1" zero.fitted
EndChar

StartChar: sterling
Encoding: 163 163 136
Width: 560
Flags: W
HStem: 0 125<41 190.399 320 394.223> 310 125<0 58 301 408> 630 122<219.133 339.278>
VStem: 41 133<441.252 581.972> 200 133<126.081 267.815> 430 133<159.244 272.93>
LayerCount: 2
Fore
SplineSet
41 0 m 1
 41 0 41 125 41 125 c 1
 41 125 180 125 180 125 c 1
 193 147 200 171 200 197 c 0
 200 239 184 270 142 310 c 1
 142 310 0 310 0 310 c 1
 0 310 0 435 0 435 c 1
 0 435 58 435 58 435 c 1
 46 462 41 485 41 516 c 0
 41 648 146 752 280 752 c 0
 408 752 503 666 514 541 c 1
 514 541 379 541 379 541 c 1
 365 598 329 630 281 630 c 0
 221 630 174 578 174 511 c 0
 174 481 182 457 201 435 c 1
 201 435 408 435 408 435 c 1
 408 435 408 310 408 310 c 1
 408 310 301 310 301 310 c 1
 325 264 333 236 333 200 c 0
 333 178 328 149 320 125 c 1
 350 125 368 129 384 138 c 0
 413 155 430 186 430 220 c 0
 430 237 428 249 420 274 c 1
 420 274 552 274 552 274 c 1
 560 253 563 240 563 222 c 0
 563 157 535 95 488 54 c 0
 441 14 393 0 301 0 c 2
 301 0 41 0 41 0 c 1
EndSplineSet
Validated: 1
EndChar

StartChar: dollar
Encoding: 36 36 137
Width: 560
Flags: W
HStem: -86 249<223.933 337.118> 613 243<237.574 330.166>
VStem: 91 133<494.913 599.759> 223 127<-86 51.7703 717.859 856> 364 133<190.552 301.235>
LayerCount: 2
Fore
SplineSet
62 249 m 1xd8
 62 249 196 249 196 249 c 1
 199 196 232 163 280 163 c 0
 328 163 364 198 364 246 c 0
 364 278 353 298 325 316 c 0
 307 328 307 328 220 361 c 0
 135 393 91 454 91 541 c 0xe8
 91 636 141 705 223 723 c 1
 223 723 223 856 223 856 c 1
 223 856 350 856 350 856 c 1
 350 856 350 723 350 723 c 1xd8
 418 710 471 636 474 551 c 1
 474 551 348 551 348 551 c 1
 340 591 317 613 283 613 c 0
 248 613 224 587 224 549 c 0xe8
 224 524 234 502 253 489 c 0
 269 476 286 468 338 449 c 0
 398 428 422 415 444 395 c 0
 478 364 497 313 497 251 c 0
 497 148 443 72 350 46 c 1
 350 46 350 -86 350 -86 c 1
 350 -86 223 -86 223 -86 c 1
 223 -86 223 46 223 46 c 1
 124 74 62 147 62 236 c 2
 62 236 62 249 62 249 c 1xd8
EndSplineSet
Validated: 1
EndChar

StartChar: cent
Encoding: 162 162 138
Width: 560
Flags: W
HStem: 39 231<223.582 347.287> 489 226<223.811 346.934>
VStem: 44 133<312.038 447.116> 223 125<39 153.086 605.285 715>
LayerCount: 2
Fore
SplineSet
348 39 m 1
 348 39 223 39 223 39 c 1
 223 39 223 148 223 148 c 1
 173 159 141 177 108 213 c 0
 67 256 44 318 44 381 c 0
 44 449 72 514 121 559 c 0
 151 586 177 599 223 611 c 1
 223 611 223 715 223 715 c 1
 223 715 348 715 348 715 c 1
 348 715 348 611 348 611 c 1
 434 590 498 525 516 443 c 1
 516 443 374 443 374 443 c 1
 354 471 318 489 281 489 c 0
 221 489 177 442 177 379 c 0
 177 316 223 270 285 270 c 0
 319 270 345 282 370 310 c 1
 370 310 516 310 516 310 c 1
 482 221 428 169 348 148 c 1
 348 148 348 39 348 39 c 1
EndSplineSet
Validated: 1
EndChar

StartChar: florin
Encoding: 402 402 139
Width: 560
Flags: W
HStem: -149 119<21.1116 126.177> 470 115<163 238 384 457> 703 120<425.542 494>
AnchorPoint: "Top" 402 890 basechar 0
LayerCount: 2
Fore
SplineSet
384 585 m 1
 384 585 476 585 476 585 c 1
 476 585 457 470 457 470 c 1
 457 470 364 470 364 470 c 1
 364 470 302 106 302 106 c 2
 282 -11 265 -53 223 -91 c 0
 180 -130 128 -149 62 -149 c 0
 38 -149 24 -147 3 -142 c 1
 3 -142 23 -26 23 -26 c 1
 37 -29 45 -30 56 -30 c 0
 97 -30 129 -15 146 14 c 0
 158 33 168 69 178 128 c 2
 178 128 238 470 238 470 c 1
 238 470 144 470 144 470 c 1
 144 470 163 585 163 585 c 1
 163 585 257 585 257 585 c 1
 257 585 262 611 262 611 c 2
 279 691 289 715 320 751 c 0
 360 797 419 823 485 823 c 0
 497 823 503 822 514 820 c 1
 514 820 494 703 494 703 c 1
 494 703 484 703 484 703 c 2
 445 703 415 683 400 647 c 0
 394 633 390 618 384 585 c 1
EndSplineSet
Validated: 1
EndChar

StartChar: yen
Encoding: 165 165 140
Width: 560
Flags: W
HStem: 0 21G<211 344> 187 88<15 211 344 541> 380 88<15 109 449 541> 719 20G<-32 117 438 592>
VStem: 211 133<0 187>
LayerCount: 2
Fore
SplineSet
211 0 m 1
 211 0 211 187 211 187 c 1
 211 187 15 187 15 187 c 1
 15 187 15 275 15 275 c 1
 15 275 211 275 211 275 c 1
 211 275 155 380 155 380 c 1
 155 380 15 380 15 380 c 1
 15 380 15 468 15 468 c 1
 15 468 109 468 109 468 c 1
 109 468 -32 739 -32 739 c 1
 -32 739 117 739 117 739 c 1
 117 739 277 398 277 398 c 1
 277 398 438 739 438 739 c 1
 438 739 592 739 592 739 c 1
 592 739 449 468 449 468 c 1
 449 468 541 468 541 468 c 1
 541 468 541 380 541 380 c 1
 541 380 401 380 401 380 c 1
 401 380 344 275 344 275 c 1
 344 275 541 275 541 275 c 1
 541 275 541 187 541 187 c 1
 541 187 344 187 344 187 c 1
 344 187 344 0 344 0 c 1
 344 0 211 0 211 0 c 1
EndSplineSet
Validated: 1
EndChar

StartChar: uni00B9
Encoding: 185 185 141
Width: 336
Flags: W
HStem: 659 80<81 140>
VStem: 81 147<659 739> 140 88<296 659>
LayerCount: 2
Fore
SplineSet
140 296 m 1xa0
 140 296 140 659 140 659 c 1xa0
 140 659 81 659 81 659 c 1
 81 659 81 739 81 739 c 1
 81 739 228 739 228 739 c 1xc0
 228 739 228 296 228 296 c 1
 228 296 140 296 140 296 c 1xa0
EndSplineSet
Validated: 1
EndChar

StartChar: uni00B2
Encoding: 178 178 142
Width: 336
Flags: W
HStem: 296 80<143 324> 668 79<117.997 220.734>
VStem: 10 87<582 646.659> 238 88<552.006 650.315>
LayerCount: 2
Fore
SplineSet
13 296 m 1
 13 296 13 370 13 370 c 1
 13 370 183 518 183 518 c 2
 224 555 238 576 238 603 c 0
 238 640 209 668 170 668 c 0
 125 668 98 637 97 582 c 1
 97 582 10 582 10 582 c 1
 10 629 17 657 38 685 c 0
 65 724 115 747 169 747 c 0
 259 747 326 685 326 601 c 0
 326 549 296 498 237 451 c 2
 237 451 143 376 143 376 c 1
 143 376 324 376 324 376 c 1
 324 376 324 296 324 296 c 1
 324 296 13 296 13 296 c 1
EndSplineSet
Validated: 1
EndChar

StartChar: uni00B3
Encoding: 179 179 143
Width: 336
Flags: W
HStem: 288 79<113.92 223.37> 506 82<127 203.547> 668 78<130.405 206.4>
VStem: 3 88<389.128 435> 36 89<628 663.731> 210 88<597.003 662.889> 243 87<386.069 483.782>
LayerCount: 2
Fore
SplineSet
127 506 m 1xf2
 127 506 127 588 127 588 c 1
 188 589 210 600 210 630 c 0
 210 652 192 668 167 668 c 0
 141 668 130 657 125 628 c 1
 125 628 36 628 36 628 c 1
 40 669 48 689 71 710 c 0
 95 733 129 746 166 746 c 0
 242 746 298 695 298 625 c 0xec
 298 593 286 568 264 551 c 1
 306 531 330 491 330 439 c 0
 330 352 262 288 169 288 c 0
 75 288 8 348 3 435 c 1
 3 435 91 435 91 435 c 1
 97 392 126 367 169 367 c 0
 212 367 243 396 243 436 c 0
 243 479 206 506 148 506 c 2
 148 506 127 506 127 506 c 1xf2
EndSplineSet
Validated: 1
EndChar

StartChar: period
Encoding: 46 46 144
Width: 281
Flags: W
HStem: 0 128<74 207>
VStem: 74 133<0 128>
LayerCount: 2
Fore
SplineSet
74 0 m 1
 74 0 74 128 74 128 c 1
 74 128 207 128 207 128 c 1
 207 128 207 0 207 0 c 1
 207 0 74 0 74 0 c 1
EndSplineSet
Validated: 1
EndChar

StartChar: colon
Encoding: 58 58 145
Width: 281
Flags: W
HStem: 0 128<74 207> 369 133<74 207>
VStem: 74 133<0 128 369 502>
LayerCount: 2
Fore
SplineSet
74 0 m 1
 74 0 74 128 74 128 c 1
 74 128 207 128 207 128 c 1
 207 128 207 0 207 0 c 1
 207 0 74 0 74 0 c 1
74 369 m 1
 74 369 74 502 74 502 c 1
 74 502 207 502 207 502 c 1
 207 502 207 369 207 369 c 1
 207 369 74 369 74 369 c 1
EndSplineSet
Validated: 1
EndChar

StartChar: periodcentered
Encoding: 183 183 146
Width: 281
Flags: W
HStem: 300 133<74 207>
VStem: 74 133<300 433>
LayerCount: 2
Fore
SplineSet
74 300 m 1
 74 300 74 433 74 433 c 1
 74 433 207 433 207 433 c 1
 207 433 207 300 207 300 c 1
 207 300 74 300 74 300 c 1
EndSplineSet
Validated: 1
EndChar

StartChar: ellipsis
Encoding: 8230 8230 147
Width: 1000
Flags: W
HStem: 0 128<100 233 433 566 766 899>
VStem: 100 133<0 128> 433 133<0 128> 766 133<0 128>
CounterMasks: 1 70
LayerCount: 2
Fore
SplineSet
100 0 m 1
 100 0 100 128 100 128 c 1
 100 128 233 128 233 128 c 1
 233 128 233 0 233 0 c 1
 233 0 100 0 100 0 c 1
433 0 m 1
 433 0 433 128 433 128 c 1
 433 128 566 128 566 128 c 1
 566 128 566 0 566 0 c 1
 566 0 433 0 433 0 c 1
766 0 m 1
 766 0 766 128 766 128 c 1
 766 128 899 128 899 128 c 1
 899 128 899 0 899 0 c 1
 899 0 766 0 766 0 c 1
EndSplineSet
Validated: 1
EndChar

StartChar: comma
Encoding: 44 44 148
Width: 281
Flags: W
HStem: -140 67<74 121.553> 0 128<74 133>
VStem: 74 133<-88.0832 -67.6101 0 128> 133 74<-59.6931 0>
LayerCount: 2
Fore
SplineSet
74 0 m 1xe0
 74 0 74 128 74 128 c 1
 74 128 207 128 207 128 c 1xe0
 207 128 207 -7 207 -7 c 2xd0
 207 -65 186 -102 141 -126 c 0
 119 -137 103 -140 74 -140 c 1
 74 -140 74 -73 74 -73 c 1xe0
 116 -65 133 -49 133 -18 c 0xd0
 133 -13 133 -7 132 0 c 1
 132 0 74 0 74 0 c 1xe0
EndSplineSet
Validated: 1
EndChar

StartChar: semicolon
Encoding: 59 59 149
Width: 281
Flags: W
HStem: -140 67<74 121.067> 0 128<74 133> 369 133<74 207>
VStem: 74 133<0 128 369 502> 133 74<-59.2296 0>
LayerCount: 2
Fore
SplineSet
74 0 m 1xf0
 74 0 74 128 74 128 c 1
 74 128 207 128 207 128 c 1xf0
 207 128 207 -7 207 -7 c 2xe8
 207 -56 195 -84 164 -110 c 0
 140 -131 111 -140 74 -140 c 1
 74 -140 74 -73 74 -73 c 1xf0
 117 -65 133 -49 133 -15 c 2
 133 -15 133 0 133 0 c 1xe8
 133 0 74 0 74 0 c 1xf0
74 369 m 1
 74 369 74 502 74 502 c 1
 74 502 207 502 207 502 c 1
 207 502 207 369 207 369 c 1
 207 369 74 369 74 369 c 1
EndSplineSet
Validated: 1
EndChar

StartChar: quoteleft
Encoding: 8216 8216 150
Width: 293
Flags: W
HStem: 672 67<165.216 213>
VStem: 80 133<466 599> 80 74<599 657.807>
LayerCount: 2
Fore
SplineSet
213 599 m 1xc0
 213 599 213 466 213 466 c 1
 213 466 80 466 80 466 c 1xc0
 80 466 80 606 80 606 c 2xa0
 80 654 92 683 123 709 c 0
 147 729 177 739 213 739 c 1
 213 739 213 672 213 672 c 1xc0
 171 664 154 648 154 616 c 0xa0
 154 612 154 605 155 599 c 1
 155 599 213 599 213 599 c 1xc0
EndSplineSet
Validated: 1
EndChar

StartChar: quotedblright
Encoding: 8221 8221 151
Width: 500
Flags: W
HStem: 466 67<80 126.611 287 333.97> 611 128<80 139 287 346>
VStem: 80 133<517.917 538.502 611 739> 139 74<548.407 610.672> 287 133<517.917 538.502 611 739> 346 74<546.307 610.672>
LayerCount: 2
Fore
SplineSet
80 611 m 1xe0
 80 611 80 739 80 739 c 1
 80 739 213 739 213 739 c 1xe0
 213 739 213 599 213 599 c 2xd0
 213 541 192 504 147 480 c 0
 125 469 109 466 80 466 c 1
 80 466 80 533 80 533 c 1xe0
 121 541 139 558 139 592 c 0xd0
 139 597 139 604 138 611 c 1
 138 611 80 611 80 611 c 1xe0
287 611 m 1xc8
 287 611 287 739 287 739 c 1
 287 739 420 739 420 739 c 1xc8
 420 739 420 599 420 599 c 2xc4
 420 541 399 504 354 480 c 0
 331 469 316 466 287 466 c 1
 287 466 287 533 287 533 c 1xc8
 329 541 346 558 346 592 c 0xc4
 346 597 346 604 345 611 c 1
 345 611 287 611 287 611 c 1xc8
EndSplineSet
Validated: 1
EndChar

StartChar: quotedblleft
Encoding: 8220 8220 152
Width: 500
Flags: W
HStem: 466 133<154 213 361 420> 672 67<164.911 213 372.216 420>
VStem: 80 133<466 599> 80 74<599 659.43> 287 133<466 599> 287 74<599 657.807>
LayerCount: 2
Fore
SplineSet
213 599 m 1xe0
 213 599 213 466 213 466 c 1
 213 466 80 466 80 466 c 1xe0
 80 466 80 606 80 606 c 2xd0
 80 654 92 683 123 709 c 0
 147 729 177 739 213 739 c 1
 213 739 213 672 213 672 c 1xe0
 170 664 154 649 154 616 c 0xd0
 154 612 154 605 155 599 c 1
 155 599 213 599 213 599 c 1xe0
420 599 m 1xc8
 420 599 420 466 420 466 c 1
 420 466 287 466 287 466 c 1xc8
 287 466 287 606 287 606 c 2xc4
 287 654 299 683 330 709 c 0
 354 729 384 739 420 739 c 1
 420 739 420 672 420 672 c 1xc8
 378 664 361 648 361 617 c 0xc4
 361 612 361 606 362 599 c 1
 362 599 420 599 420 599 c 1xc8
EndSplineSet
Validated: 1
EndChar

StartChar: quotedblbase
Encoding: 8222 8222 153
Width: 500
Flags: W
HStem: -140 67<80 127.553 287 334.553> 0 128<80 139 287 346>
VStem: 80 133<-88.0832 -67.6101 0 128> 139 74<-59.6931 0> 287 133<-88.0832 -67.6101 0 128> 346 74<-59.6931 0>
LayerCount: 2
Fore
SplineSet
80 0 m 1xe0
 80 0 80 128 80 128 c 1
 80 128 213 128 213 128 c 1xe0
 213 128 213 -7 213 -7 c 2xd0
 213 -65 192 -102 147 -126 c 0
 125 -137 109 -140 80 -140 c 1
 80 -140 80 -73 80 -73 c 1xe0
 122 -65 139 -49 139 -18 c 0xd0
 139 -13 139 -7 138 0 c 1
 138 0 80 0 80 0 c 1xe0
287 0 m 1xc8
 287 0 287 128 287 128 c 1
 287 128 420 128 420 128 c 1xc8
 420 128 420 -7 420 -7 c 2xc4
 420 -65 399 -102 354 -126 c 0
 332 -137 316 -140 287 -140 c 1
 287 -140 287 -73 287 -73 c 1xc8
 329 -65 346 -49 346 -18 c 0xc4
 346 -13 346 -7 345 0 c 1
 345 0 287 0 287 0 c 1xc8
EndSplineSet
Validated: 1
EndChar

StartChar: exclam
Encoding: 33 33 154
Width: 321
Flags: W
HStem: 0 128<94 227> 719 20G<94 227>
VStem: 94 133<0 128 188 739>
LayerCount: 2
Fore
SplineSet
94 188 m 1
 94 188 94 739 94 739 c 1
 94 739 227 739 227 739 c 1
 227 739 227 188 227 188 c 1
 227 188 94 188 94 188 c 1
94 0 m 1
 94 0 94 128 94 128 c 1
 94 128 227 128 227 128 c 1
 227 128 227 0 227 0 c 1
 227 0 94 0 94 0 c 1
EndSplineSet
Validated: 1
EndChar

StartChar: exclamdown
Encoding: 161 161 155
Width: 321
Flags: W
HStem: -185 21G<94 227> 426 128<94 227>
VStem: 94 133<-185 366 426 554>
LayerCount: 2
Fore
SplineSet
227 366 m 1
 227 366 227 -185 227 -185 c 1
 227 -185 94 -185 94 -185 c 1
 94 -185 94 366 94 366 c 1
 94 366 227 366 227 366 c 1
227 554 m 1
 227 554 227 426 227 426 c 1
 227 426 94 426 94 426 c 1
 94 426 94 554 94 554 c 1
 94 554 227 554 227 554 c 1
EndSplineSet
Validated: 1
EndChar

StartChar: question
Encoding: 63 63 156
Width: 519
Flags: W
HStem: 0 128<184 317> 620 132<195.809 318.006>
VStem: 31 133<520 584.554> 184 133<0 128 187 296.641> 351 133<467.235 587.272>
LayerCount: 2
Fore
SplineSet
317 187 m 1
 317 187 184 187 184 187 c 1
 184 311 206 360 306 442 c 0
 335 466 351 496 351 527 c 0
 351 581 311 620 256 620 c 0
 202 620 173 588 164 520 c 1
 164 520 31 520 31 520 c 1
 36 588 51 631 82 669 c 0
 125 722 189 752 259 752 c 0
 388 752 484 654 484 523 c 0
 484 456 460 413 382 344 c 0
 327 297 317 274 317 187 c 1
184 0 m 1
 184 0 184 128 184 128 c 1
 184 128 317 128 317 128 c 1
 317 128 317 0 317 0 c 1
 317 0 184 0 184 0 c 1
EndSplineSet
Validated: 1
EndChar

StartChar: questiondown
Encoding: 191 191 157
Width: 519
Flags: W
HStem: -198 132<200.994 323.145> 426 128<202 335>
VStem: 35 133<-33.2721 86.4144> 202 133<256.082 367 426 554> 355 133<-30.8893 34>
LayerCount: 2
Fore
SplineSet
202 367 m 1
 202 367 335 367 335 367 c 1
 335 367 335 352 335 352 c 2
 335 283 323 236 295 196 c 0
 275 166 268 159 213 112 c 0
 183 86 168 58 168 27 c 0
 168 -27 208 -66 263 -66 c 0
 317 -66 347 -33 355 34 c 1
 355 34 488 34 488 34 c 1
 482 -35 468 -77 437 -115 c 0
 394 -168 329 -198 260 -198 c 0
 131 -198 35 -100 35 31 c 0
 35 98 60 142 137 210 c 0
 191 257 202 283 202 354 c 2
 202 354 202 367 202 367 c 1
335 554 m 1
 335 554 335 426 335 426 c 1
 335 426 202 426 202 426 c 1
 202 426 202 554 202 554 c 1
 202 554 335 554 335 554 c 1
EndSplineSet
Validated: 1
EndChar

StartChar: guillemotright
Encoding: 187 187 158
Width: 460
Flags: W
LayerCount: 2
Fore
SplineSet
63 108 m 1
 63 108 63 231 63 231 c 1
 63 231 130 289 130 289 c 1
 130 289 63 346 63 346 c 1
 63 346 63 469 63 469 c 1
 63 469 202 339 202 339 c 1
 202 339 202 239 202 239 c 1
 202 239 63 108 63 108 c 1
276 108 m 1
 276 108 276 231 276 231 c 1
 276 231 343 289 343 289 c 1
 343 289 276 346 276 346 c 1
 276 346 276 469 276 469 c 1
 276 469 415 339 415 339 c 1
 415 339 415 239 415 239 c 1
 415 239 276 108 276 108 c 1
EndSplineSet
Validated: 1
EndChar

StartChar: guillemotleft
Encoding: 171 171 159
Width: 460
Flags: W
LayerCount: 2
Fore
SplineSet
397 108 m 1
 397 108 258 239 258 239 c 1
 258 239 258 339 258 339 c 1
 258 339 397 469 397 469 c 1
 397 469 397 346 397 346 c 1
 397 346 330 289 330 289 c 1
 330 289 397 231 397 231 c 1
 397 231 397 108 397 108 c 1
184 108 m 1
 184 108 45 239 45 239 c 1
 45 239 45 339 45 339 c 1
 45 339 184 469 184 469 c 1
 184 469 184 346 184 346 c 1
 184 346 117 289 117 289 c 1
 117 289 184 231 184 231 c 1
 184 231 184 108 184 108 c 1
EndSplineSet
Validated: 1
EndChar

StartChar: guilsinglright
Encoding: 8250 8250 160
Width: 247
Flags: W
VStem: 63 139
LayerCount: 2
Fore
SplineSet
63 108 m 1
 63 108 63 231 63 231 c 1
 63 231 130 289 130 289 c 1
 130 289 63 346 63 346 c 1
 63 346 63 469 63 469 c 1
 63 469 202 339 202 339 c 1
 202 339 202 239 202 239 c 1
 202 239 63 108 63 108 c 1
EndSplineSet
Validated: 1
EndChar

StartChar: guilsinglleft
Encoding: 8249 8249 161
Width: 247
Flags: W
VStem: 45 139
LayerCount: 2
Fore
SplineSet
184 108 m 1
 184 108 45 239 45 239 c 1
 45 239 45 339 45 339 c 1
 45 339 184 469 184 469 c 1
 184 469 184 346 184 346 c 1
 184 346 117 289 117 289 c 1
 117 289 184 231 184 231 c 1
 184 231 184 108 184 108 c 1
EndSplineSet
Validated: 1
EndChar

StartChar: slash
Encoding: 47 47 162
Width: 460
Flags: W
HStem: 719 20G<335 429>
LayerCount: 2
Fore
SplineSet
12 -128 m 1
 12 -128 335 739 335 739 c 1
 335 739 429 739 429 739 c 1
 429 739 106 -128 106 -128 c 1
 106 -128 12 -128 12 -128 c 1
EndSplineSet
Validated: 1
EndChar

StartChar: hyphen
Encoding: 45 45 163
Width: 337
Flags: W
HStem: 229 118<30 307>
VStem: 30 277<229 347>
LayerCount: 2
Fore
SplineSet
30 229 m 1
 30 229 30 347 30 347 c 1
 30 347 307 347 307 347 c 1
 307 347 307 229 307 229 c 1
 307 229 30 229 30 229 c 1
EndSplineSet
Validated: 1
EndChar

StartChar: uni00AD
Encoding: 173 173 164
Width: 337
Flags: W
HStem: 229 118<30 307>
VStem: 30 277<229 347>
LayerCount: 2
Fore
SplineSet
30 229 m 1
 30 229 30 347 30 347 c 1
 30 347 307 347 307 347 c 1
 307 347 307 229 307 229 c 1
 307 229 30 229 30 229 c 1
EndSplineSet
Validated: 1
EndChar

StartChar: endash
Encoding: 8211 8211 165
Width: 500
Flags: W
HStem: 229 118<0 500>
LayerCount: 2
Fore
SplineSet
0 229 m 1
 0 229 0 347 0 347 c 1
 0 347 500 347 500 347 c 1
 500 347 500 229 500 229 c 1
 500 229 0 229 0 229 c 1
EndSplineSet
Validated: 1
EndChar

StartChar: emdash
Encoding: 8212 8212 166
Width: 1000
Flags: W
HStem: 229 118<0 1000>
LayerCount: 2
Fore
SplineSet
0 229 m 1
 0 229 0 347 0 347 c 1
 0 347 1000 347 1000 347 c 1
 1000 347 1000 229 1000 229 c 1
 1000 229 0 229 0 229 c 1
EndSplineSet
Validated: 1
EndChar

StartChar: parenleft
Encoding: 40 40 167
Width: 357
Flags: W
HStem: 719 20G<285.5 311>
VStem: 36 135<175.695 429.963>
LayerCount: 2
Fore
SplineSet
311 8 m 1
 311 8 311 -137 311 -137 c 1
 249 -116 208 -88 159 -32 c 0
 80 58 36 178 36 300 c 0
 36 444 96 582 195 669 c 0
 232 701 260 717 311 739 c 1
 311 739 311 595 311 595 c 1
 220 525 171 421 171 300 c 0
 171 183 229 61 311 8 c 1
EndSplineSet
Validated: 1
EndChar

StartChar: parenright
Encoding: 41 41 168
Width: 357
Flags: W
HStem: 719 20G<46 77>
VStem: 186 135<172.037 426.305>
LayerCount: 2
Fore
SplineSet
46 594 m 1
 46 594 46 739 46 739 c 1
 108 718 149 690 198 634 c 0
 277 544 321 424 321 302 c 0
 321 158 261 20 162 -67 c 0
 125 -99 97 -115 46 -137 c 1
 46 -137 46 7 46 7 c 1
 137 77 186 181 186 302 c 0
 186 419 128 541 46 594 c 1
EndSplineSet
Validated: 1
EndChar

StartChar: bracketleft
Encoding: 91 91 169
Width: 313
Flags: W
HStem: 719 20G<241 276>
VStem: 58 135<58.7302 542.31>
LayerCount: 2
Fore
SplineSet
276 739 m 1
 276 739 276 592 276 592 c 1
 240 577 224 563 213 539 c 0
 200 510 193 469 193 419 c 2
 193 419 193 164 193 164 c 2
 193 124 200 89 213 62 c 0
 225 37 241 24 276 10 c 1
 276 10 276 -137 276 -137 c 1
 195 -119 143 -83 103 -17 c 0
 73 34 58 99 58 187 c 2
 58 187 58 446 58 446 c 2
 58 541 84 612 139 666 c 0
 174 702 206 719 276 739 c 1
EndSplineSet
Validated: 1
EndChar

StartChar: bracketright
Encoding: 93 93 170
Width: 313
Flags: W
HStem: 719 20G<37 77.5>
VStem: 120 135<59.6898 543.27>
LayerCount: 2
Fore
SplineSet
37 -137 m 1
 37 -137 37 10 37 10 c 1
 73 25 89 39 100 63 c 0
 113 92 120 133 120 183 c 2
 120 183 120 438 120 438 c 2
 120 478 113 513 100 540 c 0
 88 565 72 578 37 592 c 1
 37 592 37 739 37 739 c 1
 118 721 170 685 210 619 c 0
 240 568 255 503 255 415 c 2
 255 415 255 156 255 156 c 2
 255 61 229 -10 175 -64 c 0
 140 -99 107 -117 37 -137 c 1
EndSplineSet
Validated: 1
EndChar

StartChar: ampersand
Encoding: 38 38 171
Width: 680
Flags: W
HStem: -13 132<202.249 327.226> 627 125<251.938 346.029>
VStem: 34 133<155.074 274.964> 110 127<512.513 612.212> 360 127<514.372 613.002>
LayerCount: 2
Fore
SplineSet
510 433 m 1xd8
 510 433 659 433 659 433 c 1
 659 433 531 214 531 214 c 1
 531 214 663 73 663 73 c 1
 663 73 568 -13 568 -13 c 1
 568 -13 463 98 463 98 c 1
 400 14 354 -13 275 -13 c 0
 139 -13 34 90 34 223 c 0xe8
 34 313 75 376 172 433 c 1
 124 486 110 516 110 569 c 0
 110 672 191 752 296 752 c 0
 406 752 487 674 487 570 c 0
 487 520 471 476 440 442 c 0
 424 424 409 413 371 389 c 1
 371 389 438 314 438 314 c 1
 438 314 510 433 510 433 c 1xd8
288 481 m 1
 343 509 360 530 360 566 c 0
 360 602 335 627 299 627 c 0
 263 627 237 601 237 566 c 0xd8
 237 540 249 519 288 481 c 1
371 198 m 1
 371 198 256 322 256 322 c 1
 193 293 167 262 167 215 c 0xe8
 167 159 209 119 267 119 c 0
 312 119 336 138 371 198 c 1
EndSplineSet
Validated: 1
EndChar

StartChar: section
Encoding: 167 167 172
Width: 560
Flags: W
HStem: -157 122<215.839 351.036> 563 21G<361.5 492> 630 122<222.036 344.178>
VStem: 35 117<316.437 397.546> 55 134<-8.42586 55> 85 127<537.34 618.204> 372 127<-13.9592 72.4498> 400 124<229.196 316.227>
LayerCount: 2
Fore
SplineSet
492 563 m 1xe4
 492 563 366 563 366 563 c 1
 357 610 331 630 280 630 c 0
 238 630 212 612 212 581 c 0
 212 555 233 531 273 512 c 2
 273 512 437 431 437 431 c 2
 490 405 524 351 524 292 c 0xe5
 524 237 497 186 449 150 c 1
 485 114 499 79 499 31 c 0
 499 -79 410 -157 284 -157 c 0
 206 -157 143 -128 101 -75 c 0
 72 -38 60 -4 55 55 c 1
 55 55 189 55 189 55 c 1xea
 189 31 190 23 196 10 c 0
 211 -18 244 -35 285 -35 c 0
 335 -35 372 -8 372 30 c 0
 372 59 358 73 299 103 c 2
 299 103 136 187 136 187 c 2
 68 221 35 274 35 347 c 0xf2
 35 409 58 452 113 493 c 1
 93 523 85 550 85 586 c 0
 85 684 167 752 286 752 c 0
 406 752 476 687 492 563 c 1xe4
340 339 m 2
 340 339 191 413 191 413 c 1
 163 391 152 375 152 354 c 0xf1
 152 331 169 313 212 291 c 2
 212 291 363 215 363 215 c 1
 386 231 400 255 400 278 c 0
 400 302 388 314 340 339 c 2
EndSplineSet
Validated: 1
EndChar

StartChar: dagger
Encoding: 8224 8224 173
Width: 557
Flags: W
HStem: 436 118<50 213 346 507> 719 20G<213 346>
VStem: 213 133<-128 436 554 739>
LayerCount: 2
Fore
SplineSet
346 739 m 1
 346 739 346 554 346 554 c 1
 346 554 507 554 507 554 c 1
 507 554 507 436 507 436 c 1
 507 436 346 436 346 436 c 1
 346 436 346 -128 346 -128 c 1
 346 -128 213 -128 213 -128 c 1
 213 -128 213 436 213 436 c 1
 213 436 50 436 50 436 c 1
 50 436 50 554 50 554 c 1
 50 554 213 554 213 554 c 1
 213 554 213 739 213 739 c 1
 213 739 346 739 346 739 c 1
EndSplineSet
Validated: 1
EndChar

StartChar: daggerdbl
Encoding: 8225 8225 174
Width: 557
Flags: W
HStem: 260 118<50 212 345 507> 473 118<50 212 345 507> 719 20G<212 345>
VStem: 212 133<-128 260 378 473 591 739>
LayerCount: 2
Fore
SplineSet
345 739 m 1
 345 739 345 591 345 591 c 1
 345 591 507 591 507 591 c 1
 507 591 507 473 507 473 c 1
 507 473 345 473 345 473 c 1
 345 473 345 378 345 378 c 1
 345 378 507 378 507 378 c 1
 507 378 507 260 507 260 c 1
 507 260 345 260 345 260 c 1
 345 260 345 -128 345 -128 c 1
 345 -128 212 -128 212 -128 c 1
 212 -128 212 260 212 260 c 1
 212 260 50 260 50 260 c 1
 50 260 50 378 50 378 c 1
 50 378 212 378 212 378 c 1
 212 378 212 473 212 473 c 1
 212 473 50 473 50 473 c 1
 50 473 50 591 50 591 c 1
 50 591 212 591 212 591 c 1
 212 591 212 739 212 739 c 1
 212 739 345 739 345 739 c 1
EndSplineSet
Validated: 1
EndChar

StartChar: asterisk
Encoding: 42 42 175
Width: 409
Flags: W
HStem: 554 71<54 152> 718 20G<163 163 253 253>
VStem: 54 301
LayerCount: 2
Fore
SplineSet
100 706 m 1
 100 706 163 738 163 738 c 1
 163 738 207 652 207 652 c 1
 207 652 253 739 253 739 c 1
 253 739 312 703 312 703 c 1
 312 703 258 620 258 620 c 1
 258 620 355 626 355 626 c 1
 355 626 355 554 355 554 c 1
 355 554 258 559 258 559 c 1
 258 559 311 479 311 479 c 1
 311 479 254 441 254 441 c 1
 254 441 207 529 207 529 c 1
 207 529 164 441 164 441 c 1
 164 441 100 472 100 472 c 1
 100 472 152 561 152 561 c 1
 152 561 54 554 54 554 c 1
 54 554 54 625 54 625 c 1
 54 625 153 620 153 620 c 1
 153 620 100 706 100 706 c 1
EndSplineSet
Validated: 1
EndChar

StartChar: quotesingle
Encoding: 39 39 176
Width: 204
Flags: W
HStem: 513 226<64 140>
VStem: 64 76<513 739>
LayerCount: 2
Fore
SplineSet
140 513 m 1
 140 513 64 513 64 513 c 1
 64 513 64 739 64 739 c 1
 64 739 140 739 140 739 c 1
 140 739 140 513 140 513 c 1
EndSplineSet
Validated: 1
EndChar

StartChar: quotedbl
Encoding: 34 34 177
Width: 337
Flags: W
HStem: 513 226<64 140 197 273>
VStem: 64 76<513 739> 197 76<513 739>
LayerCount: 2
Fore
SplineSet
273 513 m 1
 273 513 197 513 197 513 c 1
 197 513 197 739 197 739 c 1
 197 739 273 739 273 739 c 1
 273 739 273 513 273 513 c 1
140 513 m 1
 140 513 64 513 64 513 c 1
 64 513 64 739 64 739 c 1
 64 739 140 739 140 739 c 1
 140 739 140 513 140 513 c 1
EndSplineSet
Validated: 1
EndChar

StartChar: at
Encoding: 64 64 178
Width: 814
Flags: W
HStem: -13 73<306.38 539.574> 154 106<335.81 436.291> 154 83<540.5 650.359> 465 112<353.98 465.542> 694 72<303.83 539.283>
VStem: 36 71<257.624 494.873> 190 120<286.724 421.498> 488 91<265 374> 705 73<307.398 521.995>
LayerCount: 2
Fore
SplineSet
613 573 m 1xdf80
 613 573 580 278 580 278 c 2
 579 274 579 269 579 265 c 0
 579 245 587 237 606 237 c 0
 659 237 705 318 705 413 c 0
 705 580 591 694 423 694 c 0
 241 694 107 558 107 375 c 0
 107 281 147 192 214 134 c 0
 268 87 350 60 434 60 c 0
 493 60 538 74 583 107 c 1
 583 107 629 47 629 47 c 1
 574 4 517 -13 432 -13 c 0
 302 -13 197 34 123 126 c 0
 67 195 36 284 36 377 c 0
 36 598 202 766 420 766 c 0
 563 766 685 695 741 581 c 0
 765 532 778 466 778 397 c 0
 778 253 693 154 567 154 c 0xbf80
 514 154 481 172 468 208 c 1
 443 171 409 154 355 154 c 0
 254 154 190 228 190 344 c 0
 190 477 276 577 392 577 c 0
 446 577 477 562 510 519 c 1
 510 519 517 573 517 573 c 1
 517 573 613 573 613 573 c 1xdf80
411 465 m 0
 356 465 310 415 310 355 c 0
 310 296 340 260 389 260 c 0xdf80
 447 260 488 307 488 374 c 0
 488 432 460 465 411 465 c 0
EndSplineSet
Validated: 1
EndChar

StartChar: numbersign
Encoding: 35 35 179
Width: 560
Flags: W
HStem: 0 21G<99 190 276 366> 233 100<34 131 234 308 411 500> 422 99<60 156 260 333 437 526> 719 20G<199 289 376 466>
LayerCount: 2
Fore
SplineSet
199 739 m 1
 199 739 289 739 289 739 c 1
 289 739 260 521 260 521 c 1
 260 521 347 521 347 521 c 1
 347 521 376 739 376 739 c 1
 376 739 466 739 466 739 c 1
 466 739 437 521 437 521 c 1
 437 521 526 521 526 521 c 1
 526 521 526 422 526 422 c 1
 526 422 423 422 423 422 c 1
 423 422 411 333 411 333 c 1
 411 333 500 333 500 333 c 1
 500 333 500 233 500 233 c 1
 500 233 398 233 398 233 c 1
 398 233 366 0 366 0 c 1
 366 0 276 0 276 0 c 1
 276 0 308 233 308 233 c 1
 308 233 221 233 221 233 c 1
 221 233 190 0 190 0 c 1
 190 0 99 0 99 0 c 1
 99 0 131 233 131 233 c 1
 131 233 34 233 34 233 c 1
 34 233 34 333 34 333 c 1
 34 333 144 333 144 333 c 1
 144 333 156 422 156 422 c 1
 156 422 60 422 60 422 c 1
 60 422 60 521 60 521 c 1
 60 521 170 521 170 521 c 1
 170 521 199 739 199 739 c 1
247 422 m 1
 247 422 234 333 234 333 c 1
 234 333 321 333 321 333 c 1
 321 333 333 422 333 422 c 1
 333 422 247 422 247 422 c 1
EndSplineSet
Validated: 1
EndChar

StartChar: degree
Encoding: 176 176 180
Width: 400
Flags: W
HStem: 380 57<140.648 259.148> 629 57<142.582 258.76>
VStem: 50 56<472.8 593.625> 293 57<472.17 593.83>
LayerCount: 2
Fore
SplineSet
204 686 m 0
 286 686 350 619 350 533 c 0
 350 447 284 380 200 380 c 0
 116 380 50 448 50 534 c 0
 50 619 117 686 204 686 c 0
200 629 m 0
 148 629 106 585 106 533 c 0
 106 480 148 437 200 437 c 0
 252 437 293 479 293 533 c 0
 293 587 252 629 200 629 c 0
EndSplineSet
Validated: 1
EndChar

StartChar: plus
Encoding: 43 43 181
Width: 600
Flags: W
HStem: 312 118<48 240 360 552>
VStem: 240 120<117 312 430 625>
LayerCount: 2
Fore
SplineSet
240 430 m 1
 240 430 240 625 240 625 c 1
 240 625 360 625 360 625 c 1
 360 625 360 430 360 430 c 1
 360 430 552 430 552 430 c 1
 552 430 552 312 552 312 c 1
 552 312 360 312 360 312 c 1
 360 312 360 117 360 117 c 1
 360 117 240 117 240 117 c 1
 240 117 240 312 240 312 c 1
 240 312 48 312 48 312 c 1
 48 312 48 430 48 430 c 1
 48 430 240 430 240 430 c 1
EndSplineSet
Validated: 1
EndChar

StartChar: minus
Encoding: 8722 8722 182
Width: 600
Flags: W
HStem: 312 118<48 552>
LayerCount: 2
Fore
SplineSet
552 430 m 1
 552 430 552 312 552 312 c 1
 552 312 48 312 48 312 c 1
 48 312 48 430 48 430 c 1
 48 430 552 430 552 430 c 1
EndSplineSet
Validated: 1
EndChar

StartChar: multiply
Encoding: 215 215 183
Width: 600
Flags: W
LayerCount: 2
Fore
SplineSet
382 366 m 1
 382 366 552 196 552 196 c 1
 552 196 470 114 470 114 c 1
 470 114 300 284 300 284 c 1
 300 284 130 114 130 114 c 1
 130 114 48 196 48 196 c 1
 48 196 218 366 218 366 c 1
 218 366 48 536 48 536 c 1
 48 536 130 618 130 618 c 1
 130 618 300 448 300 448 c 1
 300 448 470 618 470 618 c 1
 470 618 552 536 552 536 c 1
 552 536 382 366 382 366 c 1
EndSplineSet
Validated: 1
EndChar

StartChar: divide
Encoding: 247 247 184
Width: 600
Flags: W
HStem: 73 131<232 367> 312 118<48 552> 538 131<232 367>
VStem: 232 135<73 204 538 669>
CounterMasks: 1 e0
LayerCount: 2
Fore
SplineSet
367 538 m 1
 367 538 232 538 232 538 c 1
 232 538 232 669 232 669 c 1
 232 669 367 669 367 669 c 1
 367 669 367 538 367 538 c 1
367 73 m 1
 367 73 232 73 232 73 c 1
 232 73 232 204 232 204 c 1
 232 204 367 204 367 204 c 1
 367 204 367 73 367 73 c 1
552 430 m 1
 552 430 552 312 552 312 c 1
 552 312 48 312 48 312 c 1
 48 312 48 430 48 430 c 1
 48 430 552 430 552 430 c 1
EndSplineSet
Validated: 1
EndChar

StartChar: equal
Encoding: 61 61 185
Width: 600
Flags: W
HStem: 210 118<48 552> 405 118<48 552>
LayerCount: 2
Fore
SplineSet
552 523 m 1
 552 523 552 405 552 405 c 1
 552 405 48 405 48 405 c 1
 48 405 48 523 48 523 c 1
 48 523 552 523 552 523 c 1
552 328 m 1
 552 328 552 210 552 210 c 1
 552 210 48 210 48 210 c 1
 48 210 48 328 48 328 c 1
 48 328 552 328 552 328 c 1
EndSplineSet
Validated: 1
EndChar

StartChar: trademark
Encoding: 8482 8482 186
Width: 958
Flags: W
HStem: 664 75<50 186 267 403>
VStem: 186 81<345 664> 433 81<345 631> 827 81<345 632>
LayerCount: 2
Fore
SplineSet
908 739 m 1
 908 739 908 345 908 345 c 1
 908 345 827 345 827 345 c 1
 827 345 827 632 827 632 c 1
 827 632 695 345 695 345 c 1
 695 345 642 345 642 345 c 1
 642 345 514 631 514 631 c 1
 514 631 514 345 514 345 c 1
 514 345 433 345 433 345 c 1
 433 345 433 739 433 739 c 1
 433 739 554 739 554 739 c 1
 554 739 668 482 668 482 c 1
 668 482 790 739 790 739 c 1
 790 739 908 739 908 739 c 1
403 739 m 1
 403 739 403 664 403 664 c 1
 403 664 267 664 267 664 c 1
 267 664 267 345 267 345 c 1
 267 345 186 345 186 345 c 1
 186 345 186 664 186 664 c 1
 186 664 50 664 50 664 c 1
 50 664 50 739 50 739 c 1
 50 739 403 739 403 739 c 1
EndSplineSet
Validated: 1
EndChar

StartChar: paragraph
Encoding: 182 182 187
Width: 600
Flags: W
HStem: 632 107<342 426>
VStem: 37 305<437.924 627.548> 241 101<-128 330> 426 101<-128 632>
LayerCount: 2
Fore
SplineSet
241 -128 m 1xb0
 241 -128 241 330 241 330 c 1xb0
 119 332 37 414 37 533 c 0xd0
 37 612 75 678 140 711 c 0
 177 729 234 739 309 739 c 2
 309 739 527 739 527 739 c 1
 527 739 527 -128 527 -128 c 1
 527 -128 426 -128 426 -128 c 1
 426 -128 426 632 426 632 c 1
 426 632 342 632 342 632 c 1
 342 632 342 -128 342 -128 c 1
 342 -128 241 -128 241 -128 c 1xb0
EndSplineSet
Validated: 1
EndChar

StartChar: currency
Encoding: 164 164 188
Width: 560
Flags: W
HStem: 153 120<209.611 351.874> 526 120<209.978 351.82>
VStem: 33 120<331.475 468.67> 407 122<327.837 470.053>
LayerCount: 2
Fore
SplineSet
27 574 m 1
 27 574 107 654 107 654 c 1
 107 654 152 610 152 610 c 1
 194 635 233 646 280 646 c 0
 327 646 369 635 412 610 c 1
 412 610 457 653 457 653 c 1
 457 653 534 572 534 572 c 1
 534 572 492 529 492 529 c 1
 521 479 529 450 529 399 c 0
 529 348 520 317 491 271 c 1
 491 271 533 228 533 228 c 1
 533 228 456 148 456 148 c 1
 456 148 412 190 412 190 c 1
 371 166 326 153 281 153 c 0
 236 153 190 166 150 190 c 1
 150 190 106 148 106 148 c 1
 106 148 27 229 27 229 c 1
 27 229 69 272 69 272 c 1
 40 327 33 351 33 400 c 0
 33 450 40 473 69 529 c 1
 69 529 27 574 27 574 c 1
281 526 m 0
 211 526 153 469 153 401 c 0
 153 330 211 273 281 273 c 0
 351 273 407 329 407 398 c 0
 407 470 352 526 281 526 c 0
EndSplineSet
Validated: 1
EndChar

StartChar: quotesinglbase
Encoding: 8218 8218 189
Width: 293
Flags: W
HStem: -140 67<80 127.553> 0 128<80 139>
VStem: 80 133<-88.0832 -67.6101 0 128> 139 74<-59.6931 0>
LayerCount: 2
Fore
SplineSet
80 0 m 1xe0
 80 0 80 128 80 128 c 1
 80 128 213 128 213 128 c 1xe0
 213 128 213 -7 213 -7 c 2xd0
 213 -65 192 -102 147 -126 c 0
 125 -137 109 -140 80 -140 c 1
 80 -140 80 -73 80 -73 c 1xe0
 122 -65 139 -49 139 -18 c 0xd0
 139 -13 139 -7 138 0 c 1
 138 0 80 0 80 0 c 1xe0
EndSplineSet
Validated: 1
EndChar

StartChar: quoteright
Encoding: 8217 8217 190
Width: 293
Flags: W
HStem: 466 67<80 126.611> 611 128<80 139>
VStem: 80 133<517.917 538.502 611 739> 139 74<546.307 610.672>
LayerCount: 2
Fore
SplineSet
80 611 m 1xe0
 80 611 80 739 80 739 c 1
 80 739 213 739 213 739 c 1xe0
 213 739 213 599 213 599 c 2xd0
 213 541 192 504 147 480 c 0
 125 469 109 466 80 466 c 1
 80 466 80 533 80 533 c 1xe0
 122 541 139 558 139 592 c 0xd0
 139 597 139 604 138 611 c 1
 138 611 80 611 80 611 c 1xe0
EndSplineSet
Validated: 1
EndChar

StartChar: braceleft
Encoding: 123 123 191
Width: 335
Flags: W
HStem: -128 80<262.474 305> 265 81<40 93.3036> 659 80<262.474 305>
VStem: 121 105<-31.49 237.367 373.633 642.49>
CounterMasks: 1 e0
LayerCount: 2
Fore
SplineSet
226 557 m 2
 226 557 226 434 226 434 c 2
 226 356 203 323 136 305 c 1
 202 289 226 255 226 177 c 2
 226 177 226 54 226 54 c 2
 226 -31 234 -42 305 -48 c 1
 305 -48 305 -128 305 -128 c 1
 289 -129 272 -129 262 -129 c 0
 163 -129 121 -87 121 10 c 2
 121 10 121 167 121 167 c 2
 121 227 96 258 40 265 c 1
 40 265 40 346 40 346 c 1
 96 353 121 384 121 444 c 2
 121 444 121 601 121 601 c 2
 121 698 163 740 262 740 c 0
 272 740 289 740 305 739 c 1
 305 739 305 659 305 659 c 1
 234 653 226 642 226 557 c 2
EndSplineSet
Validated: 1
EndChar

StartChar: braceright
Encoding: 125 125 192
Width: 335
Flags: W
HStem: -128 80<30 72.5262> 265 81<241.696 295> 659 80<30 72.5262>
VStem: 109 105<-31.49 237.367 373.633 642.49>
CounterMasks: 1 e0
LayerCount: 2
Fore
SplineSet
109 54 m 2
 109 54 109 177 109 177 c 2
 109 255 132 288 199 306 c 1
 133 322 109 356 109 434 c 2
 109 434 109 557 109 557 c 2
 109 642 101 653 30 659 c 1
 30 659 30 739 30 739 c 1
 46 740 63 740 73 740 c 0
 172 740 214 698 214 601 c 2
 214 601 214 444 214 444 c 2
 214 384 239 353 295 346 c 1
 295 346 295 265 295 265 c 1
 239 258 214 227 214 167 c 2
 214 167 214 10 214 10 c 2
 214 -87 172 -129 73 -129 c 0
 63 -129 46 -129 30 -128 c 1
 30 -128 30 -48 30 -48 c 1
 101 -42 109 -31 109 54 c 2
EndSplineSet
Validated: 1
EndChar

StartChar: ordfeminine
Encoding: 170 170 193
Width: 382
Flags: W
HStem: 310 70<33 344> 431 74<132.5 241.758> 676 74<133.352 241.99> 719 20G<274 340>
VStem: 30 76<532.193 647.25> 274 66<441 482 538.899 642.74 700 739>
LayerCount: 2
Fore
SplineSet
340 739 m 1xdc
 340 739 340 441 340 441 c 1
 340 441 274 441 274 441 c 1
 274 441 274 482 274 482 c 1
 249 449 213 431 172 431 c 0
 92 431 30 501 30 592 c 0
 30 681 95 750 177 750 c 0xec
 216 750 248 734 274 700 c 1
 274 700 274 739 274 739 c 1
 274 739 340 739 340 739 c 1xdc
186 676 m 0
 142 676 106 637 106 589 c 0
 106 542 142 505 187 505 c 0
 233 505 268 542 268 591 c 0
 268 640 233 676 186 676 c 0
33 310 m 1
 33 310 33 380 33 380 c 1
 33 380 344 380 344 380 c 1
 344 380 344 310 344 310 c 1
 344 310 33 310 33 310 c 1
EndSplineSet
Validated: 1
EndChar

StartChar: ordmasculine
Encoding: 186 186 194
Width: 367
Flags: W
HStem: 311 70<30 337> 442 74<128.096 237.659> 680 70<130.578 235.649>
VStem: 30 73<540.813 653.595> 264 73<542.155 652.958>
LayerCount: 2
Fore
SplineSet
186 750 m 0
 269 750 337 681 337 597 c 0
 337 511 269 442 184 442 c 0
 99 442 30 512 30 598 c 0
 30 683 99 750 186 750 c 0
182 680 m 0
 139 680 103 643 103 598 c 0
 103 551 137 516 184 516 c 0
 230 516 264 551 264 598 c 0
 264 643 227 680 182 680 c 0
30 311 m 1
 30 311 30 381 30 381 c 1
 30 381 337 381 337 381 c 1
 337 381 337 311 337 311 c 1
 337 311 30 311 30 311 c 1
EndSplineSet
Validated: 1
EndChar

StartChar: plusminus
Encoding: 177 177 195
Width: 600
Flags: W
HStem: 0 118<48 552> 340 118<48 240 360 552>
VStem: 240 120<175 340 458 653>
LayerCount: 2
Fore
SplineSet
240 458 m 1
 240 458 240 653 240 653 c 1
 240 653 360 653 360 653 c 1
 360 653 360 458 360 458 c 1
 360 458 552 458 552 458 c 1
 552 458 552 340 552 340 c 1
 552 340 360 340 360 340 c 1
 360 340 360 175 360 175 c 1
 360 175 240 175 240 175 c 1
 240 175 240 340 240 340 c 1
 240 340 48 340 48 340 c 1
 48 340 48 458 48 458 c 1
 48 458 240 458 240 458 c 1
552 118 m 1
 552 118 552 0 552 0 c 1
 552 0 48 0 48 0 c 1
 48 0 48 118 48 118 c 1
 48 118 552 118 552 118 c 1
EndSplineSet
Validated: 1
EndChar

StartChar: onehalf
Encoding: 189 189 196
Width: 840
Flags: W
HStem: 0 80<600 781> 372 79<574.997 677.734> 659 80<47 106>
VStem: 47 147<659 739> 106 88<296 659> 467 87<286 350.976> 695 88<256.006 354.315>
LayerCount: 2
Fore
SplineSet
152 0 m 1xe6
 152 0 458 739 458 739 c 1
 458 739 553 739 553 739 c 1
 553 739 247 0 247 0 c 1
 247 0 152 0 152 0 c 1xe6
106 296 m 1xee
 106 296 106 659 106 659 c 1xee
 106 659 47 659 47 659 c 1
 47 659 47 739 47 739 c 1
 47 739 194 739 194 739 c 1xf6
 194 739 194 296 194 296 c 1
 194 296 106 296 106 296 c 1xee
470 0 m 1
 470 0 470 74 470 74 c 1
 470 74 640 222 640 222 c 2
 681 259 695 280 695 307 c 0
 695 344 666 372 627 372 c 0
 582 372 555 341 554 286 c 1
 554 286 467 286 467 286 c 1
 467 334 475 361 495 389 c 0
 522 428 572 451 626 451 c 0
 716 451 783 389 783 305 c 0
 783 253 753 202 694 155 c 2
 694 155 600 80 600 80 c 1
 600 80 781 80 781 80 c 1
 781 80 781 0 781 0 c 1
 781 0 470 0 470 0 c 1
EndSplineSet
Validated: 1
EndChar

StartChar: onequarter
Encoding: 188 188 197
Width: 840
Flags: W
HStem: 0 21G<177 272 657 745> 66 76<555 657 745 793> 659 80<51 110>
VStem: 51 147<659 739> 110 88<296 659> 657 88<0 66 142 296>
LayerCount: 2
Fore
SplineSet
177 0 m 1xe4
 177 0 483 739 483 739 c 1
 483 739 578 739 578 739 c 1
 578 739 272 0 272 0 c 1
 272 0 177 0 177 0 c 1xe4
463 133 m 1
 463 133 671 443 671 443 c 1
 671 443 745 443 745 443 c 1
 745 443 745 142 745 142 c 1
 745 142 793 142 793 142 c 1
 793 142 793 66 793 66 c 1
 793 66 745 66 745 66 c 1
 745 66 745 0 745 0 c 1
 745 0 657 0 657 0 c 1
 657 0 657 66 657 66 c 1
 657 66 463 66 463 66 c 1
 463 66 463 133 463 133 c 1
657 142 m 1
 657 142 657 296 657 296 c 1
 657 296 555 142 555 142 c 1
 555 142 657 142 657 142 c 1
110 296 m 1xec
 110 296 110 659 110 659 c 1xec
 110 659 51 659 51 659 c 1
 51 659 51 739 51 739 c 1
 51 739 198 739 198 739 c 1xf4
 198 739 198 296 198 296 c 1
 198 296 110 296 110 296 c 1xec
EndSplineSet
Validated: 1
EndChar

StartChar: threequarters
Encoding: 190 190 198
Width: 840
Flags: W
HStem: 0 21G<252 347 702 790> 66 76<600 702 790 838> 288 79<116.92 226.37> 506 82<130 206.547> 668 78<133.405 209.4> 719 20G<558 653>
VStem: 6 88<389.128 435> 39 89<628 663.731> 213 88<597.003 662.889> 246 87<386.069 483.782> 702 88<0 66 142 296>
LayerCount: 2
Fore
SplineSet
252 0 m 1xf420
 252 0 558 739 558 739 c 1
 558 739 653 739 653 739 c 1
 653 739 347 0 347 0 c 1
 347 0 252 0 252 0 c 1xf420
508 133 m 1
 508 133 716 443 716 443 c 1
 716 443 790 443 790 443 c 1
 790 443 790 142 790 142 c 1
 790 142 838 142 838 142 c 1
 838 142 838 66 838 66 c 1
 838 66 790 66 790 66 c 1
 790 66 790 0 790 0 c 1
 790 0 702 0 702 0 c 1
 702 0 702 66 702 66 c 1
 702 66 508 66 508 66 c 1
 508 66 508 133 508 133 c 1
702 142 m 1
 702 142 702 296 702 296 c 1
 702 296 600 142 600 142 c 1
 600 142 702 142 702 142 c 1
130 506 m 1
 130 506 130 588 130 588 c 1
 191 589 213 600 213 630 c 0
 213 652 195 668 170 668 c 0
 144 668 133 657 128 628 c 1
 128 628 39 628 39 628 c 1
 43 669 51 689 74 710 c 0
 98 733 132 746 169 746 c 0
 245 746 301 695 301 625 c 0xf9a0
 301 593 289 568 267 551 c 1
 309 531 333 491 333 439 c 0
 333 352 265 288 172 288 c 0
 78 288 11 348 6 435 c 1
 6 435 94 435 94 435 c 1
 100 392 129 367 172 367 c 0
 215 367 246 396 246 436 c 0xfa60
 246 479 209 506 151 506 c 2
 151 506 130 506 130 506 c 1
EndSplineSet
Validated: 1
EndChar

StartChar: fraction
Encoding: 8260 8260 199
Width: 160
Flags: W
HStem: 0 21G<-121 -26> 719 20G<185 280>
LayerCount: 2
Fore
SplineSet
-121 0 m 1
 -121 0 185 739 185 739 c 1
 185 739 280 739 280 739 c 1
 280 739 -26 0 -26 0 c 1
 -26 0 -121 0 -121 0 c 1
EndSplineSet
Validated: 1
EndChar

StartChar: percent
Encoding: 37 37 200
Width: 860
Flags: W
HStem: -13 107<605.468 706.969> 0 21G<225 327> 242 106<605.325 707.014> 391 107<153.468 254.969> 646 106<153.325 255.014> 719 20G<530 633>
VStem: 23 108<520.747 622.823> 278 107<521.031 622.577> 475 108<116.747 218.823> 730 107<117.031 218.577>
LayerCount: 2
Fore
SplineSet
530 739 m 1x77c0
 530 739 633 739 633 739 c 1
 633 739 327 0 327 0 c 1
 327 0 225 0 225 0 c 1
 225 0 530 739 530 739 c 1x77c0
657 348 m 0
 755 348 837 266 837 168 c 0
 837 68 756 -13 656 -13 c 0xb3c0
 556 -13 475 68 475 167 c 0
 475 269 555 348 657 348 c 0
655 242 m 0
 615 242 583 209 583 168 c 0
 583 127 616 94 656 94 c 0
 697 94 730 127 730 168 c 0
 730 209 697 242 655 242 c 0
205 752 m 0x3bc0
 303 752 385 670 385 572 c 0
 385 472 304 391 204 391 c 0
 104 391 23 472 23 571 c 0
 23 673 103 752 205 752 c 0x3bc0
203 646 m 0
 163 646 131 613 131 572 c 0
 131 531 164 498 204 498 c 0
 245 498 278 531 278 572 c 0
 278 613 245 646 203 646 c 0
EndSplineSet
Validated: 1
EndChar

StartChar: perthousand
Encoding: 8240 8240 201
Width: 1273
Flags: W
HStem: -13 107<605.468 706.969 1018.47 1119.97> 0 21G<225 327> 242 106<605.325 707.014 1018.33 1120.01> 391 107<153.468 254.969> 646 106<153.325 255.014> 719 20G<530 633>
VStem: 23 108<520.747 622.823> 278 107<521.031 622.577> 475 108<116.747 218.823> 730 107<117.031 218.577> 888 108<116.747 218.823> 1143 107<117.031 218.577>
LayerCount: 2
Fore
SplineSet
530 739 m 1x77f0
 530 739 633 739 633 739 c 1
 633 739 327 0 327 0 c 1
 327 0 225 0 225 0 c 1
 225 0 530 739 530 739 c 1x77f0
1070 348 m 0
 1168 348 1250 266 1250 168 c 0
 1250 68 1169 -13 1069 -13 c 0xb3f0
 969 -13 888 68 888 167 c 0
 888 269 968 348 1070 348 c 0
1068 242 m 0
 1028 242 996 209 996 168 c 0
 996 127 1029 94 1069 94 c 0
 1110 94 1143 127 1143 168 c 0
 1143 209 1110 242 1068 242 c 0
657 348 m 0
 755 348 837 266 837 168 c 0
 837 68 756 -13 656 -13 c 0
 556 -13 475 68 475 167 c 0
 475 269 555 348 657 348 c 0
655 242 m 0
 615 242 583 209 583 168 c 0
 583 127 616 94 656 94 c 0
 697 94 730 127 730 168 c 0
 730 209 697 242 655 242 c 0
205 752 m 0x3bf0
 303 752 385 670 385 572 c 0
 385 472 304 391 204 391 c 0
 104 391 23 472 23 571 c 0
 23 673 103 752 205 752 c 0x3bf0
203 646 m 0
 163 646 131 613 131 572 c 0
 131 531 164 498 204 498 c 0
 245 498 278 531 278 572 c 0
 278 613 245 646 203 646 c 0
EndSplineSet
Validated: 1
EndChar

StartChar: backslash
Encoding: 92 92 202
Width: 481
Flags: W
HStem: 0 21G<356 450> 719 20G<31 125>
LayerCount: 2
Fore
SplineSet
450 0 m 1
 450 0 356 0 356 0 c 1
 356 0 31 739 31 739 c 1
 31 739 125 739 125 739 c 1
 125 739 450 0 450 0 c 1
EndSplineSet
Validated: 1
EndChar

StartChar: dieresis
Encoding: 168 168 203
Width: 471
Flags: W
HStem: 630 133<64 197 274 407>
VStem: 64 133<630 763> 274 133<630 763>
LayerCount: 2
Fore
SplineSet
64 630 m 1
 64 630 64 763 64 763 c 1
 64 763 197 763 197 763 c 1
 197 763 197 630 197 630 c 1
 197 630 64 630 64 630 c 1
274 630 m 1
 274 630 274 763 274 763 c 1
 274 763 407 763 407 763 c 1
 407 763 407 630 407 630 c 1
 407 630 274 630 274 630 c 1
EndSplineSet
Validated: 1
EndChar

StartChar: dotaccent
Encoding: 729 729 204
Width: 261
Flags: W
HStem: 630 133<64 197>
VStem: 64 133<630 763>
LayerCount: 2
Fore
SplineSet
64 630 m 1
 64 630 64 763 64 763 c 1
 64 763 197 763 197 763 c 1
 197 763 197 630 197 630 c 1
 197 630 64 630 64 630 c 1
EndSplineSet
Validated: 1
EndChar

StartChar: ring
Encoding: 730 730 205
Width: 334
Flags: W
HStem: 610 67<133.867 200.133> 749 67<134.112 199.19>
VStem: 64 67<679.867 746.133> 203 67<679.867 745.765>
LayerCount: 2
Fore
SplineSet
168 816 m 0
 224 816 270 769 270 713 c 0
 270 656 224 610 167 610 c 0
 110 610 64 656 64 713 c 0
 64 770 110 816 168 816 c 0
166 749 m 0
 147 749 131 733 131 713 c 0
 131 693 147 677 167 677 c 0
 187 677 203 693 203 713 c 0
 203 733 187 749 166 749 c 0
EndSplineSet
Validated: 1
EndChar

StartChar: acute
Encoding: 180 180 206
Width: 406
Flags: W
HStem: 613 212
VStem: 64 278
LayerCount: 2
Fore
SplineSet
115 613 m 1
 115 613 64 691 64 691 c 1
 64 691 288 825 288 825 c 1
 288 825 342 733 342 733 c 1
 342 733 115 613 115 613 c 1
EndSplineSet
Validated: 1
EndChar

StartChar: grave
Encoding: 96 96 207
Width: 407
Flags: W
HStem: 613 212
VStem: 64 279
LayerCount: 2
Fore
SplineSet
64 737 m 1
 64 737 121 825 121 825 c 1
 121 825 343 692 343 692 c 1
 343 692 290 613 290 613 c 1
 290 613 64 737 64 737 c 1
EndSplineSet
Validated: 1
EndChar

StartChar: circumflex
Encoding: 710 710 208
Width: 527
Flags: W
HStem: 630 138
LayerCount: 2
Fore
SplineSet
64 630 m 1
 64 630 211 768 211 768 c 1
 211 768 318 768 318 768 c 1
 318 768 463 630 463 630 c 1
 463 630 318 630 318 630 c 1
 318 630 265 694 265 694 c 1
 265 694 211 630 211 630 c 1
 211 630 64 630 64 630 c 1
EndSplineSet
Validated: 1
EndChar

StartChar: caron
Encoding: 711 711 209
Width: 527
Flags: W
HStem: 630 138
LayerCount: 2
Fore
SplineSet
64 768 m 1
 64 768 211 768 211 768 c 1
 211 768 265 704 265 704 c 1
 265 704 318 768 318 768 c 1
 318 768 463 768 463 768 c 1
 463 768 318 630 318 630 c 1
 318 630 211 630 211 630 c 1
 211 630 64 768 64 768 c 1
EndSplineSet
Validated: 1
EndChar

StartChar: breve
Encoding: 728 728 210
Width: 458
Flags: W
HStem: 630 96<176.908 281.656>
VStem: 64 330
LayerCount: 2
Fore
SplineSet
64 769 m 1
 64 769 162 769 162 769 c 1
 174 740 196 726 230 726 c 0
 265 726 287 741 292 769 c 1
 292 769 394 769 394 769 c 1
 391 685 325 630 230 630 c 0
 131 630 70 681 64 769 c 1
EndSplineSet
Validated: 1
Substitution2: "'locl' Cyrillic localized forms-1" breve.cyrlc
EndChar

StartChar: tilde
Encoding: 732 732 211
Width: 459
Flags: W
HStem: 636 102<214.924 345.54> 661 102<108.292 250.435>
VStem: 64 331
LayerCount: 2
Fore
SplineSet
118 636 m 1xa0
 118 636 64 716 64 716 c 1
 99 751 125 763 167 763 c 0x60
 189 763 198 761 227 749 c 0
 247 741 260 738 274 738 c 0
 300 738 320 748 341 772 c 1
 341 772 395 691 395 691 c 1
 363 652 336 636 301 636 c 0xa0
 286 636 268 640 242 649 c 0
 215 659 205 661 188 661 c 0x60
 162 661 156 659 118 636 c 1xa0
EndSplineSet
Validated: 1
EndChar

StartChar: hungarumlaut
Encoding: 733 733 212
Width: 683
Flags: W
HStem: 613 212
LayerCount: 2
Fore
SplineSet
64 682 m 1
 64 682 274 825 274 825 c 1
 274 825 336 745 336 745 c 1
 336 745 114 613 114 613 c 1
 114 613 64 682 64 682 c 1
347 682 m 1
 347 682 558 825 558 825 c 1
 558 825 619 745 619 745 c 1
 619 745 398 613 398 613 c 1
 398 613 347 682 347 682 c 1
EndSplineSet
Validated: 1
EndChar

StartChar: cedilla
Encoding: 184 184 213
Width: 324
Flags: W
HStem: -251 55<129.765 194.998> -106 55<140.358 196.233> -20 20G<109 161>
VStem: 202 58<-190.739 -110.58>
LayerCount: 2
Fore
SplineSet
109 0 m 1
 109 0 161 0 161 0 c 1
 161 0 140 -58 140 -58 c 1
 153 -53 160 -51 169 -51 c 0
 219 -51 260 -97 260 -152 c 0
 260 -211 221 -251 164 -251 c 0
 113 -251 72 -216 64 -166 c 1
 64 -166 125 -166 125 -166 c 1
 134 -186 146 -196 163 -196 c 0
 185 -196 202 -175 202 -150 c 0
 202 -126 185 -106 164 -106 c 0
 149 -106 139 -113 125 -133 c 1
 125 -133 73 -107 73 -107 c 1
 73 -107 109 0 109 0 c 1
EndSplineSet
Validated: 1
EndChar

StartChar: ogonek
Encoding: 731 731 214
Width: 310
Flags: W
HStem: -204 81<160.975 245.02> -20 20G<121.5 220>
VStem: 64 91<-115.937 -46.3415>
LayerCount: 2
Fore
SplineSet
150 0 m 1
 150 0 220 0 220 0 c 1
 169 -36 155 -54 155 -81 c 0
 155 -105 176 -123 205 -123 c 0
 217 -123 227 -121 246 -113 c 1
 246 -113 246 -190 246 -190 c 1
 223 -200 202 -204 180 -204 c 0
 111 -204 64 -164 64 -105 c 0
 64 -62 93 -27 150 0 c 1
EndSplineSet
Validated: 1
EndChar

StartChar: macron
Encoding: 175 175 215
Width: 405
Flags: W
HStem: 648 100<64 341>
VStem: 64 277<648 748>
LayerCount: 2
Fore
SplineSet
64 648 m 1
 64 648 64 748 64 748 c 1
 64 748 341 748 341 748 c 1
 341 748 341 648 341 648 c 1
 341 648 64 648 64 648 c 1
EndSplineSet
Validated: 1
EndChar

StartChar: copyright
Encoding: 169 169 216
Width: 791
Flags: W
HStem: -13 80<282.316 504.189> 157 93<335.886 460.985> 494 93<334.338 461.728> 675 77<282.53 505.035>
VStem: 10 80<261.726 477.983> 183 105<300.752 446.58> 701 80<261.501 482.177>
LayerCount: 2
Fore
SplineSet
499 320 m 1
 499 320 610 320 610 320 c 1
 586 222 502 157 401 157 c 0
 279 157 183 252 183 372 c 0
 183 493 278 587 400 587 c 0
 502 587 594 515 610 422 c 1
 610 422 499 422 499 422 c 1
 483 466 444 494 399 494 c 0
 336 494 288 442 288 373 c 0
 288 304 336 250 399 250 c 0
 443 250 477 274 499 320 c 1
400 752 m 0
 609 752 781 579 781 369 c 0
 781 158 608 -13 396 -13 c 0
 183 -13 10 158 10 369 c 0
 10 583 182 752 400 752 c 0
392 675 m 0
 227 675 90 537 90 370 c 0
 90 203 227 67 395 67 c 0
 564 67 701 203 701 369 c 0
 701 540 565 675 392 675 c 0
EndSplineSet
Validated: 1
EndChar

StartChar: registered
Encoding: 174 174 217
Width: 791
Flags: W
HStem: -13 80<282.316 504.189> 486 93<352 446.873> 675 77<282.53 505.035>
VStem: 10 80<261.726 477.983> 251 101<166 300 372 486> 458 101<384.32 473.781> 701 80<261.501 482.177>
LayerCount: 2
Fore
SplineSet
251 166 m 1
 251 166 251 579 251 579 c 1
 251 579 382 579 382 579 c 2
 451 579 480 572 508 549 c 0
 540 524 559 481 559 437 c 0
 559 369 519 318 457 307 c 1
 457 307 569 166 569 166 c 1
 569 166 448 166 448 166 c 1
 448 166 352 300 352 300 c 1
 352 300 352 166 352 166 c 1
 352 166 251 166 251 166 c 1
352 372 m 1
 352 372 389 372 389 372 c 2
 433 372 458 393 458 430 c 0
 458 466 434 486 390 486 c 2
 390 486 352 486 352 486 c 1
 352 486 352 372 352 372 c 1
400 752 m 0
 609 752 781 579 781 369 c 0
 781 158 608 -13 396 -13 c 0
 183 -13 10 158 10 369 c 0
 10 583 182 752 400 752 c 0
392 675 m 0
 227 675 90 537 90 370 c 0
 90 203 227 67 395 67 c 0
 564 67 701 203 701 369 c 0
 701 540 565 675 392 675 c 0
EndSplineSet
Validated: 1
EndChar

StartChar: bullet
Encoding: 8226 8226 220
Width: 600
Flags: W
HStem: 147 337<219.8 379.406>
VStem: 131 337<235.269 395.731>
LayerCount: 2
Fore
SplineSet
302 484 m 0
 393 484 468 408 468 316 c 0
 468 222 392 147 299 147 c 0
 207 147 131 223 131 315 c 0
 131 409 206 484 302 484 c 0
EndSplineSet
Validated: 1
EndChar

StartChar: less
Encoding: 60 60 221
Width: 600
Flags: W
LayerCount: 2
Fore
SplineSet
553 582 m 1
 553 582 553 465 553 465 c 1
 553 465 212 308 212 308 c 1
 212 308 553 149 553 149 c 1
 553 149 553 33 553 33 c 1
 553 33 44 258 44 258 c 1
 44 258 44 356 44 356 c 1
 44 356 553 582 553 582 c 1
EndSplineSet
Validated: 1
EndChar

StartChar: greater
Encoding: 62 62 222
Width: 600
Flags: W
LayerCount: 2
Fore
SplineSet
47 33 m 1
 47 33 47 149 47 149 c 1
 47 149 389 306 389 306 c 1
 389 306 47 465 47 465 c 1
 47 465 47 582 47 582 c 1
 47 582 556 356 556 356 c 1
 556 356 556 258 556 258 c 1
 556 258 47 33 47 33 c 1
EndSplineSet
Validated: 1
EndChar

StartChar: logicalnot
Encoding: 172 172 223
Width: 600
Flags: W
HStem: 359 114<44 434>
VStem: 434 114<182 359>
LayerCount: 2
Fore
SplineSet
44 473 m 1
 44 473 548 473 548 473 c 1
 548 473 548 182 548 182 c 1
 548 182 434 182 434 182 c 1
 434 182 434 359 434 359 c 1
 434 359 44 359 44 359 c 1
 44 359 44 473 44 473 c 1
EndSplineSet
Validated: 1
EndChar

StartChar: asciicircum
Encoding: 94 94 224
Width: 600
Flags: W
HStem: 719 20G<239 361>
LayerCount: 2
Fore
SplineSet
164 313 m 1
 164 313 60 363 60 363 c 1
 60 363 239 739 239 739 c 1
 239 739 361 739 361 739 c 1
 361 739 540 363 540 363 c 1
 540 363 436 313 436 313 c 1
 436 313 300 589 300 589 c 1
 300 589 164 313 164 313 c 1
EndSplineSet
Validated: 1
EndChar

StartChar: bar
Encoding: 124 124 225
Width: 599
Flags: W
HStem: 0 21G<240 359> 719 20G<240 359>
VStem: 240 119<0 739>
LayerCount: 2
Fore
SplineSet
359 739 m 1
 359 739 359 0 359 0 c 1
 359 0 240 0 240 0 c 1
 240 0 240 739 240 739 c 1
 240 739 359 739 359 739 c 1
EndSplineSet
Validated: 1
EndChar

StartChar: brokenbar
Encoding: 166 166 226
Width: 600
Flags: W
HStem: 0 21G<240 359> 719 20G<240 359>
VStem: 240 119<0 302 437 739>
LayerCount: 2
Fore
SplineSet
359 739 m 1
 359 739 359 437 359 437 c 1
 359 437 240 437 240 437 c 1
 240 437 240 739 240 739 c 1
 240 739 359 739 359 739 c 1
359 302 m 1
 359 302 359 0 359 0 c 1
 359 0 240 0 240 0 c 1
 240 0 240 302 240 302 c 1
 240 302 359 302 359 302 c 1
EndSplineSet
Validated: 1
EndChar

StartChar: underscore
Encoding: 95 95 227
Width: 500
Flags: W
HStem: -138 90<0 500>
LayerCount: 2
Fore
SplineSet
0 -48 m 1
 0 -48 500 -48 500 -48 c 1
 500 -48 500 -138 500 -138 c 1
 500 -138 0 -138 0 -138 c 1
 0 -138 0 -48 0 -48 c 1
EndSplineSet
Validated: 1
EndChar

StartChar: asciitilde
Encoding: 126 126 228
Width: 600
Flags: W
HStem: 230 117<340.429 450.431> 295 117<150.951 268.515>
LayerCount: 2
Fore
SplineSet
488 421 m 1x80
 488 421 552 347 552 347 c 1
 500 262 461 230 407 230 c 0x80
 386 230 352 239 316 254 c 2
 316 254 262 276 262 276 c 2
 226 291 213 295 198 295 c 0
 179 295 163 287 149 271 c 0
 145 266 145 266 118 224 c 0
 115 221 113 217 111 214 c 2
 111 214 48 289 48 289 c 1
 72 330 80 342 96 361 c 0
 121 393 158 412 196 412 c 0x40
 220 412 248 406 273 396 c 2
 273 396 340 369 340 369 c 2
 394 347 394 347 411 347 c 0
 434 347 463 374 488 421 c 1x80
EndSplineSet
Validated: 1
EndChar

StartChar: mu
Encoding: 181 181 229
Width: 601
Flags: W
HStem: -185 21G<54 187> -13 122<241.42 370.404> 0 21G<424 547> 534 20G<54 187 414 547>
VStem: 54 133<-185 52 166.154 554> 414 133<154.507 554> 424 123<0 53>
LayerCount: 2
Fore
SplineSet
187 52 m 1xda
 187 52 187 -185 187 -185 c 1
 187 -185 54 -185 54 -185 c 1
 54 -185 54 554 54 554 c 1
 54 554 187 554 187 554 c 1
 187 554 187 293 187 293 c 2
 187 211 190 192 211 162 c 0
 234 128 268 109 306 109 c 0
 345 109 380 129 397 162 c 0
 409 187 414 222 414 293 c 2
 414 293 414 554 414 554 c 1
 414 554 547 554 547 554 c 1xdc
 547 554 547 0 547 0 c 1
 547 0 424 0 424 0 c 1xba
 424 0 424 53 424 53 c 1
 384 5 351 -13 300 -13 c 0
 253 -13 220 6 187 52 c 1xda
EndSplineSet
Validated: 1
EndChar

StartChar: breve.cyrlc
Encoding: 57472 57472 250
Width: 470
Flags: W
HStem: 616 59<183.052 286.948> 726 20G<70 171 299 400>
VStem: 70 101<687.719 746> 299 101<687.719 746>
LayerCount: 2
Fore
SplineSet
70 746 m 1
 70 746 171 746 171 746 c 1
 171 696 190 675 235 675 c 7
 280 675 299 696 299 746 c 1
 299 746 400 746 400 746 c 1
 385 656 326 616 235 616 c 3
 144 616 85 656 70 746 c 1
EndSplineSet
Validated: 1
EndChar

StartChar: breve.cyruc
Encoding: 57473 57473 251
Width: 494
Flags: W
HStem: 796 65<198.229 295.771>
VStem: 70 115<875.145 937> 309 115<875.145 937>
LayerCount: 2
Fore
SplineSet
70 937 m 1
 70 937 185 937 185 937 c 1
 185 882 206 861 247 861 c 3
 288 861 309 882 309 937 c 1
 309 937 424 937 424 937 c 1
 408 842 337 796 247 796 c 3
 157 796 86 842 70 937 c 1
EndSplineSet
Validated: 1
EndChar

StartChar: uni0411
Encoding: 1041 1041 252
Width: 599
Flags: W
HStem: 0 131<208 382.875> 331 131<208 380.807> 608 131<208 516>
VStem: 71 137<131 331 462 608> 425 138<169.777 290.365>
AnchorPoint: "Top" 281 805 basechar 0
LayerCount: 2
Fore
SplineSet
208 331 m 1
 208 131 l 1
 258 131 l 2
 307 131 330 134 354 139 c 0
 398 150 425 186 425 233 c 0
 425 275 398 309 355 320 c 0
 330 327 296 331 252 331 c 2
 208 331 l 1
208 608 m 1
 208 462 l 1
 254 462 l 2
 361 462 411 455 454 432 c 0
 522 396 563 318 563 230 c 0
 563 146 527 77 464 38 c 0
 418 9 363 0 256 0 c 2
 71 0 l 1
 71 739 l 1
 219 739 368 739 516 739 c 1
 516 608 l 1
 208 608 l 1
EndSplineSet
Validated: 1
EndChar

StartChar: uni0413
Encoding: 1043 1043 253
Width: 467
Flags: W
HStem: 0 21G<71 208> 608 131<208 460>
VStem: 71 137<0 608>
AnchorPoint: "Top" 265 805 basechar 0
LayerCount: 2
Fore
SplineSet
460 608 m 25
 460 608 208 608 208 608 c 25
 208 608 208 0 208 0 c 17
 208 0 71 0 71 0 c 1
 71 0 71 739 71 739 c 9
 71 739 460 739 460 739 c 1
 460 739 460 608 460 608 c 25
EndSplineSet
Validated: 1
EndChar

StartChar: uni0414
Encoding: 1044 1044 254
Width: 840
Flags: W
HStem: -145 276<14 110 730 826> 0 131<254 586> 719 20G<365 475>
VStem: 14 96<-145 -108.75> 730 96<-145 -108.75>
AnchorPoint: "Top" 420 805 basechar 0
LayerCount: 2
Fore
SplineSet
826 -145 m 1xb8
 826 -145 730 -145 730 -145 c 1xb8
 730 -145 702 0 702 0 c 1
 702 0 138 0 138 0 c 1x78
 138 0 110 -145 110 -145 c 1
 110 -145 14 -145 14 -145 c 1
 14 -145 14 131 14 131 c 1xb8
 14 131 112 131 112 131 c 1
 112 131 365 739 365 739 c 1
 365 739 475 739 475 739 c 1
 475 739 728 131 728 131 c 1x78
 728 131 826 131 826 131 c 1
 826 131 826 -145 826 -145 c 1xb8
254 131 m 1x78
 254 131 586 131 586 131 c 1
 586 131 420 536 420 536 c 5
 420 536 254 131 254 131 c 1x78
EndSplineSet
Validated: 1
EndChar

StartChar: uni0416
Encoding: 1046 1046 255
Width: 913
Flags: W
HStem: 0 21G<12 175 388 525 738 901> 719 20G<12 175 388 525 738 901>
VStem: 388 137<0 345 400 739>
AnchorPoint: "Top" 456 805 basechar 0
LayerCount: 2
Fore
SplineSet
525 400 m 1
 525 400 738 739 738 739 c 1
 738 739 901 739 901 739 c 1
 901 739 654 376 654 376 c 1
 654 376 901 0 901 0 c 1
 901 0 738 0 738 0 c 1
 738 0 525 345 525 345 c 1
 525 345 525 0 525 0 c 1
 525 0 388 0 388 0 c 1
 388 0 388 345 388 345 c 1
 388 345 175 0 175 0 c 1
 175 0 12 0 12 0 c 1
 12 0 259 376 259 376 c 1
 259 376 12 739 12 739 c 1
 12 739 175 739 175 739 c 5
 175 739 388 400 388 400 c 1
 388 400 388 739 388 739 c 1
 388 739 525 739 525 739 c 1
 525 739 525 400 525 400 c 1
EndSplineSet
Validated: 1
EndChar

StartChar: uni0417
Encoding: 1047 1047 256
Width: 554
Flags: W
HStem: -13 132<211.661 336.339> 330 120<224 326.255> 621 131<217.351 330.649>
VStem: 30 138<161.382 225> 362 133<481.985 590.181> 380 138<160.692 291.772>
AnchorPoint: "Top" 276 805 basechar 0
LayerCount: 2
Fore
SplineSet
224 330 m 1xf4
 224 330 224 450 224 450 c 1
 294 450 362 467 362 535 c 3
 362 582 323 621 274 621 c 3
 225 621 186 582 186 535 c 1
 186 535 53 535 53 535 c 1
 53 655 151 752 274 752 c 3
 397 752 495 655 495 535 c 3xf8
 495 475 464 414 401 394 c 1
 469 370 518 293 518 225 c 3
 518 94 409 -13 274 -13 c 3
 139 -13 30 94 30 225 c 1
 30 225 168 225 168 225 c 1
 168 166 215 119 274 119 c 3
 333 119 380 166 380 225 c 3
 380 304 327 330 224 330 c 1xf4
EndSplineSet
Validated: 1
EndChar

StartChar: uni0418
Encoding: 1048 1048 257
Width: 738
Flags: W
HStem: 0 21G<71 210 531 667> 719 20G<71 207 528 667>
VStem: 71 136<227 739> 531 136<0 512>
AnchorPoint: "Top" 369 805 basechar 0
LayerCount: 2
Fore
SplineSet
528 739 m 1
 528 739 667 739 667 739 c 1
 667 739 667 0 667 0 c 1
 667 0 531 0 531 0 c 1
 531 0 531 512 531 512 c 1
 531 512 210 0 210 0 c 1
 210 0 71 0 71 0 c 1
 71 0 71 739 71 739 c 1
 71 739 207 739 207 739 c 9
 207 739 207 227 207 227 c 25
 207 227 528 739 528 739 c 1
EndSplineSet
Validated: 1
EndChar

StartChar: uni041B
Encoding: 1051 1051 259
Width: 740
Flags: W
HStem: 0 21G<7 155 585 733> 719 20G<316 424>
AnchorPoint: "Top" 370 805 basechar 0
LayerCount: 2
Fore
SplineSet
370 551 m 5
 370 551 155 0 155 0 c 1
 155 0 7 0 7 0 c 1
 7 0 316 739 316 739 c 1
 316 739 424 739 424 739 c 1
 424 739 733 0 733 0 c 1
 733 0 585 0 585 0 c 1
 585 0 370 551 370 551 c 5
EndSplineSet
Validated: 1
EndChar

StartChar: uni041F
Encoding: 1055 1055 260
Width: 666
Flags: W
HStem: 0 21G<71 208 458 595> 608 131<208 458>
VStem: 71 137<0 608> 458 137<0 608>
AnchorPoint: "Top" 333 805 basechar 0
LayerCount: 2
Fore
SplineSet
71 0 m 1
 71 0 71 739 71 739 c 5
 71 739 595 739 595 739 c 1
 595 739 595 0 595 0 c 1
 595 0 458 0 458 0 c 1
 458 0 458 608 458 608 c 1
 458 608 208 608 208 608 c 1
 208 608 208 0 208 0 c 1
 208 0 71 0 71 0 c 1
EndSplineSet
Validated: 1
EndChar

StartChar: uni0423
Encoding: 1059 1059 261
Width: 599
Flags: W
HStem: 0 21G<155 285> 719 20G<4 152 447 595>
AnchorPoint: "Top" 299 805 basechar 0
LayerCount: 2
Back
SplineSet
291.499023438 49.189453125 m 5
 291.499023438 49.189453125 4 739 4 739 c 5
 4 739 152 739 152 739 c 5
 152 739 361.333007812 199.833007812 361.333007812 199.833007812 c 5
 361.333007812 199.833007812 291.499023438 49.189453125 291.499023438 49.189453125 c 5
285 0 m 5
 285 0 154.583007812 0 154.583007812 0 c 5
 154.583007812 0 447 739 447 739 c 5
 447 739 595 739 595 739 c 5
 595 739 285 0 285 0 c 5
EndSplineSet
Fore
SplineSet
285 0 m 1
 285 0 155 0 155 0 c 1
 155 0 231 194 231 194 c 1
 231 194 4 739 4 739 c 1
 4 739 152 739 152 739 c 1
 152 739 298 363 298 363 c 1
 298 363 447 739 447 739 c 1
 447 739 595 739 595 739 c 1
 595 739 285 0 285 0 c 1
EndSplineSet
Validated: 1
EndChar

StartChar: uni0424
Encoding: 1060 1060 262
Width: 811
Flags: W
HStem: 0 21G<337 474> 57 134<280.978 337 474 530.283> 560 135<280.978 337 474 530.283> 719 20G<337 474>
VStem: 30 138<295.212 456.661> 337 137<0 59.8308 191 560 692.169 739> 643 138<295.212 456.788>
CounterMasks: 1 0e
AnchorPoint: "Top" 405 805 basechar 0
LayerCount: 2
Back
SplineSet
406 700 m 0
 616 700 781 558 781 376 c 4
 781 194 616 52 406 52 c 0
 196 52 30 194 30 376 c 0
 30 558 196 700 406 700 c 0
406 568 m 0
 271 568 168 484 168 376 c 0
 168 268 271 183 406 183 c 0
 541 183 643 268 643 376 c 4
 643 484 541 568 406 568 c 0
474 739 m 25
 474 739 474 0 474 0 c 17
 474 0 337 0 337 0 c 1
 337 0 337 739 337 739 c 9
 337 739 474 739 474 739 c 25
EndSplineSet
Fore
SplineSet
474 561 m 1
 474 561 474 191 474 191 c 1
 574 214 643 287 643 376 c 3
 643 465 574 538 474 561 c 1
337 191 m 1
 337 191 337 560 337 560 c 1
 237 537 168 465 168 376 c 3
 168 287 237 214 337 191 c 1
337 695 m 1
 337 695 337 739 337 739 c 1
 337 739 474 739 474 739 c 1
 474 739 474 695 474 695 c 1
 651 668 781 538 781 376 c 3
 781 214 651 84 474 57 c 1
 474 57 474 0 474 0 c 1
 474 0 337 0 337 0 c 1
 337 0 337 57 337 57 c 1
 161 84 30 214 30 376 c 3
 30 538 161 668 337 695 c 1
EndSplineSet
Validated: 1
EndChar

StartChar: uni0426
Encoding: 1062 1062 263
Width: 717
Flags: W
HStem: 0 131<208 448> 719 20G<71 208 448 585>
VStem: 71 137<131 739> 448 137<131 739> 599 96<-145 -108.75>
AnchorPoint: "Top" 328 805 basechar 0
LayerCount: 2
Fore
SplineSet
448 739 m 17
 448 739 585 739 585 739 c 1
 585 739 585 131 585 131 c 1
 585 131 695 131 695 131 c 1
 695 131 695 -145 695 -145 c 1
 695 -145 599 -145 599 -145 c 1
 599 -145 571 0 571 0 c 9
 571 0 71 0 71 0 c 1
 71 0 71 739 71 739 c 1
 71 739 208 739 208 739 c 1
 208 739 208 131 208 131 c 25
 208 131 448 131 448 131 c 25
 448 131 448 739 448 739 c 17
EndSplineSet
Validated: 1
EndChar

StartChar: uni0427
Encoding: 1063 1063 264
Width: 627
Flags: W
HStem: 0 21G<419 556> 267 131<220.724 416.939> 719 20G<50 187 419 556>
VStem: 50 137<437.033 739> 419 137<0 283 405.014 739>
AnchorPoint: "Top" 311 805 basechar 0
LayerCount: 2
Fore
SplineSet
50 739 m 25
 187 739 l 25
 187 525 l 2
 187 434 216 398 296 398 c 3
 348 398 382 401 419 409 c 1
 419 739 l 1
 556 739 l 1
 556 0 l 1
 419 0 l 1
 419 283 l 1
 368 274 319 267 272 267 c 7
 147 267 50 315 50 490 c 2
 50 739 l 25
EndSplineSet
Validated: 1
EndChar

StartChar: uni0428
Encoding: 1064 1064 265
Width: 895
Flags: W
HStem: 0 131<208 379 516 687> 719 20G<71 208 379 516 687 824>
VStem: 71 137<131 739> 379 137<131 739> 687 137<131 739>
CounterMasks: 1 38
AnchorPoint: "Top" 447 805 basechar 0
LayerCount: 2
Fore
SplineSet
824 0 m 9
 824 0 71 0 71 0 c 1
 71 0 71 739 71 739 c 1
 71 739 208 739 208 739 c 1
 208 739 208 131 208 131 c 17
 208 131 379 131 379 131 c 1
 379 131 379 739 379 739 c 1
 379 739 516 739 516 739 c 1
 516 739 516 131 516 131 c 1
 516 131 687 131 687 131 c 9
 687 131 687 739 687 739 c 17
 687 739 824 739 824 739 c 1
 824 739 824 0 824 0 c 9
EndSplineSet
Validated: 1
EndChar

StartChar: uni0429
Encoding: 1065 1065 266
Width: 956
Flags: MW
HStem: 0 131<208 379 516 687> 719 20G<71 208 379 516 687 824>
VStem: 71 137<131 739> 379 137<131 739> 687 137<131 739>
CounterMasks: 1 38
AnchorPoint: "Top" 447 805 basechar 0
LayerCount: 2
Fore
SplineSet
824 131 m 1
 824 131 934 131 934 131 c 1
 934 131 934 -145 934 -145 c 5
 934 -145 838 -145 838 -145 c 5
 838 -145 810 0 810 0 c 1
 810 0 71 0 71 0 c 1
 71 0 71 739 71 739 c 1
 71 739 208 739 208 739 c 1
 208 739 208 131 208 131 c 1
 208 131 379 131 379 131 c 1
 379 131 379 739 379 739 c 1
 379 739 516 739 516 739 c 1
 516 739 516 131 516 131 c 1
 516 131 687 131 687 131 c 1
 687 131 687 739 687 739 c 1
 687 739 824 739 824 739 c 1
 824 739 824 131 824 131 c 1
EndSplineSet
Validated: 1
EndChar

StartChar: uni042A
Encoding: 1066 1066 267
Width: 711
Flags: W
HStem: 0 131<309 502.997> 319 131<309 500.989> 608 131<7 172>
VStem: 172 137<131 319 450 608> 546 138<168.664 279.433>
AnchorPoint: "Top" 240 805 basechar 0
LayerCount: 2
Fore
SplineSet
309 319 m 1
 309 131 l 1
 364 131 l 2
 418 131 443 133 469 138 c 0
 517 149 546 182 546 227 c 0
 546 267 517 298 470 309 c 0
 443 316 405 319 357 319 c 2
 309 319 l 1
172 608 m 1
 172 608 7 608 7 608 c 1
 7 608 7 739 7 739 c 1
 7 739 309 739 309 739 c 1
 309 450 l 1
 358 450 l 2
 471 450 524 443 569 421 c 0
 641 386 684 310 684 224 c 0
 684 142 646 75 579 37 c 0
 530 9 473 0 360 0 c 2
 172 0 l 1
 172 608 l 1
EndSplineSet
Validated: 1
EndChar

StartChar: uni042B
Encoding: 1067 1067 268
Width: 865
Flags: W
HStem: 0 131<208 401.997> 319 131<208 399.989> 719 20G<71 208 657 794>
VStem: 71 137<131 319 450 739> 445 138<168.664 279.433> 657 137<0 739>
AnchorPoint: "Top" 432 805 basechar 0
LayerCount: 2
Fore
SplineSet
71 739 m 5
 208 739 l 5
 208 450 l 5
 257 450 l 6
 370 450 423 443 468 421 c 4
 540 386 583 310 583 224 c 4
 583 142 545 75 478 37 c 4
 429 9 372 0 259 0 c 6
 71 0 l 5
 71 739 l 5
208 319 m 5
 208 131 l 5
 263 131 l 6
 317 131 342 133 368 138 c 4
 416 149 445 182 445 227 c 4
 445 267 416 298 369 309 c 4
 342 316 304 319 256 319 c 6
 208 319 l 5
794 739 m 25
 794 739 794 0 794 0 c 17
 794 0 657 0 657 0 c 1
 657 0 657 739 657 739 c 9
 657 739 794 739 794 739 c 25
EndSplineSet
Validated: 1
EndChar

StartChar: uni042C
Encoding: 1068 1068 269
Width: 610
Flags: W
HStem: 0 131<208 401.997> 319 131<208 399.989> 719 20G<71 208>
VStem: 71 137<131 319 450 739> 445 138<168.664 279.433>
AnchorPoint: "Top" 139 805 basechar 0
LayerCount: 2
Fore
SplineSet
71 739 m 1
 208 739 l 1
 208 450 l 1
 257 450 l 2
 370 450 423 443 468 421 c 0
 540 386 583 310 583 224 c 0
 583 142 545 75 478 37 c 0
 429 9 372 0 259 0 c 2
 71 0 l 1
 71 739 l 1
208 319 m 1
 208 131 l 1
 263 131 l 2
 317 131 342 133 368 138 c 0
 416 149 445 182 445 227 c 0
 445 267 416 298 369 309 c 0
 342 316 304 319 256 319 c 2
 208 319 l 1
EndSplineSet
Validated: 1
EndChar

StartChar: uni042D
Encoding: 1069 1069 270
Width: 802
Flags: W
HStem: -13 132<281.41 477.794> 307 131<256 619> 620 132<275.588 485.093>
VStem: 256 510<313.052 429.67>
AnchorPoint: "Top" 382 805 basechar 0
LayerCount: 2
Back
SplineSet
256 307 m 5
 256 307 256 438 256 438 c 5
 256 438 702 438 702 438 c 5
 702 438 702 307 702 307 c 5
 702 307 256 307 256 307 c 5
197 206 m 5
 258 143 309 119 380 119 c 4
 517 119 628 233 628 371 c 4
 628 431 605 495 567 539 c 4
 522 592 459 620 383 620 c 4
 297 620 239 592 189 527 c 5
 189 527 36 527 36 527 c 5
 64 589 88 622 135 662 c 4
 204 720 293 752 386 752 c 4
 595 752 766 581 766 372 c 4
 766 158 593 -13 377 -13 c 4
 225 -13 94 71 36 206 c 5
 36 206 197 206 197 206 c 5
EndSplineSet
Fore
SplineSet
197 206 m 1
 258 143 309 119 380 119 c 0
 495 119 592 199 620 307 c 1
 620 307 256 307 256 307 c 1
 256 307 256 438 256 438 c 1
 256 438 619 438 619 438 c 1
 609 476 591 511 567 539 c 0
 522 592 459 620 383 620 c 0
 297 620 239 592 189 527 c 1
 189 527 36 527 36 527 c 1
 64 589 88 622 135 662 c 0
 204 720 293 752 386 752 c 0
 595 752 766 581 766 372 c 0
 766 158 593 -13 377 -13 c 0
 225 -13 94 71 36 206 c 1
 36 206 197 206 197 206 c 1
EndSplineSet
Validated: 1
EndChar

StartChar: uni042E
Encoding: 1070 1070 271
Width: 1109
Flags: W
HStem: -19 132<585.662 787.072> 0 21G<71 208> 310 131<208 298.018> 626 132<581.283 785.554> 719 20G<71 208>
VStem: 71 137<0 310 441 739> 295 134<269.094 310 441 469.906> 935 138<261.436 476.332>
AnchorPoint: "Top" 605 805 basechar 0
LayerCount: 2
Back
SplineSet
139 310 m 1x21c0
 139 310 139 441 139 441 c 1
 139 441 367 441 367 441 c 1
 367 441 367 310 367 310 c 1
 367 310 139 310 139 310 c 1x21c0
208 739 m 25x6a40
 208 739 208 0 208 0 c 17
 208 0 71 0 71 0 c 1
 71 0 71 739 71 739 c 9
 71 739 208 739 208 739 c 25x6a40
688 758 m 0xb0c0
 901 758 1073 584 1073 370 c 0
 1073 151 904 -19 686 -19 c 0
 466 -19 291 152 291 369 c 0
 291 588 464 758 688 758 c 0xb0c0
679 626 m 0
 541 626 429 512 429 370 c 0xb440
 429 226 542 113 685 113 c 0
 828 113 935 222 935 368 c 0
 935 516 826 626 679 626 c 0
EndSplineSet
Fore
SplineSet
679 626 m 0xb7
 541 626 429 512 429 370 c 0
 429 226 542 113 685 113 c 0
 828 113 935 222 935 368 c 0
 935 516 826 626 679 626 c 0xb7
688 758 m 0
 901 758 1073 584 1073 370 c 0
 1073 151 904 -19 686 -19 c 0xb7
 486 -19 323 122 295 310 c 1
 295 310 208 310 208 310 c 1
 208 310 208 0 208 0 c 1
 208 0 71 0 71 0 c 1
 71 0 71 739 71 739 c 1
 71 739 208 739 208 739 c 1x6f
 208 739 208 441 208 441 c 1
 208 441 297 441 297 441 c 1
 330 624 489 758 688 758 c 0
EndSplineSet
Validated: 1
EndChar

StartChar: uni042F
Encoding: 1071 1071 272
Width: 605
Flags: W
HStem: 0 21G<22 192.06 397 534> 608 131<230.362 397>
VStem: 52 138<438.624 568.963> 397 137<0 267 398 608>
AnchorPoint: "Top" 300 805 basechar 0
LayerCount: 2
Back
SplineSet
251 368 m 5
 388 346 l 5
 180 0 l 5
 22 0 l 5
 251 368 l 5
534 0 m 5
 397 0 l 5
 397 267 l 5
 352 267 l 6
 248 267 199 275 158 298 c 4
 92 335 52 414 52 504 c 4
 52 589 87 660 149 700 c 4
 194 729 246 739 350 739 c 6
 534 739 l 5
 534 0 l 5
397 398 m 5
 397 608 l 5
 349 608 l 6
 302 608 279 605 257 600 c 4
 215 589 190 550 190 501 c 4
 190 457 215 420 256 409 c 4
 279 402 313 398 355 398 c 6
 397 398 l 5
EndSplineSet
Fore
SplineSet
397 398 m 1
 397 608 l 1
 349 608 l 2
 302 608 279 605 257 600 c 0
 215 589 190 550 190 501 c 0
 190 457 215 420 256 409 c 0
 279 402 313 398 355 398 c 2
 397 398 l 1
534 0 m 1
 397 0 l 1
 397 267 l 1
 341 267 l 1
 180 0 l 1
 22 0 l 1
 197 282 l 1
 182 286 170 291 158 298 c 0
 92 335 52 414 52 504 c 0
 52 589 87 660 149 700 c 0
 194 729 246 739 350 739 c 2
 534 739 l 1
 534 0 l 1
EndSplineSet
Validated: 1
EndChar

StartChar: uni0431
Encoding: 1073 1073 273
Width: 651
Flags: W
HStem: -13 122<248.496 405.263> 437 119<248.091 405.26>
VStem: 39 99<451 546.915> 489 134<192.534 352.994>
AnchorPoint: "Top" 329 840 basechar 0
LayerCount: 2
Fore
SplineSet
326 437 m 3
 240 437 168 364 168 274 c 3
 168 181 240 109 328 109 c 3
 417 109 489 181 489 273 c 3
 489 365 417 437 326 437 c 3
330 556 m 3
 491 556 623 430 623 273 c 3
 623 114 491 -13 329 -13 c 3
 231 -13 139 30 86 117 c 0
 41 191 39 302 39 415 c 3
 39 638 137 761 345 777 c 2
 586 796 l 1
 586 677 l 1
 350 657 l 2
 207 645 139 577 138 451 c 1
 140 450 l 1
 162 493 235 556 330 556 c 3
EndSplineSet
Validated: 1
Substitution2: "'locl' Serbian localized forms-1" uni0431.serbian
EndChar

StartChar: uni0432
Encoding: 1074 1074 274
Width: 541
VWidth: 0
Flags: W
HStem: 0 121<187 358.268> 237 97<187 353.065> 433 121<187 351.189>
VStem: 54 133<121 237 334 433> 364 127<346.905 419.539> 375 134<134.348 223.516>
AnchorPoint: "Top" 254 630 basechar 0
LayerCount: 2
Fore
SplineSet
187 433 m 25xf8
 187 433 187 334 187 334 c 25
 187 334 281 334 281 334 c 18
 337 334 364 354 364 384 c 3
 364 414 336 433 281 433 c 10
 281 433 187 433 187 433 c 25xf8
187 237 m 25
 187 237 187 121 187 121 c 25
 187 121 308 121 308 121 c 18
 348 121 375 144 375 179 c 3xf4
 375 214 348 237 308 237 c 10
 308 237 187 237 187 237 c 25
426 288 m 1
 466 273 509 238 509 179 c 3xf4
 509 81 432 0 317 0 c 10
 317 0 54 0 54 0 c 25
 54 0 54 554 54 554 c 25
 54 554 282 554 282 554 c 18
 403 554 491 498 491 384 c 3xf8
 491 340 460 302 426 288 c 1
EndSplineSet
Validated: 1
EndChar

StartChar: uni0433
Encoding: 1075 1075 275
Width: 386
Flags: W
HStem: 0 21G<54 187> 433 121<187 368>
VStem: 54 133<0 433>
AnchorPoint: "Top" 211 630 basechar 0
LayerCount: 2
Fore
SplineSet
368 554 m 1
 368 554 368 433 368 433 c 25
 368 433 187 433 187 433 c 25
 187 433 187 0 187 0 c 25
 187 0 54 0 54 0 c 17
 54 0 54 554 54 554 c 1
 54 554 368 554 368 554 c 1
EndSplineSet
Validated: 1
EndChar

StartChar: uni0434
Encoding: 1076 1076 276
Width: 676
Flags: W
HStem: -132 253<10 95 581 666> 0 121<233 443> 534 20G<280 396>
AnchorPoint: "Top" 338 630 basechar 0
LayerCount: 2
Fore
SplineSet
666 -132 m 5xa0
 666 -132 571 -132 571 -132 c 1xa0
 571 -132 543 0 543 0 c 1
 543 0 134 0 134 0 c 1x60
 134 0 106 -132 106 -132 c 1
 106 -132 10 -132 10 -132 c 1
 10 -132 10 121 10 121 c 1
 10 121 95 121 95 121 c 1
 95 121 280 554 280 554 c 1
 280 554 396 554 396 554 c 1
 396 554 581 121 581 121 c 1
 581 121 666 121 666 121 c 5
 666 121 666 -132 666 -132 c 5xa0
443 121 m 1x60
 443 121 338 371 338 371 c 1
 338 371 233 121 233 121 c 1
 233 121 443 121 443 121 c 1x60
EndSplineSet
Validated: 1
EndChar

StartChar: uni0436
Encoding: 1078 1078 277
Width: 819
Flags: W
HStem: 0 21G<2 164 343 476 655 817> 534 20G<14 169 343 476 650 805>
VStem: 343 133<0 258 296 554>
AnchorPoint: "Top" 409 630 basechar 0
LayerCount: 2
Fore
SplineSet
476 296 m 1
 476 296 650 554 650 554 c 1
 650 554 805 554 805 554 c 1
 805 554 606 279 606 279 c 1
 606 279 817 0 817 0 c 1
 817 0 655 0 655 0 c 1
 655 0 476 258 476 258 c 1
 476 258 476 0 476 0 c 1
 476 0 343 0 343 0 c 1
 343 0 343 258 343 258 c 1
 343 258 164 0 164 0 c 1
 164 0 2 0 2 0 c 1
 2 0 213 279 213 279 c 1
 213 279 14 554 14 554 c 1
 14 554 169 554 169 554 c 1
 169 554 343 296 343 296 c 1
 343 296 343 554 343 554 c 1
 343 554 476 554 476 554 c 1
 476 554 476 296 476 296 c 1
EndSplineSet
Validated: 1
EndChar

StartChar: uni0437
Encoding: 1079 1079 278
Width: 478
VWidth: 0
Flags: W
HStem: -13 122<178.135 292.369> 243 88<198 281.987> 447 121<182.922 283.458>
VStem: 297 129<346.377 433.093> 312 134<130.871 224.688>
AnchorPoint: "Top" 235 630 basechar 0
LayerCount: 2
Fore
SplineSet
198 243 m 1xe8
 198 331 l 1
 264 331 297 346 297 393 c 7
 297 422 270 447 235 447 c 7
 197 447 173 423 167 393 c 5
 42 393 l 21
 49 492 129 568 235 568 c 7
 341 568 426 490 426 393 c 7xf0
 426 349 396 303 347 292 c 1
 347 291 l 1
 402 277 446 227 446 175 c 3
 446 71 351 -13 235 -13 c 3
 119 -13 31 73 24 175 c 9
 156 175 l 1
 160 137 192 109 235 109 c 3
 278 109 312 138 312 175 c 3
 312 235 265 242 198 243 c 1xe8
EndSplineSet
Validated: 1
EndChar

StartChar: uni0438
Encoding: 1080 1080 279
Width: 623
Flags: W
HStem: 0 21G<54 189 437 569> 534 20G<54 186 434 569>
VStem: 54 132<188 554> 437 132<0 366>
AnchorPoint: "Top" 311 630 basechar 0
LayerCount: 2
Fore
SplineSet
434 554 m 1
 434 554 569 554 569 554 c 1
 569 554 569 0 569 0 c 1
 569 0 437 0 437 0 c 25
 437 0 437 366 437 366 c 25
 437 366 189 0 189 0 c 25
 189 0 54 0 54 0 c 17
 54 0 54 554 54 554 c 1
 54 554 186 554 186 554 c 1
 186 554 186 188 186 188 c 1
 186 188 434 554 434 554 c 1
EndSplineSet
Validated: 1
EndChar

StartChar: uni043A
Encoding: 1082 1082 281
Width: 554
Flags: W
HStem: 0 21G<54 187 379 552> 534 20G<54 187 379 540>
VStem: 54 133<0 255 299 554>
AnchorPoint: "Top" 305 630 basechar 0
LayerCount: 2
Fore
SplineSet
54 0 m 1
 54 0 54 554 54 554 c 1
 54 554 187 554 187 554 c 1
 187 554 187 299 187 299 c 1
 187 299 379 554 379 554 c 1
 379 554 540 554 540 554 c 1
 540 554 319 279 319 279 c 1
 319 279 552 0 552 0 c 1
 552 0 379 0 379 0 c 1
 379 0 187 255 187 255 c 1
 187 255 187 0 187 0 c 1
 187 0 54 0 54 0 c 1
EndSplineSet
Validated: 1
EndChar

StartChar: uni043B
Encoding: 1083 1083 282
Width: 572
Flags: W
HStem: 0 21G<3 145 427 569> 534 20G<234 338>
AnchorPoint: "Top" 286 630 basechar 0
LayerCount: 2
Fore
SplineSet
569 0 m 5
 569 0 427 0 427 0 c 5
 427 0 286 368 286 368 c 1
 286 368 145 0 145 0 c 1
 145 0 3 0 3 0 c 1
 3 0 234 554 234 554 c 1
 234 554 338 554 338 554 c 1
 338 554 569 0 569 0 c 5
EndSplineSet
Validated: 1
EndChar

StartChar: uni043C
Encoding: 1084 1084 283
Width: 746
Flags: W
HStem: 0 21G<54 187 559 692> 534 20G<54 206 540 692>
VStem: 54 133<0 366> 559 133<0 366>
AnchorPoint: "Top" 373 630 basechar 0
LayerCount: 2
Back
SplineSet
430 0 m 1
 430 0 316 0 316 0 c 1
 316 0 187 371 187 371 c 1
 187 371 187 0 187 0 c 1
 187 0 54 0 54 0 c 1
 54 0 54 554 54 554 c 1
 54 554 236 554 236 554 c 1
 236 554 373 168 373 168 c 1
 373 168 510 554 510 554 c 1
 510 554 692 554 692 554 c 1
 692 554 692 0 692 0 c 1
 692 0 559 0 559 0 c 1
 559 0 559 371 559 371 c 1
 559 371 430 0 430 0 c 1
EndSplineSet
Fore
SplineSet
412 115 m 1
 412 115 334 115 334 115 c 1
 334 115 187 366 187 366 c 1
 187 366 187 0 187 0 c 1
 187 0 54 0 54 0 c 1
 54 0 54 554 54 554 c 1
 54 554 206 554 206 554 c 1
 206 554 373 270 373 270 c 5
 373 270 540 554 540 554 c 1
 540 554 692 554 692 554 c 1
 692 554 692 0 692 0 c 1
 692 0 559 0 559 0 c 1
 559 0 559 366 559 366 c 1
 559 366 412 115 412 115 c 1
EndSplineSet
Validated: 1
EndChar

StartChar: uni043D
Encoding: 1085 1085 284
Width: 618
Flags: W
HStem: 0 21G<54 187 431 564> 219 121<187 431> 534 20G<54 187 431 564>
VStem: 54 133<0 219 340 554> 431 133<0 219 340 554>
AnchorPoint: "Top" 309 630 basechar 0
LayerCount: 2
Fore
SplineSet
564 0 m 1
 564 0 431 0 431 0 c 25
 431 0 431 219 431 219 c 25
 431 219 187 219 187 219 c 25
 187 219 187 0 187 0 c 25
 187 0 54 0 54 0 c 17
 54 0 54 554 54 554 c 1
 54 554 187 554 187 554 c 1
 187 554 187 340 187 340 c 1
 187 340 431 340 431 340 c 5
 431 340 431 554 431 554 c 1
 431 554 564 554 564 554 c 1
 564 554 564 0 564 0 c 1
EndSplineSet
Validated: 1
EndChar

StartChar: uni043F
Encoding: 1087 1087 285
Width: 618
Flags: W
HStem: 0 21G<54 187 431 564> 433 121<187 431>
VStem: 54 133<0 433> 431 133<0 433>
AnchorPoint: "Top" 309 630 basechar 0
LayerCount: 2
Fore
SplineSet
564 0 m 1
 564 0 431 0 431 0 c 25
 431 0 431 433 431 433 c 25
 431 433 187 433 187 433 c 25
 187 433 187 0 187 0 c 25
 187 0 54 0 54 0 c 17
 54 0 54 554 54 554 c 1
 564 554 l 1
 564 554 564 0 564 0 c 1
EndSplineSet
Validated: 1
EndChar

StartChar: uni0442
Encoding: 1090 1090 286
Width: 427
Flags: W
HStem: 0 21G<147 280> 433 121<18 147 280 409>
VStem: 147 133<0 433>
AnchorPoint: "Top" 213 630 basechar 0
LayerCount: 2
Fore
SplineSet
409 433 m 25
 409 433 280 433 280 433 c 25
 280 433 280 0 280 0 c 25
 280 0 147 0 147 0 c 17
 147 0 147 433 147 433 c 1
 147 433 18 433 18 433 c 1
 18 433 18 554 18 554 c 1
 18 554 409 554 409 554 c 1
 409 554 409 433 409 433 c 25
EndSplineSet
Validated: 1
EndChar

StartChar: uni0444
Encoding: 1092 1092 287
Width: 779
Flags: W
HStem: -185 21G<323 456> -10 123<251.395 323 456 527.893> 441 123<251.395 323 456 527.893> 719 20G<323 456>
VStem: 33 134<186.247 366.001> 323 133<-185 -8.16068 113 441 562.155 739> 612 134<186.247 366.044>
CounterMasks: 1 0e
AnchorPoint: "Top" 389 805 basechar 0
LayerCount: 2
Back
SplineSet
323 739 m 5
 323 739 456 739 456 739 c 5
 456 739 456 -185 456 -185 c 5
 456 -185 323 -185 323 -185 c 5
 323 -185 323 739 323 739 c 5
390 567 m 7
 645 567 746 461 746 276 c 7
 746 91 645 -13 390 -13 c 7
 135 -13 33 91 33 276 c 7
 33 461 135 567 390 567 c 7
390 445 m 7
 229 445 167 387 167 276 c 7
 167 165 229 109 390 109 c 7
 551 109 612 165 612 276 c 7
 612 387 551 445 390 445 c 7
EndSplineSet
Fore
SplineSet
323 739 m 1
 323 739 456 739 456 739 c 1
 456 739 456 564 456 564 c 1
 663 547 746 444 746 276 c 0
 746 108 663 7 456 -10 c 1
 456 -10 456 -185 456 -185 c 1
 456 -185 323 -185 323 -185 c 1
 323 -185 323 -10 323 -10 c 1
 117 7 33 108 33 276 c 0
 33 444 117 546 323 564 c 1
 323 564 323 739 323 739 c 1
323 441 m 1
 212 426 167 370 167 276 c 0
 167 182 212 127 323 113 c 1
 323 113 323 441 323 441 c 1
456 113 m 1
 568 127 612 182 612 276 c 0
 612 370 568 426 456 441 c 1
 456 441 456 113 456 113 c 1
EndSplineSet
Validated: 1
EndChar

StartChar: uni0446
Encoding: 1094 1094 288
Width: 662
Flags: W
HStem: 0 121<187 410> 534 20G<54 187 410 543>
VStem: 54 133<121 554> 410 133<121 554>
AnchorPoint: "Top" 298 630 basechar 0
LayerCount: 2
Fore
SplineSet
543 554 m 5
 543 554 543 121 543 121 c 1
 543 121 649 121 649 121 c 1
 649 121 649 -132 649 -132 c 1
 649 -132 553 -132 553 -132 c 1
 553 -132 525 0 525 0 c 1
 525 0 54 0 54 0 c 1
 54 0 54 554 54 554 c 9
 54 554 187 554 187 554 c 25
 187 554 187 121 187 121 c 25
 187 121 410 121 410 121 c 25
 410 121 410 554 410 554 c 25
 410 554 543 554 543 554 c 5
EndSplineSet
Validated: 1
EndChar

StartChar: uni0447
Encoding: 1095 1095 289
Width: 534
VWidth: 0
Flags: W
HStem: 0 21G<347 480> 186 121<185.501 345.133> 534 20G<35 168 347 480>
VStem: 35 133<325.252 554> 347 133<0 199 312.062 554>
AnchorPoint: "Top" 256 630 basechar 0
LayerCount: 2
Fore
SplineSet
480 554 m 25
 480 0 l 25
 347 0 l 25
 347 199 l 17
 295 189 265 186 225 186 c 3
 106 186 35 262 35 393 c 2
 35 554 l 1
 168 554 l 1
 168 393 l 2
 168 326 188 307 260 307 c 3
 292 307 319 310 347 316 c 9
 347 554 l 25
 480 554 l 25
EndSplineSet
Validated: 1
EndChar

StartChar: uni0448
Encoding: 1096 1096 290
Width: 833
Flags: W
HStem: 0 121<187 350 483 646> 534 20G<54 187 350 483 646 779>
VStem: 54 133<121 554> 350 133<121 554> 646 133<121 554>
CounterMasks: 1 38
AnchorPoint: "Top" 416 630 basechar 0
LayerCount: 2
Fore
SplineSet
779 0 m 1
 779 0 54 0 54 0 c 1
 54 0 54 554 54 554 c 13
 54 554 187 554 187 554 c 29
 187 554 187 121 187 121 c 17
 187 121 350 121 350 121 c 1
 350 121 350 554 350 554 c 5
 350 554 483 554 483 554 c 5
 483 554 483 121 483 121 c 1
 483 121 646 121 646 121 c 9
 646 121 646 554 646 554 c 29
 646 554 779 554 779 554 c 5
 779 554 779 0 779 0 c 1
EndSplineSet
Validated: 1
EndChar

StartChar: uni0449
Encoding: 1097 1097 291
Width: 898
Flags: W
HStem: 0 121<187 350 483 646> 534 20G<54 187 350 483 646 779>
VStem: 54 133<121 554> 350 133<121 554> 646 133<121 554>
CounterMasks: 1 38
AnchorPoint: "Top" 416 630 basechar 0
LayerCount: 2
Fore
SplineSet
885 121 m 1
 885 121 885 -132 885 -132 c 1
 885 -132 789 -132 789 -132 c 1
 789 -132 761 0 761 0 c 1
 761 0 54 0 54 0 c 1
 54 0 54 554 54 554 c 1
 54 554 187 554 187 554 c 1
 187 554 187 121 187 121 c 1
 187 121 350 121 350 121 c 1
 350 121 350 554 350 554 c 1
 350 554 483 554 483 554 c 1
 483 554 483 121 483 121 c 1
 483 121 646 121 646 121 c 1
 646 121 646 554 646 554 c 1
 646 554 779 554 779 554 c 1
 779 554 779 121 779 121 c 1
 779 121 885 121 885 121 c 1
EndSplineSet
Validated: 1
EndChar

StartChar: uni044A
Encoding: 1098 1098 292
Width: 620
VWidth: 0
Flags: W
HStem: 0 121<295 447.268> 243 121<295 447.268> 433 121<18 162>
VStem: 162 133<121 243 364 433> 464 134<136.394 227.606>
AnchorPoint: "Top" 228 630 basechar 0
LayerCount: 2
Fore
SplineSet
406 364 m 2
 521 364 598 280 598 182 c 0
 598 84 521 0 406 0 c 2
 406 0 162 0 162 0 c 1
 162 0 162 433 162 433 c 1
 162 433 18 433 18 433 c 1
 18 433 18 554 18 554 c 1
 18 554 295 554 295 554 c 1
 295 554 295 364 295 364 c 1
 295 364 406 364 406 364 c 2
295 243 m 1
 295 243 295 121 295 121 c 1
 295 121 397 121 397 121 c 2
 437 121 464 147 464 182 c 0
 464 217 437 243 397 243 c 2
 397 243 295 243 295 243 c 1
EndSplineSet
Validated: 1
EndChar

StartChar: uni044B
Encoding: 1099 1099 293
Width: 727
VWidth: 0
Flags: W
HStem: 0 121<187 339.268> 243 121<187 339.268> 534 20G<54 187 540 673>
VStem: 54 133<121 243 364 554> 356 134<136.394 227.606> 540 133<0 554>
AnchorPoint: "Top" 363 630 basechar 0
LayerCount: 2
Fore
SplineSet
187 243 m 25
 187 243 187 121 187 121 c 25
 187 121 289 121 289 121 c 18
 329 121 356 147 356 182 c 3
 356 217 329 243 289 243 c 10
 289 243 187 243 187 243 c 25
298 364 m 18
 413 364 490 280 490 182 c 3
 490 84 413 0 298 0 c 10
 298 0 54 0 54 0 c 25
 54 0 54 554 54 554 c 25
 54 554 187 554 187 554 c 25
 187 554 187 364 187 364 c 25
 187 364 298 364 298 364 c 18
540 0 m 1
 540 0 540 554 540 554 c 1
 540 554 673 554 673 554 c 1
 673 554 673 0 673 0 c 1
 673 0 540 0 540 0 c 1
EndSplineSet
Validated: 1
EndChar

StartChar: uni044C
Encoding: 1100 1100 294
Width: 512
VWidth: 0
Flags: W
HStem: 0 121<187 339.268> 243 121<187 339.268> 534 20G<54 187>
VStem: 54 133<121 243 364 554> 356 134<136.394 227.606>
AnchorPoint: "Top" 120 630 basechar 0
LayerCount: 2
Fore
SplineSet
187 243 m 25
 187 243 187 121 187 121 c 25
 187 121 289 121 289 121 c 18
 329 121 356 147 356 182 c 3
 356 217 329 243 289 243 c 10
 289 243 187 243 187 243 c 25
298 364 m 18
 413 364 490 280 490 182 c 3
 490 84 413 0 298 0 c 10
 298 0 54 0 54 0 c 25
 54 0 54 554 54 554 c 25
 54 554 187 554 187 554 c 25
 187 554 187 364 187 364 c 25
 187 364 298 364 298 364 c 18
EndSplineSet
Validated: 1
EndChar

StartChar: uni044D
Encoding: 1101 1101 295
Width: 619
Flags: W
HStem: -13 122<221.166 375.781> 220 117<214 448> 445 122<217.818 380.588>
VStem: 214 377<225.447 336.26>
AnchorPoint: "Top" 298 630 basechar 0
LayerCount: 2
Back
SplineSet
214.306640625 220 m 5
 214.306640625 220 214.306640625 337 214.306640625 337 c 5
 214.306640625 337 532.306640625 337 532.306640625 337 c 5
 532.306640625 337 532.306640625 220 532.306640625 220 c 5
 532.306640625 220 214.306640625 220 214.306640625 220 c 5
180.793945312 167 m 21
 211.40625 126.65625 247.03515625 109 296.306640625 109 c 4
 388.306640625 109 457.306640625 182 457.306640625 279 c 4
 457.306640625 377 392.306640625 445 299.306640625 445 c 4
 245.408203125 445 206.03515625 425.6328125 179.01171875 384 c 13
 179.01171875 384 26 384 26 384 c 21
 69.63671875 490.950195312 167.376953125 567 299.306640625 567 c 4
 463.306640625 567 591.306640625 440 591.306640625 277 c 4
 591.306640625 116 459.306640625 -13 295.306640625 -13 c 4
 170.642578125 -13 74.4853515625 52.291015625 26.2373046875 167 c 13
 26.2373046875 167 180.793945312 167 180.793945312 167 c 21
EndSplineSet
Fore
SplineSet
181 167 m 1
 212 127 247 109 296 109 c 0
 368 109 426 154 448 220 c 1
 448 220 214 220 214 220 c 1
 214 220 214 337 214 337 c 1
 214 337 449 337 449 337 c 1
 429 403 372 445 299 445 c 0
 245 445 206 426 179 384 c 1
 179 384 26 384 26 384 c 1
 70 491 167 567 299 567 c 0
 463 567 591 440 591 277 c 0
 591 116 459 -13 295 -13 c 0
 170 -13 74 52 26 167 c 1
 26 167 181 167 181 167 c 1
EndSplineSet
Validated: 1
EndChar

StartChar: uni044E
Encoding: 1102 1102 296
Width: 871
Flags: W
HStem: -17 122<466.256 620.937> 0 21G<54 187> 219 121<187 255.983> 449 122<466.971 621.379> 534 20G<54 187>
VStem: 54 133<0 219 340 554> 709 134<193.578 359.596>
AnchorPoint: "Top" 470 630 basechar 0
LayerCount: 2
Back
SplineSet
127 340 m 5x2380
 127 340 341 340 341 340 c 5
 341 340 341 219 341 219 c 29
 341 219 127 219 127 219 c 29
 127 219 127 340 127 340 c 5x2380
54 0 m 5x6d80
 54 0 54 554 54 554 c 5
 54 554 187 554 187 554 c 5
 187 554 187 0 187 0 c 5
 187 0 54 0 54 0 c 5x6d80
547 571 m 4xb180
 710 571 843 438 843 276 c 4
 843 115 709 -17 545 -17 c 4
 380 -17 246 115 246 276 c 4
 246 440 379 571 547 571 c 4xb180
542 449 m 4
 454 449 380 371 380 277 c 4
 380 182 454 105 544 105 c 4
 635 105 709 182 709 276 c 4
 709 373 635 449 542 449 c 4
EndSplineSet
Fore
SplineSet
542 449 m 0xb6
 454 449 380 371 380 277 c 0
 380 182 454 105 544 105 c 0
 635 105 709 182 709 276 c 0
 709 373 635 449 542 449 c 0xb6
547 571 m 0
 710 571 843 438 843 276 c 0
 843 115 709 -17 545 -17 c 0xb6
 400 -17 279 85 252 219 c 1
 252 219 187 219 187 219 c 1
 187 219 187 0 187 0 c 1
 187 0 54 0 54 0 c 1
 54 0 54 554 54 554 c 1
 54 554 187 554 187 554 c 1x6e
 187 554 187 340 187 340 c 1
 187 340 253 340 253 340 c 1
 282 473 402 571 547 571 c 0
EndSplineSet
Validated: 1
EndChar

StartChar: uni044F
Encoding: 1103 1103 297
Width: 513
VWidth: 0
Flags: W
HStem: 0 21G<17 177 326 459> 433 121<188.732 326>
VStem: 38 134<327.779 418.288> 326 133<0 192 313 433>
AnchorPoint: "Top" 257 630 basechar 0
LayerCount: 2
Back
SplineSet
324 241.099609375 m 5
 324 241.099609375 177 0 177 0 c 5
 177 0 17 0 17 0 c 5
 17 0 213 286 213 286 c 5
 213 286 324 241.099609375 324 241.099609375 c 5
326 313 m 29
 326 313 326 433 326 433 c 29
 326 433 239 433 239 433 c 22
 199 433 172 408 172 373 c 7
 172 338 199 313 239 313 c 14
 239 313 326 313 326 313 c 29
230 192 m 22
 115 192 38 275 38 373 c 7
 38 471 115 554 230 554 c 14
 230 554 459 554 459 554 c 29
 459 554 459 0 459 0 c 29
 459 0 326 0 326 0 c 29
 326 0 326 192 326 192 c 29
 326 192 230 192 230 192 c 22
EndSplineSet
Fore
SplineSet
326 313 m 1
 326 313 326 433 326 433 c 1
 326 433 239 433 239 433 c 2
 199 433 172 408 172 373 c 0
 172 338 199 313 239 313 c 2
 239 313 326 313 326 313 c 1
157 204 m 1
 84 231 38 298 38 373 c 0
 38 471 115 554 230 554 c 2
 230 554 459 554 459 554 c 1
 459 554 459 0 459 0 c 1
 459 0 326 0 326 0 c 1
 326 0 326 192 326 192 c 1
 326 192 294 192 294 192 c 1
 294 192 177 0 177 0 c 1
 177 0 17 0 17 0 c 1
 17 0 157 204 157 204 c 1
EndSplineSet
Validated: 1
EndChar

StartChar: f_f
Encoding: 64256 64256 298
Width: 566
Flags: W
HStem: 0 21G<68 201 340 473> 433 111<20 68 201 340 473 548> 611 128<213.299 284 485.299 556>
VStem: 68 133<0 433 544 600.722> 340 133<0 433 544 600.722>
LayerCount: 2
Fore
SplineSet
68 0 m 1
 68 0 68 433 68 433 c 1
 68 433 20 433 20 433 c 1
 20 433 20 544 20 544 c 1
 20 544 68 544 68 544 c 1
 75 616 86 648 115 680 c 0
 149 719 195 739 251 739 c 0
 260 739 268 739 284 737 c 1
 284 737 284 611 284 611 c 1
 284 611 270 611 270 611 c 2
 219 611 202 594 201 544 c 1
 340 544 l 1
 347 616 358 648 387 680 c 0
 421 719 467 739 523 739 c 0
 532 739 540 739 556 737 c 1
 556 737 556 611 556 611 c 1
 556 611 542 611 542 611 c 2
 491 611 474 594 473 544 c 1
 473 544 548 544 548 544 c 1
 548 544 548 433 548 433 c 1
 548 433 473 433 473 433 c 1
 473 433 473 0 473 0 c 1
 340 0 l 1
 340 0 340 433 340 433 c 1
 201 433 l 1
 201 433 201 0 201 0 c 1
 68 0 l 1
EndSplineSet
Validated: 1
Ligature2: "'liga' Standard Ligatures lookup 0-1" f f
EndChar

StartChar: f_f_i
Encoding: 64259 64259 299
Width: 799
Flags: W
HStem: 0 21G<68 201 340 473 612 745> 433 111<20 68 201 340 473 548> 534 20G<612 745> 611 128<213.299 284 485.299 556 612 745>
VStem: 68 133<0 433 544 600.722> 340 133<0 433 544 600.722> 612 133<0 554 614 739>
CounterMasks: 1 0e
LayerCount: 2
Fore
SplineSet
612 0 m 5xbe
 612 0 612 554 612 554 c 5
 612 554 745 554 745 554 c 5
 745 554 745 0 745 0 c 5
 745 0 612 0 612 0 c 5xbe
612 614 m 5
 612 614 612 739 612 739 c 5
 612 739 745 739 745 739 c 5
 745 739 745 614 745 614 c 5
 745 614 612 614 612 614 c 5
68 0 m 1
 68 0 68 433 68 433 c 1
 68 433 20 433 20 433 c 1
 20 433 20 544 20 544 c 1
 20 544 68 544 68 544 c 1
 75 616 86 648 115 680 c 0
 149 719 195 739 251 739 c 0
 260 739 268 739 284 737 c 1
 284 737 284 611 284 611 c 1
 284 611 270 611 270 611 c 2
 219 611 202 594 201 544 c 1
 201 544 340 544 340 544 c 1
 347 616 358 648 387 680 c 0
 421 719 467 739 523 739 c 0
 532 739 540 739 556 737 c 1
 556 737 556 611 556 611 c 1
 556 611 542 611 542 611 c 2
 491 611 474 594 473 544 c 1
 473 544 548 544 548 544 c 1
 548 544 548 433 548 433 c 1
 548 433 473 433 473 433 c 1
 473 433 473 0 473 0 c 1
 473 0 340 0 340 0 c 1
 340 0 340 433 340 433 c 1
 340 433 201 433 201 433 c 1xde
 201 433 201 0 201 0 c 1
 201 0 68 0 68 0 c 1
EndSplineSet
Validated: 1
Ligature2: "'liga' Standard Ligatures lookup 0-1" f f i
EndChar

StartChar: f_f_l
Encoding: 64260 64260 300
Width: 799
Flags: W
HStem: 0 21G<68 201 340 473 612 745> 433 111<20 68 201 340 473 548> 611 128<213.299 284 485.299 556>
VStem: 68 133<0 433 544 600.722> 340 133<0 433 544 600.722> 612 133<0 739>
CounterMasks: 1 1c
LayerCount: 2
Fore
SplineSet
612 0 m 5
 612 0 612 739 612 739 c 5
 612 739 745 739 745 739 c 5
 745 739 745 0 745 0 c 5
 745 0 612 0 612 0 c 5
68 0 m 1
 68 0 68 433 68 433 c 1
 68 433 20 433 20 433 c 1
 20 433 20 544 20 544 c 1
 20 544 68 544 68 544 c 1
 75 616 86 648 115 680 c 0
 149 719 195 739 251 739 c 0
 260 739 268 739 284 737 c 1
 284 737 284 611 284 611 c 1
 284 611 270 611 270 611 c 2
 219 611 202 594 201 544 c 1
 340 544 l 1
 347 616 358 648 387 680 c 0
 421 719 467 739 523 739 c 0
 532 739 540 739 556 737 c 1
 556 737 556 611 556 611 c 1
 556 611 542 611 542 611 c 2
 491 611 474 594 473 544 c 1
 473 544 548 544 548 544 c 1
 548 544 548 433 548 433 c 1
 548 433 473 433 473 433 c 1
 473 433 473 0 473 0 c 1
 340 0 l 1
 340 0 340 433 340 433 c 1
 201 433 l 1
 201 433 201 0 201 0 c 1
 68 0 l 1
EndSplineSet
Validated: 1
Ligature2: "'liga' Standard Ligatures lookup 0-1" f f l
EndChar

StartChar: figuredash
Encoding: 8210 8210 303
Width: 560
Flags: W
HStem: 229 118<30 530>
LayerCount: 2
Fore
SplineSet
30 229 m 1
 30 229 30 347 30 347 c 1
 30 347 530 347 530 347 c 5
 530 347 530 229 530 229 c 5
 530 229 30 229 30 229 c 1
EndSplineSet
Validated: 1
EndChar

StartChar: uni0404
Encoding: 1028 1028 307
Width: 802
Flags: W
HStem: -13 132<324.206 520.59> 307 131<183 546> 620 132<316.907 526.412>
VStem: 36 510<313.052 429.67>
AnchorPoint: "Top" 420 805 basechar 0
LayerCount: 2
Fore
SplineSet
605 206 m 1
 766 206 l 1
 708 71 577 -13 425 -13 c 0
 209 -13 36 158 36 372 c 0
 36 581 207 752 416 752 c 0
 509 752 598 720 667 662 c 0
 714 622 738 589 766 527 c 1
 613 527 l 1
 563 592 505 620 419 620 c 0
 343 620 280 592 235 539 c 0
 211 511 193 476 183 438 c 1
 546 438 l 1
 546 307 l 1
 182 307 l 1
 210 199 307 119 422 119 c 0
 493 119 544 143 605 206 c 1
EndSplineSet
Validated: 1
EndChar

StartChar: uni0454
Encoding: 1108 1108 317
Width: 619
Flags: W
HStem: -13 122<241.219 395.834> 220 117<169 403> 445 122<236.412 399.182>
VStem: 26 377<225.447 336.26>
AnchorPoint: "Top" 321 630 basechar 0
LayerCount: 2
Fore
SplineSet
436 167 m 5
 591 167 l 5
 543 52 447 -13 322 -13 c 4
 158 -13 26 116 26 277 c 4
 26 440 154 567 318 567 c 4
 450 567 547 491 591 384 c 5
 438 384 l 5
 411 426 372 445 318 445 c 4
 245 445 188 403 168 337 c 5
 403 337 l 5
 403 220 l 5
 169 220 l 5
 191 154 249 109 321 109 c 4
 370 109 405 127 436 167 c 5
EndSplineSet
Validated: 1
EndChar

StartChar: uni0409
Encoding: 1033 1033 325
Width: 1012
Flags: W
HStem: 0 131<610 803.997> 319 131<610 801.989> 719 20G<473 610>
VStem: 473 137<131 319 450 513> 847 138<168.664 279.433>
AnchorPoint: "Top" 540 805 basechar 0
LayerCount: 2
Fore
SplineSet
167 0 m 1
 167 0 2 0 2 0 c 1
 2 0 473 739 473 739 c 1
 610 739 l 1
 610 450 l 1
 659 450 l 2
 772 450 825 443 870 421 c 0
 942 386 985 310 985 224 c 0
 985 142 947 75 880 37 c 0
 831 9 774 0 661 0 c 2
 661 0 473 0 473 0 c 1
 473 513 l 1
 167 0 l 1
610 319 m 1
 610 131 l 1
 665 131 l 2
 719 131 744 133 770 138 c 0
 818 149 847 182 847 227 c 0
 847 267 818 298 771 309 c 0
 744 316 706 319 658 319 c 2
 610 319 l 1
EndSplineSet
Validated: 1
EndChar

StartChar: uni040A
Encoding: 1034 1034 326
Width: 1004
Flags: W
HStem: 0 131<602 795.997> 319 131<208 465 602 793.989> 719 20G<71 208 465 602>
VStem: 71 137<0 319 450 739> 465 137<131 319 450 739> 839 138<168.664 279.433>
AnchorPoint: "Top" 531 805 basechar 0
LayerCount: 2
Fore
SplineSet
71 0 m 1
 71 0 71 739 71 739 c 1
 71 739 208 739 208 739 c 1
 208 739 208 450 208 450 c 1
 208 450 465 450 465 450 c 1
 465 739 l 1
 465 739 602 739 602 739 c 1
 602 450 l 1
 651 450 l 2
 764 450 817 443 862 421 c 0
 934 386 977 310 977 224 c 0
 977 142 939 75 872 37 c 0
 823 9 766 0 653 0 c 2
 653 0 465 0 465 0 c 1
 465 319 l 1
 465 319 208 319 208 319 c 1
 208 319 208 0 208 0 c 1
 71 0 l 1
602 319 m 1
 602 131 l 1
 657 131 l 2
 711 131 736 133 762 138 c 0
 810 149 839 182 839 227 c 0
 839 267 810 298 763 309 c 0
 736 316 698 319 650 319 c 2
 602 319 l 1
EndSplineSet
Validated: 1
EndChar

StartChar: uni0459
Encoding: 1113 1113 327
Width: 813
Flags: W
HStem: 0 121<488 640.268> 243 121<488 640.268> 534 20G<342.256 488>
VStem: 355 133<121 243> 657 134<136.394 227.606>
AnchorPoint: "Top" 419 630 basechar 0
LayerCount: 2
Fore
SplineSet
599 364 m 2
 714 364 791 280 791 182 c 0
 791 84 714 0 599 0 c 2
 599 0 355 0 355 0 c 1
 355 334 l 1
 154 0 l 1
 2 0 l 1
 355 554 l 1
 488 554 l 1
 488 364 l 1
 599 364 l 2
488 243 m 1
 488 121 l 1
 590 121 l 2
 630 121 657 147 657 182 c 0
 657 217 630 243 590 243 c 2
 488 243 l 1
EndSplineSet
Validated: 1
EndChar

StartChar: uni045A
Encoding: 1114 1114 328
Width: 877
Flags: W
HStem: 0 121<552 704.268> 219 121<187 419> 243 121<552 704.268> 534 20G<54 187 419 552>
VStem: 54 133<0 219 340 554> 419 133<121 219 364 554> 721 134<136.394 227.606>
AnchorPoint: "Top" 476 630 basechar 0
LayerCount: 2
Fore
SplineSet
663 364 m 2xbe
 778 364 855 280 855 182 c 0
 855 84 778 0 663 0 c 2
 419 0 l 1
 419 219 l 1
 419 219 187 219 187 219 c 1
 187 219 187 0 187 0 c 1
 187 0 54 0 54 0 c 1
 54 0 54 554 54 554 c 1
 54 554 187 554 187 554 c 1
 187 554 187 340 187 340 c 1
 187 340 419 340 419 340 c 1xde
 419 554 l 1
 419 554 552 554 552 554 c 1
 552 364 l 1
 663 364 l 2xbe
552 243 m 1xbe
 552 121 l 1
 552 121 654 121 654 121 c 2
 694 121 721 147 721 182 c 0
 721 217 694 243 654 243 c 2
 552 243 l 1xbe
EndSplineSet
Validated: 1
EndChar

StartChar: uni0402
Encoding: 1026 1026 329
Width: 693
Flags: W
HStem: -13 131<400 476.979> 0 21G<154 291> 319 131<291 485.871> 608 131<7 154 291 468>
VStem: 154 137<0 319 450 608> 528 138<167.355 282.079>
AnchorPoint: "Top" 230 805 basechar 0
LayerCount: 2
Fore
SplineSet
400 -13 m 1xbc
 400 118 l 1xbc
 460 118 528 156 528 227 c 0
 528 307 445 319 349 319 c 2
 291 319 l 1
 291 0 l 1
 154 0 l 1x7c
 154 608 l 1
 7 608 l 1
 7 739 l 5
 468 739 l 5
 468 608 l 1
 291 608 l 1
 291 450 l 1
 340 450 l 2
 453 450 506 443 551 421 c 0
 623 386 666 310 666 224 c 0
 666 68 542 -13 400 -13 c 1xbc
EndSplineSet
Validated: 1
EndChar

StartChar: uni040B
Encoding: 1035 1035 330
Width: 702
Flags: W
HStem: 0 21G<154 291 513 651> 321 131<291 477.01> 608 131<7 154 291 468>
VStem: 154 137<0 319.169 448 608> 513 138<0 288.015>
AnchorPoint: "Top" 235 805 basechar 0
LayerCount: 2
Fore
SplineSet
513 0 m 17
 513 224 l 2
 513 300 463 321 376 321 c 3
 345 321 312 320 291 317 c 1
 291 0 l 1
 154 0 l 1
 154 608 l 1
 7 608 l 1
 7 739 l 1
 468 739 l 1
 468 608 l 1
 291 608 l 1
 291 448 l 1
 291 448 322 452 417 452 c 3
 544 452 651 371 651 224 c 2
 651 0 l 9
 513 0 l 17
EndSplineSet
Validated: 1
EndChar

StartChar: uni040F
Encoding: 1039 1039 331
Width: 666
Flags: W
HStem: 0 131<208 261 405 458> 719 20G<71 208 458 595>
VStem: 71 137<131 739> 287 92<-145 -105.962> 458 137<131 739>
CounterMasks: 1 38
AnchorPoint: "Top" 333 805 basechar 0
LayerCount: 2
Fore
SplineSet
595 739 m 1
 595 739 595 0 595 0 c 1
 405 0 l 1
 379 -145 l 1
 287 -145 l 1
 261 0 l 1
 71 0 l 1
 71 0 71 739 71 739 c 1
 71 739 208 739 208 739 c 1
 208 739 208 131 208 131 c 1
 208 131 458 131 458 131 c 1
 458 131 458 739 458 739 c 1
 458 739 595 739 595 739 c 1
EndSplineSet
Validated: 1
EndChar

StartChar: uni045B
Encoding: 1115 1115 332
Width: 675
Flags: W
HStem: 0 21G<132 265 490 623> 347 123<311.926 450.165> 554 117<13 132 265 405> 719 20G<132 265>
VStem: 132 133<0 297.726 418 554 671 739> 490 133<0 304.851>
AnchorPoint: "Top" 368 805 basechar 0
LayerCount: 2
Fore
SplineSet
132 554 m 1
 13 554 l 1
 13 671 l 1
 132 671 l 1
 132 739 l 1
 132 739 265 739 265 739 c 1
 265 671 l 1
 405 671 l 1
 405 554 l 1
 265 554 l 1
 265 418 l 1
 305 454 348 470 406 470 c 0
 487 470 553 437 589 378 c 0
 614 337 623 293 623 215 c 2
 623 215 623 0 623 0 c 1
 623 0 490 0 490 0 c 1
 490 0 490 185 490 185 c 2
 490 302 460 347 382 347 c 0
 336 347 302 328 283 291 c 0
 270 267 265 236 265 183 c 2
 265 183 265 0 265 0 c 1
 132 0 l 1
 132 554 l 1
EndSplineSet
Validated: 1
EndChar

